<mxfile host="app.diagrams.net" agent="Mozilla/5.0 (Windows NT 10.0; Win64; x64) AppleWebKit/537.36 (KHTML, like Gecko) Chrome/131.0.0.0 Safari/537.36" version="24.9.3">
  <diagram id="6a731a19-8d31-9384-78a2-239565b7b9f0" name="Page-1">
    <mxGraphModel dx="1235" dy="665" grid="1" gridSize="10" guides="1" tooltips="1" connect="1" arrows="1" fold="1" page="1" pageScale="1" pageWidth="1169" pageHeight="827" background="none" math="0" shadow="1">
      <root>
        <mxCell id="0" />
        <mxCell id="1" parent="0" />
        <mxCell id="2109" value="ISP" style="shape=mxgraph.cisco.storage.cloud;html=1;dashed=0;strokeColor=#23445D;fillColor=#ffffff;strokeWidth=2;fontFamily=Helvetica;fontSize=24;fontColor=#23445D;align=center;fontStyle=1" parent="1" vertex="1">
          <mxGeometry x="480" y="190" width="151" height="86" as="geometry" />
        </mxCell>
        <mxCell id="2138" value="" style="shape=mxgraph.cisco.routers.router;html=1;dashed=0;fillColor=#10739E;strokeColor=#ffffff;strokeWidth=2;verticalLabelPosition=bottom;verticalAlign=top;fontFamily=Helvetica;fontSize=36;fontColor=#FFB366" parent="1" vertex="1">
          <mxGeometry x="1070" y="220" width="78" height="53" as="geometry" />
        </mxCell>
        <mxCell id="2170" value="" style="elbow=horizontal;endArrow=none;html=1;strokeColor=#23445D;endFill=0;strokeWidth=4;rounded=1" parent="1" edge="1">
          <mxGeometry width="100" height="100" relative="1" as="geometry">
            <mxPoint x="710" y="239" as="sourcePoint" />
            <mxPoint x="630" y="239" as="targetPoint" />
          </mxGeometry>
        </mxCell>
        <mxCell id="m2H0JOLHWEN70MxN9WDA-2259" value="" style="shape=mxgraph.cisco.routers.wireless_router;sketch=0;html=1;pointerEvents=1;dashed=0;fillColor=#036897;strokeColor=#ffffff;strokeWidth=2;verticalLabelPosition=bottom;verticalAlign=top;align=center;outlineConnect=0;" vertex="1" parent="1">
          <mxGeometry x="710" y="190" width="78" height="77" as="geometry" />
        </mxCell>
        <mxCell id="m2H0JOLHWEN70MxN9WDA-2261" value="" style="elbow=horizontal;endArrow=none;html=1;strokeColor=#23445D;endFill=0;strokeWidth=4;rounded=1;entryX=1.026;entryY=0.662;entryDx=0;entryDy=0;entryPerimeter=0;" edge="1" parent="1" target="m2H0JOLHWEN70MxN9WDA-2259">
          <mxGeometry width="100" height="100" relative="1" as="geometry">
            <mxPoint x="1070" y="241" as="sourcePoint" />
            <mxPoint x="868" y="241" as="targetPoint" />
          </mxGeometry>
        </mxCell>
        <mxCell id="m2H0JOLHWEN70MxN9WDA-2264" value="UNIFI" style="text;html=1;align=center;verticalAlign=middle;whiteSpace=wrap;rounded=0;shadow=0;fontStyle=1;textShadow=0;" vertex="1" parent="1">
          <mxGeometry x="687.5" y="150" width="123" height="55" as="geometry" />
        </mxCell>
        <mxCell id="m2H0JOLHWEN70MxN9WDA-2267" value="MIKROTIK HEX&amp;nbsp;" style="text;html=1;align=center;verticalAlign=middle;whiteSpace=wrap;rounded=0;shadow=0;fontStyle=1;textShadow=0;" vertex="1" parent="1">
          <mxGeometry x="1047.5" y="180" width="123" height="55" as="geometry" />
        </mxCell>
        <mxCell id="m2H0JOLHWEN70MxN9WDA-2268" value="" style="elbow=horizontal;endArrow=none;html=1;strokeColor=#23445D;endFill=0;strokeWidth=4;rounded=1" edge="1" parent="1">
          <mxGeometry width="100" height="100" relative="1" as="geometry">
            <mxPoint x="1280" y="241" as="sourcePoint" />
            <mxPoint x="1148" y="241" as="targetPoint" />
          </mxGeometry>
        </mxCell>
        <mxCell id="m2H0JOLHWEN70MxN9WDA-2269" value="" style="elbow=horizontal;endArrow=none;html=1;strokeColor=#23445D;endFill=0;strokeWidth=4;rounded=1" edge="1" parent="1">
          <mxGeometry width="100" height="100" relative="1" as="geometry">
            <mxPoint x="1108" y="400" as="sourcePoint" />
            <mxPoint x="1108" y="273" as="targetPoint" />
          </mxGeometry>
        </mxCell>
        <mxCell id="m2H0JOLHWEN70MxN9WDA-2270" value="" style="shape=mxgraph.cisco.routers.wireless_router;sketch=0;html=1;pointerEvents=1;dashed=0;fillColor=#036897;strokeColor=#ffffff;strokeWidth=2;verticalLabelPosition=bottom;verticalAlign=top;align=center;outlineConnect=0;" vertex="1" parent="1">
          <mxGeometry x="1282" y="190" width="78" height="77" as="geometry" />
        </mxCell>
        <mxCell id="m2H0JOLHWEN70MxN9WDA-2271" value="TELTONIKA RUT" style="text;html=1;align=center;verticalAlign=middle;whiteSpace=wrap;rounded=0;shadow=0;fontStyle=1;textShadow=0;" vertex="1" parent="1">
          <mxGeometry x="1259.5" y="150" width="123" height="55" as="geometry" />
        </mxCell>
        <mxCell id="m2H0JOLHWEN70MxN9WDA-2277" value="" style="elbow=horizontal;endArrow=none;html=1;strokeColor=#23445D;endFill=0;strokeWidth=4;rounded=1" edge="1" parent="1">
          <mxGeometry width="100" height="100" relative="1" as="geometry">
            <mxPoint x="1216.5" y="520" as="sourcePoint" />
            <mxPoint x="1001.5" y="520" as="targetPoint" />
          </mxGeometry>
        </mxCell>
        <mxCell id="m2H0JOLHWEN70MxN9WDA-2279" value="" style="elbow=horizontal;endArrow=none;html=1;strokeColor=#23445D;endFill=0;strokeWidth=4;rounded=1" edge="1" parent="1">
          <mxGeometry width="100" height="100" relative="1" as="geometry">
            <mxPoint x="1000" y="580" as="sourcePoint" />
            <mxPoint x="1000" y="517" as="targetPoint" />
          </mxGeometry>
        </mxCell>
        <mxCell id="m2H0JOLHWEN70MxN9WDA-2280" value="" style="elbow=horizontal;endArrow=none;html=1;strokeColor=#23445D;endFill=0;strokeWidth=4;rounded=1" edge="1" parent="1">
          <mxGeometry width="100" height="100" relative="1" as="geometry">
            <mxPoint x="1215" y="580" as="sourcePoint" />
            <mxPoint x="1215" y="518" as="targetPoint" />
          </mxGeometry>
        </mxCell>
        <mxCell id="m2H0JOLHWEN70MxN9WDA-2283" value="" style="elbow=horizontal;endArrow=none;html=1;strokeColor=#23445D;endFill=0;strokeWidth=4;rounded=1;" edge="1" parent="1">
          <mxGeometry width="100" height="100" relative="1" as="geometry">
            <mxPoint x="1108.47" y="520" as="sourcePoint" />
            <mxPoint x="1110" y="450" as="targetPoint" />
          </mxGeometry>
        </mxCell>
        <mxCell id="m2H0JOLHWEN70MxN9WDA-2285" value="TP-LINK PoE&amp;nbsp;&lt;div&gt;Switch&amp;nbsp;4 Port&lt;/div&gt;" style="text;html=1;align=center;verticalAlign=middle;whiteSpace=wrap;rounded=0;shadow=0;fontStyle=1;textShadow=0;" vertex="1" parent="1">
          <mxGeometry x="1137.5" y="405.47" width="123" height="55" as="geometry" />
        </mxCell>
        <mxCell id="m2H0JOLHWEN70MxN9WDA-2286" value="TP-LINK&amp;nbsp;&lt;div&gt;ACCESS POINT 1&lt;/div&gt;" style="text;html=1;align=center;verticalAlign=middle;whiteSpace=wrap;rounded=0;shadow=0;fontStyle=1;textShadow=0;" vertex="1" parent="1">
          <mxGeometry x="782" y="552.8000000000001" width="123" height="55" as="geometry" />
        </mxCell>
        <mxCell id="m2H0JOLHWEN70MxN9WDA-2287" value="TP-LINK&amp;nbsp;&lt;div&gt;ACCESS POINT 2&lt;/div&gt;" style="text;html=1;align=center;verticalAlign=middle;whiteSpace=wrap;rounded=0;shadow=0;fontStyle=1;textShadow=0;" vertex="1" parent="1">
          <mxGeometry x="1310.04" y="553.0500000000001" width="123" height="55" as="geometry" />
        </mxCell>
        <mxCell id="m2H0JOLHWEN70MxN9WDA-2288" value="" style="image;points=[];aspect=fixed;html=1;align=center;shadow=0;dashed=0;image=img/lib/allied_telesis/wireless/Access_Point_Outdoor.svg;" vertex="1" parent="1">
          <mxGeometry x="905" y="483" width="50.54" height="195.1" as="geometry" />
        </mxCell>
        <mxCell id="m2H0JOLHWEN70MxN9WDA-2289" value="" style="image;points=[];aspect=fixed;html=1;align=center;shadow=0;dashed=0;image=img/lib/allied_telesis/wireless/Access_Point_Outdoor.svg;" vertex="1" parent="1">
          <mxGeometry x="1259.5" y="482.75" width="50.54" height="195.1" as="geometry" />
        </mxCell>
        <mxCell id="m2H0JOLHWEN70MxN9WDA-2290" value="" style="elbow=horizontal;endArrow=none;html=1;strokeColor=#23445D;endFill=0;strokeWidth=4;rounded=1;entryX=0.01;entryY=0.504;entryDx=0;entryDy=0;entryPerimeter=0;" edge="1" parent="1" target="m2H0JOLHWEN70MxN9WDA-2289">
          <mxGeometry width="100" height="100" relative="1" as="geometry">
            <mxPoint x="1213" y="581" as="sourcePoint" />
            <mxPoint x="1250" y="581" as="targetPoint" />
          </mxGeometry>
        </mxCell>
        <mxCell id="m2H0JOLHWEN70MxN9WDA-2291" value="" style="elbow=horizontal;endArrow=none;html=1;strokeColor=#23445D;endFill=0;strokeWidth=4;rounded=1;entryX=0.01;entryY=0.504;entryDx=0;entryDy=0;entryPerimeter=0;" edge="1" parent="1">
          <mxGeometry width="100" height="100" relative="1" as="geometry">
            <mxPoint x="955" y="580.12" as="sourcePoint" />
            <mxPoint x="1002" y="580.12" as="targetPoint" />
          </mxGeometry>
        </mxCell>
        <mxCell id="m2H0JOLHWEN70MxN9WDA-2304" value="" style="shape=image;imageAspect=0;aspect=fixed;verticalLabelPosition=bottom;verticalAlign=top;image=data:image/png,iVBORw0KGgoAAAANSUhEUgAAAUcAAAFeCAYAAAAWkN04AAAAAXNSR0IArs4c6QAAIABJREFUeF7svQeYZFd55n9udY7T07knB40mKaMAkkAiCIQkGM0oEswaex3Wi1nbC9hrFsOzBkz4e9dpd21WgyRsZIIxYEBGsgJIKEtoRhIzjKTJOXR1T0/nrqr79+/cemvO1FR1VYeqTreep5+qvvfcc8/9zjnvfb9wvuOZ8BNKIJRAKIFQAmdJwAtlEkoglEAogVACZ0sgBMdwVIQSCCUQSiCDBEJwDIdFKIFQAqEEQnAMx0AogVACoQTyk0DIHPOTU1gqlEAogTkmgRAc51iHh48bSiCUQH4SCMExPzmFpUIJhBKYYxIIwXGOdXj4uKEEQgnkJ4EQHPOTU1gqlEAogTkmgRAc51iHh48bSiCUQH4SCMExPzmFpUIJhBKYYxIIwXGOdXj4uKEEQgnkJ4EQHPOTU1gqlEAogTkmgRAc51iHh48bSiCUQH4SCMExPzmFpUIJhBKYYxIIwXGOdXj4uKEEQgnkJ4FpD46+71f09/c3RiKRSmNMfHh4uLe+vr7L8zw/v0cMS4USCCUQSmDsEpiW4NjX13dpf3//+2Kx2DtisdiiRCIxPx6Pe4lEgicc9Dyvs7S0dJ/neU9VVFQ84Pv+E+3t7X1jf/zwilACoQRCCWSWwLQCx/7+/qv6+vq+ODQ0dFUsFrMtLi0ttd++79s/AJI//c+5kpKSroqKim9UV1f/fw0NDbvCzg4lEEoglMBEJTBtwPHkyZOf7uvr+8zIyIjxPM+CYklJiRkcHLT/6y8dIDkej8ftXyQSMVVVVV+rq6v73/PmzXt2osIJrw8lEEpg7kpgWoBjd3f3lwcGBj4GWwQQ+RMIul3DMbFIHQcUVZbfsEqAtaKi4qcVFRWfbmlp+enc7d7wyUMJhBIYrwSmHByj0ejHY7HYlwA2WCDsjw8MErAsKyuz/6er0qfB0bdgyrWU4Rqp5BwrLy97tKam+k9bWloeHa+QwutCCYQSmHsSmFJwHB4evjAajW5JV5lhgoAkfwK6TAwyYJEBKIpVUpeYpPtdVlb6UG1tzR83Nzc/N/e6OXziUAKhBMYqgSkFx+PHj7/g+/4l6aqyHsJVo/XbPRccC5im66Bx/9dxqd8lJaXfra+v+VxLS8sLYxVWWD6UQCiBuSOBKQPH3t7eX+3v779bTM9lfi64pZ/PBI6jAaNbVzIUyKrh5eVl/1haWvKptra2nXOnu8MnDSUQSiBfCUwZOEaj0V/EYrF1Ar/0BqerydmYo28iWVkjdQoQBZKuCu77fqy8rOQvWltb/6q6unp/vkILy4USCCUw+yUwJeDY09Nz5cDAwBNyvrhqNWCZSc0eCzimq9lilm4dKbbpx7Fr9lVUVHxx6dKlf+55Xv/s7/bwCUMJhBLIJYEpAceTJ0/+74GBgd/BE52uEtPgdDaZqUzKHplkjumAqvMAsEJ8MoFjPDZsQ39glPF4/HhNTc2fLliwYHMIkrmGTng+lMDslsCUgGNXV9eukZGR5QIlAZtYo2tXzMQi3WNSq91uSo+HzGaTBBBLIkHYkMKI+B2Pxw/W1tb+8aJFi742u7s/fLpQAqEEskmg6ODY39+/cGBg4ACAlUmFznQsXaV2wdMFx/Q60wPJ3bpTAJoIlinCLgkbooyC0OPx+KuNjY1/0tTU9M1wCIUSCCUwtyRQdHDs6el5z/Dw8L+g7sLc0lVolz0K7EYDx4Sf20bp2hzT6/KMVaetek+b+IY98q3li9XV1dtgks3Nzd+fW8MjfNpQAnNXAkUHx2g0+tl/XwDzSYBRYDSa+LMBY7rqfZbNMS3+MZNDh2vSvNdn2EAFmMPDwxZAKyoqnq2vm/fJ5uaGh+bukAmfPJTA3JBA0cGxs7PzXz3Pu16sMZeYc4HjGfbH5NpreywJjjo/Gjiml3FtlC67Re3mXHlF+Q8a6us+PX/+/BdztT88H0oglMDMlEBRwdH3/dJoNLrHGLNQgJTuhBmrGNOdLylGmQMcRwNEFxy15ptjgCP/8ykvLzflZaX/p7Ky4vPNzc0Hx9rusHwogVAC01sCRQXHnp6eppGRkWO+70dcm+NERJQenuOCo2vPFOCl2zRzebbd/JHuGnBUbWyTlRVl/eSRLCkp+XJra2vvRJ4lvDaUQCiB6SOBooLjwMDA8v7+/l1ydsDE3EBwVyzZgsGzie4stTkP5phJJU8P+3HVas7JecO1to1+kEvSGHOyurr6Sx0dHV/2PG9k+nRx2JJQAqEExiOBooJjb2/vRUNDQy8CMsQ4wrwygeNYVO2snuwMCSncUJ9MwJiuavN/+vJD17Nt06TFbVyk/QtSpJUfqaqq+qPW1tZ7x9Mh4TWhBEIJTA8JFBUcu7u7r0skEg8COKyOQTVNB8exAKMrwrNA0iuxp9OZYLrY08+nq9luHkmp1dQh+6Nv4ql8km4YUHVV1c8qayo/09zQ/PD06OqwFaEEQgmMRQLFBsfbEonEtwAcHBpDQ0OTBo4uE7S2xixqdTr4pjNDtx73d3rIj9RqL3LaUSPwFJMELCsqK35YX1P33xobG18ZS8eEZUMJhBKYWgkUFRy7uro+bIz5aibnSDYxpKvCAqVMDPAMJmkiqQDzbKq3sofrukye73TwzObAcRmoW0amg8qqyrvqahr/rKGhMtwAbGrHfHj3UAJ5SaDY4PhRY8xfjgUcMz1FJtV7NLU6nQ26AJsJEN26cjFLndczZVLTZacsLS2NV1RW/FXE+J8Kt5LNa3yGhUIJTJkEigqO7Bfjed6XJgKO2WySLqC5anU21ngGy3SDx53fLqhmA1H3uAuQbv1SswWk5eXlJ2qqa/57S0vj301Zz4c3DiUQSmBUCRQbHD/ped5nCwGOArJUCFCazTEbA3XBM9vvTCCp+tKZYzpLlRdbKjyOHIUHlZREttTV1ny8ubk5XI4YTtRQAtNMAkUFx87Ozs9EIpFP5wLH9EDtbHbG0WH/tLd6tHKjAWI60GUqm84c069JB890x05sZIi9tr/V0NDw6fr6+l9Os/ERNieUwJyVQFHBMRqN/pnneX80GjiON5TH7cF0b/VoNkfXpqg60lXx0f7PBY46r5U2AnqOwyrJJ4nX3vf9kbq6ui90dHR8IUy0O2fnY/jg00gCRQXHrq6uPzfG/EGxwDFTRvF0FjoWIMwEspm8127/ugk2XNao/JFlpaczlXNdSUnJsaqqqo+3tbWFiXan0UQJmzL3JFBUcIxGo3/ted5HCgmOKebpBIHn6tbRnDb5qt3pXmrXJimQdlfXcN6CZSLI9MMf/2uf7oqKiperqqo+0tra+liu9ofnQwmEEph8CRQbHP/O87zfFBhkyuc4UbU6k0MmX7EJCDPZPLOCpJew1WfyZgsA08+7QOp6uDP9LikpvXf+vHl/2tDQEG4hm29HhuVCCUyCBIoKjp2dnXdHIpFfna7gmEmeOdVuE6Qwy8Y+swGhrkkHxEzHI5HIcEVF+Wc62mxSi2Bfh/ATSiCUQEElUFRwjEaj/+B53gdmEji60s8EgKytzsYaM12bizWmg6ObMq2srOxAdWXV77e2tv5TQUdFWHkogVACptjg+A3P8+6YDHDMlNLsDHXYiXMcrZ+zpUbLN2Vawj9N5PKxXabbJvNhjoqRZCkiYFlRUfFE7byaP2ie1/xsOIZDCYQSKIwEigqOnZ2d34lEIpsmAo752iTdxBOZRJdeTzqw5bMSx7K8pFqdS7V2z2fycOdSv10GSV02yUXE+2prU8t/r6mpOVyY4RHWGkpg7kqgqOAYjUa/73nee6caHPMF2HyGhcBxNJuj6kkHwPTj6U4fl1VmCia3m5QZr7+mpua/t7e3/6982huWCSUQSiA/CRQbHO/3PO/d4wXHsYBaNuY4ljryEqGXGLPNMZ1lZgLNTOo3YKg9bPD08zfQ12+/y8rKtlZUVHysra0tXIqYV8eFhUIJjC6BooJjV1fXg8aY6yYLHNODvN1HzRccR6tjtHOpe6WF8gj4MoUDZVKtdSybqs15N3jcjZm0SYNLSi1gamfEioqKb9fU1HyssbFxXzj4QwmEEhi/BIoKjtFo9BHP8946XnCUrW20x80n8YQLXJkAcCzsMptaPVqsZLr67KrX6QCayxZpEkHwuD7JQPPh6urqz7W3t7MUcXj8wyO8MpTA3JVAscHxMc/z3jwbwdEFtVzOnEwscTRW6bLL9Gs9/0xmqVU2tKG0tHRnTU3Nf25qanpg7g7x8MlDCYxPAsUGxyc9z3tTscEx3cZXCOaYTfzpIUHZgDETOKY7eVwHjQuY6csStb+NQoCqqqq/1lBf/4na2tqj4xsm4VWhBOaeBIoKjl1dXc8YYy6fSnBMZ3UTVatNBptjNvU/U7B4JhU7U7nRbJOAoxJc6Hn0P5uYWa92JNJTU1P7Rx1tbf937g3z8IlDCYxdAkUFx2g0+oLneZdMBThmEk2uAPC8xJkEx1xls9kZ3esyeah13gVMty6xQ9kd03dLpKzr5S4tLXu4pqrqj5ubwwDyXH0Wnp/bEig2OG7xPO/CmQ6OZ7BPJ5QnfSils9JMADlRtTsTYxRACjhdNqnM5FVVlX9b4pV8vLW1tXduT4Hw6UMJZJZAscHxZc/zzpsO4Jgt1CabSuyKLx0c022a6XVkChDXsWwAOpoK7taHfdGulvGCrky3S8oeqTKc11YNxpjuxob5H50/f/7fhxMklEAogTMlUGxw/IXneetmMjie5Yl21GoX8EYbaKOB5VjCfLiH0r6lLy8UUHJeAMkxleM5FEReU1PzYH19/e/V1dVtDydIKIFQAoEEig2Ov/Q8b/VUg+NY4hhTA8UBQV2fyZmj8tnsmek2xtH+T2ek6TGP7vlsXvBsG4CpvGuPrK6u+nR7a/tnPS9PQ2o4i2aFBHzfLzl16lTD0NBQcywWa+8fHFkxPDy0it8mEa9KmEi5BQvfT5iIN1ISifR7kUi0xPP2lldVvF5ZVra/pqbmaF1d3cnZlFKvqODY2dn5aiQSWRWC4+k5lSlcJxtg5qNqp5dxA8QzhQIJYGWnLCkp2V9VUfkrLS0tP50VMz98iLMk0N3dveLkyd43Dw4O3jYwOHCp7/uNxpgymV7cl75+u2PHNeNESgJTTnL74ZFIJNJVWVW5o7am5uGqiqp/aWlpecXzvJGZ2A1FBcdoNPq653krZws4jtbh+TDHdGao+vJRu7OBajYGme7t1v/YH0tKSqzNkt+kRUPdrqqp/tvq8spPzps3LzoTB3bY5tMSOHbsWO3AwPDGvr6+34zFRgDDSs3BsvLylJ0600s50zh2QZRQsdLSUvvHcXePdu7B2DLG21FRXvb9+vraexYsWDBjTDfFBsednuetmAngeJbDJoNanQ845lKbx6Jm57JHjqZm65yrmnPMdehwzg0F+vfN0Hpqqqr/U0tLy30h2Mw8CRw+fPyanp7uT8ZisbePjIxEeAJefAFgBYwvFo+n1ubzYtQCAq3VB/zcD9fLXs3xqqqqFDhSL3+6B9/UCXDyO1nnrsrq6v/T3tJ093R/8RYbHHd5nrd8OoNjVntkMmQnX3vlaOUyMcPRWGM6w8wEkqOp3Omg6V7vvu05ziDmI1skyxNLSkoeqK+v/8i8efNen3kQMbdafPLkycbOzq7f7+k59duRiNesPlW/wuwGBwdNf3+/Afh6Tp1Kbe6W9mK0x3Vd+pjV+AYM3W2HAcLq6mpTW1trKisrTU1NTWrtv0A1FVrmJx5oaWv97ILW1p9Nx14KwTGtV0YDx7F0YL4gmg0UswHoWNXpsbDJTKo34Ch2WV1d/anW1tbPjkUOYdniSMD3/Yq9e/d/tru7+/fZ4ReQ0od90fv6+sypU6dSoCggTPh+RmaYSaPJNCbdONv0J2UOcB6gnD9/vv0uKytLMU9FUtTUVj3fUD/vY9PNzh2Co9OjowLaGB24YwXHdHaYPtCygWI6uGazOWYCSY4BfMoN6TJGOXJKIyWWQcAyKFtRUbG7oaHhP9bV1T1SnGkf3iWXBA4dOvKbR48d+1IikZhXXl6esh/TX4cOHbJ9B1vUUlKXwRkTOcvm6DpfxBzd8ZxucnIdNOkvWJilQskqKipMfX29aWhosEBZXl5q25XMRwrjfGRefS3OwEO5nrkY50NwHAUczzBGjxMcRwv3ydTB41G5R2OHudRtBqZU6HR7pK03njhj3bZsUlVVVfdWVlb+3vz587uLMVDDe5wtgf7+/oWvv777B8YzF+ssfdnb22uOHj1qotGotQG6a+/lfFOfRyKnGWY6yLlqdbaXdy7Ho1uHnDWwR9Rt1O9ly5ZYcFRO0rKyst6GxoaPLV206O+mus9DcMzQAxlZ3zjBcawdPBo4jsYuR1O3R7NRuuDtMobUNQn/DGah40lm2QNAtra23j3W5wzLT0wCnZ2dVx46dOTHCd+rk/oqUDxx4oQFG1ikMsdP7G6Fu7qsrMQsWrTINDY2opUECxMGBkxtTe0316xZdWfh7py75mKD44zwVk8lOI5VvXa7OJc9Mr1uyqe/+dMBEptjJtB0Wea/JzD+aXV19UcaGxtfyT3kwhITlcDBg0fe193ddR9qcklpufUIHz9+3Ozfv9/aFHGECGRc2+NE71uI6z0viJFE1V64cKGpq6uzdkm78suYFxd2tF3b1NTUU4h756ozBMdpxhzVnMlikJnqG83Z44KeLZeBObpgqUQWDOaKioo/aW5u/rznefFcAy88Pz4J7N9/8CM9PT1/bdlVba2Jdp00u3btsmq0QAU7Hh/Op4fijO+uhb+KcURY0JIli8yCBQts+A+OpLq6utfb21re9O/REicK34oz71BscJwRQeBjYY7ZbIrjcchk6vzxgOR47JZZHTkOOGbyZnMMOxa2yGRA8K758+d/uK6u7rFiD+bZfr8jR47cdPDg4R/YIP2qKnPs2DHz6ms7TU9Pj5U9jBFQgUkCNoClu0JqOsqHsUN7T9tGY2bZsmVm5cqVtv0AZE11zbY1a1ZdXOwtP4oNjq95nneOmIeSJridlgtU8j0/2r7V+dZxxmDKYnPMZpDOdY+xDtRcIJlNHc90XS7wdEEwXa3WfVyG6e6IKKN7RUXF/2xvb/+U53n9Y33WsPzZEujr6+vYs2ffnng8Xg6QAIyvvPKK6esftLY6xptYIqDCR6tXprM8h2Ij1jkDCALkVeUV9ndT03xzySWX2OcC8Curyr51zopz7ijmsxQVHGfK2uqxMsdMqutkg+N41e3RVOhsAy0bOLoAnJ5cl3PyfMMik/8fqK6ufn9jY+PjxRzUs/FeO3a8+lQ8nngjz9bV1WVeeOEFG7tYVl55xna99J1eVoBKPi/VKZVXSbByhvkCyJt4wob3VFaWm9bWVnPhhRfa5rGRXUdb+7XFjIUsKjh2dXXtMMacOxuZYzp4TQY4jhYGpEGfqcxY2aI7OdI92xHjnZUj0rU5cq28pahHetMDnjAX/q+qqvpyS0vLJ6Z0Es7gmx8+fPjd3d099+NsQfYAIw4Y1OjBoWB5Hh+BopYHKoZ19EefCAQogPz07pdjE3PEjCTipqKc5xiw6nVddU2S9Q5atfqCCy4wbW1tpqLSsuFd568/b+XY7jH+0hORzJjvGo1GZ0TKsrEwx3TTgAtaYxaQc0Gu+DGxuGzl8mUMuZilC466pwuOPD8gyDGpcwxywNENAI5EIltramo2NjQ07J6IXObitTt2vPaz/v7+q5Dv9u3bzZ49eyy7svJNBIxdLyi3P/OLsZ0IBEwcHL2SUsscS8uSyU+Ghu3zlJYG67KxrV599dWmsioIbl/Q3nFNa2trUezZE5HMmMdpNBrd7nnempnOHAVIow2+fMBtzALM44JcoJh+Pld5vNXprNi9RmzFBcwz1HIvSHKQBMy+mpraO1taGn+Yx6OERYLkEFXbtu/o52WDLe7BBx9MBXUHAgrWws/cTzoEnbmc0ZiEOf/8820sJEHjdfW1P1y6ePF7ivG8xQbHbZ7nrQ3BsXBdmwvsxgqOcsikA2QmFpl+LPg/2MLBTapbVVXxu83NzX9TOCnMnpr37z987bHjRx9FdSZc5+mnnz4DHL3ky2fmPvHo4EgeFEKSrr/++uT2HiPRSy6+pKkYz1tscJwW2yTksgfmUqvHwhwzgUqhOzYXQArE0tuR6TrAMdszuB7rbMxRa3d1T3kla2pq/qStreVPCy2LmV7/rl17Pn6yp+dLgOPzzz9vXnvtNW21mwzgn/3MERPCHXfcYR02I7Eh84aLL2n2PK+z0H1bbHAkK/D6ucQc8wGgQnRyPgCZDSTd49gcc5Vz1eh0Zw3gqNyAWkOLjZLf5eXln+7oaPsfhXj+2VLnL199/S+GBgf/C/ZFVOojR47YR1NCiNmuVicSQTJm7I5LliyxXuuWpubzOjo6flHoPg7BMYOEC8Ecpwok82Wu2cDUZY6ZniEdGF3VWmq1m+8P2SrJAN/19bWhij3KLH/6meeeLi8vvwKAeOihhyw4anwiPzdxRKHBojD1j65W+36wRvyqq66ydsd4YsT09fY99Oarr76uMO05XWuxwXFabM06FWp1to7Ml+FN1kDI535neDzT7eNpDRmNNXIukfSm8lsMkioAzCDDzwjrau9oamr61mQ942yq5/HHn3i5ft6885DXc889ZwO/lVk7YOlFncIFEG1uhwyaBmo16c5gjgcOHHjtphtuPLcAjTmjyqJKNhqNzjlwzOW1zgesCjEI8r0vKcv45HqhZLM5uuCo1TNil0z4wcF+bElD9fX16xsaGnYW4llncp0PPfyTvR0d7Uvw9pNY4sc//nFqKwIx85n8fLnbnrAraDZu3GjjOhmH+/bu23fDDe9amvvaiZUIwbHAarULKpkAKV+Qmlg3Z746n3sLHLMBpAv+mQAScHQdN9TjbsJEqAYTv7y8/JeLFi06fzZt7TkZffatb3/n+LnnnosDwsrpvvvuS5klgljSYKng7P0kzKWXXmqDwYnzJOHGgf0HDm7atGFRoZ95RoFjLvbiTuBsa6vHUseZHPv0KoBc3up87jFax44GWunnJnqv9HacdW8nznG0Nqe/BE4vLzw75ZlskIFqHQSQY1fq7e3dvHr16v9Y6EE/k+r/ylc2n7zs8svqlYThiSeeMK+//roFSr10ULO1XQG/nazt0z7xBDbT5MvRPo+SUGgpKi/P973vfZY9IgNWBkW7ug7ddsvGhYXux2KD40ue550/Xm91PkCQYjJZgmPHUsd0BEeppGpbPs8zlkF0Fvgm8znmqiMdHE+zyNPLD90NnJQ6H28kZZUkobKy8ub29vbv57rfXDn/lbu+evKclSvr582bZ1eLsA/M17/+dRsQLplrLTsyQcba/S8fzWCq5YhmIScd4BfYqRMWCBkTV199pU1AocxPxHr29PQcvu3WTQsK3fYQHAugVk8mYOVikZN5L4kim0NmtLZkAsdgso7OHPFGMhlYN8wKiH/fW/nQmjVrloQ5IYPeuGvz3SfLy8vrzzvvPKtOkwx29+7d5p/+6Z+CJZtOcgn6wN1lMPBmT+84yEhJsOEWz6LcoIA9mgR5HW+44Xo7Lhgj3d3dprPThjfuv3nDe5bMNnDc6nneBSFzzL9bp+rtr/tmCuXJ1KZ0kFaZbODoMkftS4NU+F1dXf2Hixcv/lL+Upq9Je+59+9P9vb21re3t5s1a9bYlwgskuQTjzzyiBlJJveQSUlAw/+o2NN9m4Sh4VgqZRkqNR5ptnsgI8+dd95pamqqrKoNU2b7BzIRVVdX77npxncvL3SvF5s5huA4gR6dEqDM0+aY7bHSwdG1Nwa/CecJ2COTIGl0729vb1/Q2Nh4cgLimhWX3n3P13pjsVgNoAh77OjosE4JmNXWrVvNIw8/bNkhKigAgvzw6iJT/leGnukqjFgyA7hsjbR5xYoV5oYbbrCgWVpabp8XwAQYWS1TWlq68+YNN55T6GcqNjhu8TzvwpA5TqxbiwmS6Wur82m5yyJzgSNqNc/DoNdz8buhoeF/LVq06A/yud9sLvP/Nt/d7xlTBaMGHMhvCEAq0/fePXvMd7/7XeuogG1hkwRgtEVCIcwukynv0rIyy4aV8Paiiy4y73znO+0tgqxOvn0m/vjw3P19/a/deectsy7OMQTHPEZWrvCfTLbBPKodV5HR1lZnqtBtO78Fjq4zRkkoAg9r4KHkDwaktdeRSGSora2to6GhoWtcDZ8lF23+6j0DsVisElCAQSEfstTArniJVJSX2y1YH3vsMbNly5Yz9pHBgTPd1epEcpsN+v6tb32rdb7wkqTtPF9f34B9Kbh74fT39++44/ZNawrdxcVmji96nndRyBxH79Z8wZFaCs0i022Oue7nhjnRvmzMUTZHQjUY/NpGVPufAJy1tbX/dcmSJf+z0JNgOtd/1+a7B0pLSytxRiBbGBSgAcNavXq1iSTjHwGXHTt22PXXOC1gYsh1uqvV8UTCXHzxxeYtb3mL3Z5V44fnZKwBjnLUwDB5nkQ8/subb75pbaH7bVqBYy4VINd5GaUtaMzgUJ6JdHou8Bpr3aOtrXbryhZ/qeVtCtHQt+yMMAc3KFysEjUyFosdufCC8zrG2ubZVP6ee/++f2hoqGpoKNg0C/aYdEpY9fqiiy6wjhd5ePl+5plnzJNPPplSRSWPgMlj54WxewHQ8PZyPqlQOHaeTHv5ut5w9aPrDT8jysE7nbBEiY/dzb/wujc3N5sNGzZYIIcpBiE9wTJT2VA1NjjmxMVu27Rxw/pC93OxwfHnnuddnI055gK/XOdDcAyGy2QC5ETBUSnL1OeanHmCo1m0sOPKpqampwo9EaZr/V+9+96+RCJRDTiiUsOeAMdIpMTU1tbYMJfzz19vtxIAOAErwAamuW/fPvPUU0+Zw4cP231nACcBKc+bvjth+rjhf+1DI7NIupxc77gAV2E5CiWSVgDgNTU1WbspbJF9qmmz1ooH5pW4fQnwW4CoRCXTRe/gAAAgAElEQVQpcEz4v9i0acN5he6zEBwzSDgjCDu7D7qqYz5hLYXuxPT6pwIcXVA+U36RM/agccHRTqJEYjTmaCoryu9dvfrcXy22DKfL/b7y/zb3RSKRakADYESlDlbAxA3kjByH5eWlZunSpfZP648VNI1jhsDpl19+2dokDx06lAoUF3ilMz63/7QvEKCr7RhcJhqwvbgFMj7cV+UEkoDjqlWrbGYdbKVKOsJxyqiO4LkCZqsyribhMMeXN23ccEGh+ygEx1kIjqOpu2MdUPkyx3zBMV2tBhzdiaDJINtjPB7vvfiiC+o9PDdz8CNwHB4OvNViVPE4qnEgEOK8YYuoqg0NDTa11/z5821ZbXImdgbAksCCpLkHDx60AeVi8UFdwX406idt3qX/xSApwx/1oxIDdElTiI1VZO9p2rF+/XrbJspQluspy7XuKh+NAcwwAlXFv2Zgji9t2rQh2JawgJ8QHGc5OE4UKCcKSaTxl0rtTrBMarWOSa3SpFi8aEHRNlUq4FwbV9Wbv3pPn+/7Vq2Wtxr2mEiwHj2IadQSTNRkmCTfABQACUBJ/jRAoCZ2BkARQ4jHG0cO6je/UcsBY+7p9h/MkHsAdnwTnA7YEZhOKBF/gKEAUIDIdVLpuSe/MQnwLHxORzAEvxXB4AKlwxy3btq44aJxCXQMF4XgOIfA0WV3+Y6RyQZHDfaUeu2o1ZnAkXZWV1X+zapV5/xuvm2eTeWwOcbj8WqYI0ADmABmgCPAODw8ZBoa6q06C/DZvZ+TIIhKDcjguMH5IXWZMjBEzgmY5KRxc0XKkeLaiyVbV8V2dz9UH8p5o0QYHOc399aulKkX5Blj4LSDzh0PaQ6ZEBzTB3nokJn4tB+rPXIywFET0J1kqYGfAxyt6jY0vPvSSy9eMfGnn3k1EATuJxJV2BzlwYXNoVbDziIRz34L3GB0AivAU+osx2CTsDWBFL9RycUmMzFMbWnh2hLdOFV3a2LXm62XH22gfVrK6AJeOjgG9QbgKPVdqnUIjjKiZBnDIThOfHJPNji63srML7Mg8UE2b7XrkMnGHIl5u+rKN5Z4nuMVm7goZkQNBIEnEonKwcGANQJW/AGOAA5TBvBBlZY3GiATmHFM4MQDB3tCl6aCxSsrg2u157hCe1RG4T7qPzfUR1oA13IP/tx7a2wI4FRHOvi55hYcMm75uQSOL3ied0kYyjM952WmUA5tsDX+Fp8GR4GkyzwEju6EcEM5aBNgsHzZkjUtLS07xt+OmXnlXZvvHvJ9vxy1GsYo1Rq1GgArKQnALh0YASwBFd/63wXH4HyQySeoKwBVF+CU/kxgK691+rfLPsX6BHou+IlRpod0nWaRp5MhK8bxLIeM789KtToEx2k8RzOGJU3YRzwxcJQXs72t5QOLFy++bxqLryBNu2vzPSO+nygNwfGMIPAQHEObY0Hm26iVpgPkRG2O2jpU9WYK5REz4Fuq2umQlcD+VFNd+ddr1679aPElMrV3vGvz3XHf9yNTBY5ijCFzLPA4iEajIXMssIwnWn0xwdECYXIXwmxqtQDTT8Qev/TSS98y0eebadfftfnuhO/7XgiOs5w5dnZ2Ph+JRN4Q2hyn/xQVSLo2x7E6c4KnzKxWu6E8Ch7OxBy1nevw0MC+K6+8suA7zk23ngnBMVhOOOu91SE4Trepl7s9Y83Kc3aNYwdHgaW7QmJ4aGDgqquuqs7d4tlVYjqBo2Ip5aRRyJC+3ZU1bnRC6JDJY0yG4JiHkKZZkUKAoxsInkmtTgdHu9NeImauuOKKsrm2dWtucAxWnozPWx3J6a12bY7TBhwT/uxbPtjZ2flcJBK5NFSrpxkCjtKcyQJHhfHwrVAexgFp8t3lgvZYLGZXbyiUwwYie75paWmpWr58ebDebI58QnDMoFaH4Hj26A+DwIuPCPl6q0ezR3LODR524xxHkllYxBbdjCwAZCopRXyEzC7zmpqaeoovham7Y25wLGyc47T0VofgGILj1E3J03fOFxxdZjhau91QHhvgPRKE6mQDR7HHRHzELFmypGXBggUnpoNcitWGMJRnjjDHrq6uZ40xl4VqdbGm1sTvMxZwHA0gXWbprpIQc3STmyoryxlLx+IjZvny5W3t7e3HJv5UM6eGEBznDjg+Y4y5PATHmTM5JxscXS+mBcGkWj0aOFr1Oj5CotS5CI4x3/dLwjhHJ85xNqrV0Wj0ac/zrgjBcfaCYzb26K6QcUM7XJuju7mWG/socFy5cmV7W1vb0ZkjvYm39K7Nd4fgmB7nOEvB8SnP894YguPEJ02xahgrc3TbJUeM+lvAmS84CiwFjqtWrepobW09Uqxnnw73meq11aFDpkijIBqNPul53ptCcCySwCfhNhMBR91e/Z2+vjrdIZPOHF1wjMeGyWq9YNmyZYcn4bFmTBUhOM6RFTIhOM6YOZlqaCHA0U1p5Xqrs4GjTbUfeKsXLlmy5NDMk+L4W3zX5ruHfd8vC22OZ6yt3rJp44aLxy/V/K4s9jYJT3ied+VMZo5jibXMrwumd6nJBEep1QJHG8IT923At2Ifg0SuQXiPm5lnZHiQTZsWLV68+OD0ltjktm6q8zlOR7Xa+P6LGzduuGRyJX12bcUGx8c9z7s6BMdCd+vk1T+dwHH58uWLFy1adGDynm7613TX5rsHfd+vCJmjyxzNC5s2vvfSQvdescHxMc/z3hyCY6G7dfLqnw7gaJcTDg+alStXLlm4cOH+yXu66V/TXZvvtrsPhuB4hlr93KaNGy4vdO8VGxx/4nneNSE4FrpbJ6/+6QSOixYtWrZixYq9k/d007+muzbfc8r3E7UhOJ4Gx4TvP3PLxg1vLHTvFRUcOzs7H4pEIm8PwbHQ3Tp59U81OKY81sODZvHixcuXL1++Z/KebvrXdNfmu7t9358XgqPDHI3/9KabN7yp0L1XVHCMRqM/9jzvXSE4FrpbJ6/+6QCONiB8ZGiugmOX7/sNITi6anXiqU0bb75y8kZ55pqKDY4/9DzvxhAcC92tk1d/CI6TJ8vx1HTXV++O+gl/fgiOZ6jVT96yccNV45HnWK4pNjh+3/O894bgOJYumtqyhQZHNnG3qrPd0D1uBkcI5Rkh6WMQyjMcpMjn99Kli1cuXbp019RKpLh3D8ExUxD47GSO3/U87+bJBEff91K5At0YxGw7iuaKU8x6PrmffK7rmTr5lCnuFBv/3SYTHLVCxo1zTMR8YwEyPmyG4jETS4yYWGzYxGMx48fiZrh/2HheiYE5NTa3LV+7ds7ZHLOo1YnUXtPjzwSee9/q6Rjn6PuzEBw7Ozu/E4lENoXgOH6wKvaVhQZHM+KZkUQ8CY7DJpaIm+H4sEkMDxkTN8Yf8c1g36AZjifMoiUrlq5cuWBfsWUwlffL7pCZw+A4Gx0yXV1d/2SMuSUEx6mcbmO7d7HAEUDkbyQeMyOJEZMYHjEmnjCJ4YQZ6B0wMd+YlauWTXkQ+PHjx+uam5vjnuf1j02S4yt91+a7T/q+X3+2zXHuguOsDOXp6ur6tjHm1hAcxzdRpuKqQoNjIuZZWyPAOJSIWZWa3/5IoFYDjsMDw2Yk4ZuFi9uXrly5sujM0ff9mpMnT35oYGDg1pGRkXPoh9LS0m0lJSVfb2tr+4dC9stdm+/u8X2/LgTHWR4EHoJjIadRYeouNDjGk+BobY4pcIwZf2TYgqNJeKa/dwD/jGlpW7BizZpluwvzpGfXCigdPnz4o/F4/BOJRKJeKdi0FSlXlJeXow19uLW1tbcQ7bpr8929gHMIjqfB0fj+8xs3brisEPJ26yyqtzpUqwvdnZNff6HBMRZLoD2bodhQsAthfNh6p0lRBjjGRxJmeBAnTcIsWLRk1TnnLH598p/yzBpZy9zV1fVrfX19/y0SiSyWAwlQ5I+PEmXwf0VFxY+NMbcVAiD/3+a7+43vV4XgOMvXVocOmUJP68mvv9DgqEzgQzEAUN7qmImjVqNuDxLW45uBgSGzcPGS9atWLd02+U8Z1Oj7fuToieiv9fb0fCYWiy3UJvVijHhuy8rK7J/2cCbEiHJl5eV/09rc+LuT3bbsKcvmrs1xVmbl6ezs/OdIJLIxtDlO9hQqXH3FAMfA5oi98Wxw9OPGjAwNm1On+szS5cvfsGrVsp9P9tN2dw8sP3nyxG/39ff/diwWq08CpWWHUqEBwEx/8+bNs+3mU11VfWdTU8M3J7N92TfYmrvg6Pv+rMzn+C+e570nBMfJnD6FrWuywdHdYIvf5HM8AxwByFjMJEZi9jjxjkNDQyYe801rW+vVa9ac88RkPXFX18DSQ4f2fj7hJ94P8HE/fVdUVJj+/n7LEgWWuq9AUv8TZ1heXm4qKysfiXjt71mwYPI82f/3b7/iV1ZWmsHBYdPb22uD4QcHB+03bUSGADTftL+qqsq2JWkPtc8jxquYRdor9ltS4tkXAMc47/5xfLrEOSrnpzEJMzw89NKtt2y6cLLGQbZ6impzjEaj93ue9+4QHAvdrZNX/3QCx/aOtuvOPXflQxN9ut2+XxnftecL/f39/wVQGBgYsOACkABEMEYAqLq62gIzHwX2pwf4c70F80TCgtK8+nnfXrSoA7AN6OQEPlu3vvK+F37+wn3U3dc3YNvJbyUE5n7cnzbS1pqamhSL5TkANoGewFBAONPAUdv0Ao6DQ0Ov3H7rpvMnINq8Li0qOHZ1dT1ojLkuBMe8+mZaFCo4OCaSy8NGEoFanfbH6hnLHOMjpqO99aZzzz33RxMRzJEjR87rOtn9YCJuOgDAY8eOmSNHjpjzzz/fMijYIscBF8BItkU5Y9KZFWNZx5TBvKKyYmvT/KYvtre3/ONE2nrfP37zwaGhoesAw6GhEcsWkQXtAyTF6gSESedQqs0wSz4znTkqKzzytcxxaGj7rbduWjcR2eZzbVHBMRqNPup53rUhOObTNdOjTKHBkaBvu11CGjgqVZkLjm2tbbetWbOK0JlxfU6cOHrzoYOHvouK7nvGdHf3mBOdnZYVdnR0WLUUBsb/tIlv2qHdEsUuOS5bpFRYHdMSSY5XVJT/qHF+wx81Nja+Mp4G//3ff/1nQ8PDVwWgaywwolrz7ar2DQ0NqfXn9fX1VmXmGsBRwD2TmWM6OA4ODu24/bZNa8Yj07FcU2xwnPRtEsK11WPp7rGXLTQ4SiUlVCdITRZ8D8dGgtCeRNyCAcHh7W2td65bvXpcDo/Oo53vOnDo4I8rSstMPDFiTp06ZXzPMxVV1aa1rc2CIEDCvQESWKPUVIXtUAYWp71txN7EHgFEQNPaSpP2S8C2uqbmzxYv7PiU53lQn7w///KDH/3T8ePHb7Evj1jCslrAkbppKx9YI20CCPmttog1ChRnKjjSH9Y2ndQofN+Oh9dvv+2WVXkLcpwFiw2Ok75vdQiO4+z5PC8rBjhaMBkJsvIQ2pMNHNta2+9Yv2bVt/JseqrYqVND644cPPQLALGistyq6LH4oKmqrja1tfU2zlLsBFDp6+uzYAPoADguSwuAKuk0SiQsiErlVuiPWCcABpACTDXVNQ/U18/7XGtr4+P5tv/HD/7bfQf2H3hf0La4vRcqNe2ShxybIiAOMAMitIU2c0+x2ZmsVmcCx8HBwd133H7rinzlON5yRQXHrq6uZ4wxl4dq9Xi7q/jXFRociWcEFMUcbYaeNOY4CHOMD5v2lpbb169ZwxLUvD++75e+umP3L7pPnjq3vKrSDMeGTMIfMZFI4HRpbmgyJ45Hre3x8OHD5sorr0w5MVwG6Do3ZOujEQCQ7ICMa2XIYS04IOY6cgCt+vq6P17U3vpn+TzAjx/8t28e2H/g9sAJE6Rto82wR+6FCg0wLlmyxN7r4MGD9jjAbmMvy8pmvEPGBcfAvBAzA4ODe++8/dZl+chwImWKCo6dnZ3PRSKRS0NwnEiXFffaYoIj9kfsgWKOqNQ2x2MSHFtbWzedv3r1d8cigX37DnyyM3rysyVlFaa6tsac7D1pTvV2G0JYyiKeZaynuk9Ztnjy5EkLJhdccIFlYLSD/wEnrZJRaAzH5QCRKh2o/7HAHll6OgTItZmVl5Sa2ob6BzqaG3+tpqZm1D24f/zjf/vuocOHbg6858MWAGGPMGDsjOeee6656KKLLGvk+K5du8zu3bstiALECsWZLcwxeFlZp9S+O26/delYxsF4yhYbHJ+PRCJvCMFxPF01NddMHBwjls24fy7YwASCZLZxE7ODP4jXI+mt7JHy0rY0z7/5gvXrv5+vJAYGBpbv2PHarrLyShsL2Dc4YAFm69YXzTnnrAhUz4RnTpw4YW14R48etb8BR8CHjxwsbgC466DxI54FJzk/7JLH5L7bXM85haFYhpxM7FteVmYqKirv6eho/Xh9ff2JTM/0gx/d/4NoZ/QmbI0K4eE3TPHSSy81tbW1lnFj1+TT2dlp9u3bZw4dOmTZLPem3bRNDiQxW6308bzTbFeM2I1v1EvAPSczgvst+ZwhG99PvVTU5+nftJ+PzBVi67Lz8hwAfU9Pjy2HLIeGhna9785bV+Y7DsZbLgTHNMmFyW7PFEihwREmYIPARwJQIfuO/T9pVxPrYpK0tDTeeMG6dffnO9h37dr9zYHBkdsD4PKsQ+Pxxx83a9asMdU1gV3OTwQrXwjngT3yx70uvvjiVKiMJjxt4eMyMkCc6xVYDTPkvAsStnwkkgI4nk2OkwiB15GSH9U3zvv8wra2J91ne+iRR/927569vwU4HD9+3AZ4X3jhhaa1tdUWo/2VlUEspkD4l7/8peEPEKmrq0uF9QgMFfeocV5eHrTXDQJ3yxQaHPEZyMGlNlnNwbGrBqFccdtOjvf19m3/4AfvmF2hPJ2dnSFzzHdmT5NyhQTHgEUkmSMJKJJe3oA5nnZ6MHlGBgdMa0vTu9evX0+Sh5yf/v7+Ra+9tnN/fXL1SHd3t9myZYsFmHPOOcdUVAbhLqjxTEpseQAjAApQEtqzcuVKO3HTE05IxaYRXmlJwI5iweTVahnAiP+53rK1pHfZvgCStkMLksakWGdpaelXGha0/0lbbe1R6t6378h5j//sJy+jMre0tJjVq1dbwOMjh1EkUppa1cN9eJb9+/eb1157zbItQJP2UV4hPpSDdQarf4KQJRcgBY7FWCFjTAB4AKIcWra/kyFUvEToG5grtlYbsJ/wX/qVX7lzdq2QCcEx55yedgUmGxzT1SpCM6xanfRSS506ExyHzMjgkGlqbb7ugnXr8lohc+zYib86ceLE79bW1Vlm9eSTT9qJhTpqAcMPJqNnSuxxgAJbHgxNdj1YmlTrdJujnB0JL3DKRPxABZfHWKtXtPww4gAQdXIPwLi0rMx+A1ZJtrm3tq7mS0sXL/5KT4+p/84/f61z7dq1ZtGiRbaNAAkfreQBHGmbvNXyjlMnKjZOGu4FOKJ+K1aTupB7TU1VigmLJbrMuPDLBwPV230x8lvtBBjllMEmTF+WlpZu+eAH7ri40JMlVKtDtXrUMTaZ4CiAOQMgkzFsCvrWRElXq4etWt309vXr1z+Sz6TYvn3HqcrKytqE71tHxSuvvGIuueQSa3u0cYKlQaB3aUkQAgOYAHIAJJPRLgWcNy/FymT/FFgKCKVSU16xh66dEtCzTpzkOmVASksOmfjRrq7U+mfagwfaLln0zbdb2lt++Pyzz9+LDZS6YbWqT3GZaPqKdURmAknqAgxhWzwT5fmNXZX6uQ/XET8qh42YJ88oM4G7MiiTrdENY3JDmSSfjH2edHAFdsaAuYpRy3Qh0wrt1qol1T80NPTir/6HD1ySzziYSJkQHENwLDo4ymFhQTKZMGFUcIwNmWGYY1PTW88///yf5BrwAwMDy3bu3L27qanJ7Nm71/z85z+3oCIvtAWRimBNNDZHeaT5Ru1mYnOtANO9H22HiUnF08SmDCAjxqiJDHjYpBRJUFRIkIBoILmEUaot4GlBu7Q0ZVfknjA9nkEMi3K0v6SkLJUgg7aLZSnESN51ebQPHDhgHTdiuDhkaKNskvwuJjjigFOQN89Ne/kGEGXmQGY8N89vnVDx2Ffedu2bf8vtF9/3q17fvfuWeHx4YUtjy5bGxkZW4wU0e5yfEBxDcCwKOGZlEM7qB4GmWIS1OyWC+D7AsaWt8Zp16y54LNdYP97Z+Qc9J/v+nHLPPPOUVZVXrFhhVVMmIiACuClQGiDClsd93OWDtAN25Xqf5TQQ+6Ue2SvF5lygUTgQ4CTg5H6Am9gmYIuXHIZHO8RGKUedAAK/abscE1wvu5xUbN2f57bsuKTEXqOMNrIr0nbYI/fFvsr/AkiBdrbsPNnY43i91XLI0F4+yAtQpG1yzMDgkQtst6WlZcQv8a/qaG5+jvLHjh2r7esbvG0kFvuQ55k3LVmyZKSnp+dopMT/emND42c9zxvJNV6ynQ/BMQTHKQFH2ZVgjlpxMio4Dg2Y1sbma9decMFPcw32nbv2fLu8vPJWgrqfffZpO/Evu+yywDudDC8BBLgfQMmkk/dYjArAI8BaNj5N/nS1GhChjJb2KSmE7HaB6hok6AHQlFIMYJQ9kjoAAxidwA9AANQExrRXITuAmZwrirGkfrFVXSN5Ur9CZaTyy6YHOAKUqlPhP66TxnXMFAIcub/axQtCckBWOKJ4dpg8AMnf8RPHv3Fw/4GByuqalw4e2Ptfy8rKFtEHON1uuOGGIHSpxAyMDA3/0bx58/4q13iZFuAYjUZf8DzvkjDOcbzdVfzrJtPm6IbEpFRr3zMxP2ESI8GaZR2PjQyl/pf9sbGxMS+1+vU9+39RXlK67umnnzYnThwzzc3N1kPN/QWK3JOJNq+2LhXsDSBwLzlnaA8sRgxMbAzQhM3JEyxA5TwTGzapa6SiClTtUsKamtQqFlcN515dXV0WrAAG2qd70i6ASeE5boC6wNC1g4rZ6r763wVHzonR86wAtFK0uew3EzgqW5HUfzd8yXVe0X7KKM2a1GbuxbNr5Q/3hT3rhQAYIideXMhaL4vXX3/deuKpj3NLly62fQSIcl/kh22Z86UlJbsTidh/qK+vz3vJpjvDisocQ3AsPrhN9I6FBMc4ITBJcIwPB6tL0sFRMW4cb2tre/uaNWtGdch85jOfifz6b/1OT1/PqZqf/ATzZMIsW7bMxga67LCiuipYk5yMS0ROTCjCX/gDhGRzlC1M9kWpgAAEk5Z6+BMD4zwTXf+74CKwhAXCKpWwVmADA8UrSx2cU70Kr5Gqn25fFDC64CfnhnvO/S0QkxoepEYLWJxso9kcMmqvbJRimunMmjqltvOb6xSXGSTxiFvVHlBDHshdtkXAD5CkPYQnbd261ZpICNBXgt+6uuBFRb1EF2BTpcy6deusHA8fOvDy6tWr315XV3d8rHMhBMdQrS6KWu16L1OhG9ZraVLM0QVHxbpJrWVCNTU2vPP888//t9Ea/OyLr1w2r67u2UMH9htYBht14YgpT643lt2tdl69ZWclxjOnenqsSgooyvkBuD333HOWpfCbycsEnD9/vl2hQngNdkxATt5tjiv+kPhFJqmydtNmqdHcA9YE8NEGnZMzBtWSP54dEFCoDuWUaxJAEBC57DAbOLpA6DJ4qddyioi9y5GTLZRH4KhnEntVW/SS47xsnHzzTDwnz8dKHtLGAYrIo7Gx0f6GBQYAWWP27Nlrow0IS+J65IHMFUpVURE4qlCpWUrJy+Whhx6y+Tk55hkztG7dRWvb2xvGvGtlUcExjHMc67tr6ssXmjnmAketnuB73vymd1xy4fqHR5PKY0///H8sWtjxqReeecYmkygt8ayaVZJ0aKQCoCuDoOhIwrdqMJMKkAPQvvWtb5lt27alVGrZEeXAkQ2RCQ1AvvOd77Txk9QB4C1evNgmz+BeTFB5tuXkECDJOy5wkCOG5wOo7eT2PKs+KqBc4UL8z734yNboOo6kMrtglc4g9ZJynUx6QeWyOQocdX/ZZF0Vn/olOxghTE7PxW+eoaoqYN0AHuDIy4cXBiFHxGju2LHDqtoCT8oiN7FM4jS5D7LauXOnNZ/s3bvXAiafkkik+4ILzjuvubn54FhnUwiOIXOcNsxRXlUGu5gjv1FvyXLT0bHgHetXrxwVHF94acdXamoqf+P5p5+2bG9efa1VscqSa5yZeKhq7HbI5OzvOWW/mcSo4d/73vfsb/7E6gL1L0h6q4/AA0AKlja2mJtuuskCMUDQ1t5uJzHlaD9MSfY8a4+MBFOvLFJigUHrnwFggECJbXkGwFHeasVIIhcXVAWGUqUFirLxuc4uFyRlInBBlGMC6lzMUYCv+6QzV9lveaavfe1rlnWLgXOuoaFRXmj7skLue/bssQk0YJYwRf6QgfJlChiRG8cAwurqcrN5872mvb01FQ/K8UQ89g/XXnvNr441l6YF/bGi6UTKh1l5JiK9qbm2mMxR4MjkDJJRBA4agIxtAlpaWt594fo1oy4f/OXug1+tKCv58I/v/1dTVhIxDfPqzNKlS1PgyCSDnQwMBw4fwJEJ/bOf/cx8+9vfthNUAdOAKOxT9jcBImCq9onZKVYSFR4W2dTcbBkk9jHKMOlhSwClZY6lJamVNdQPEGuyu+oyKj334jygIJAWk+QasTiBnkaKa2OVt1oyTQexdLOHQnty2RwFogJH3dv1jsvO+LnPfc7Kg5AqzBIAZX19gwU+Xg6oz5gxsC/yvLBEnGnU7dojZasNgLHKdHcHJohHHnnEBrVHo1GWWh6vKC//PytWLPvC8uXLB8cze4oKjl1dXc8aYy4LvdXj6aqpuabQ4EgQsLzVWoXigmPf4JAFrN5Tfaa5reXmi9evGTUrz6v7jmzt6eq84NmnnzF+PGaWLF5o10l7yRUqAKO1g9ltErpNeaTETsgvfelLloHIAcRkpR1KZuuGycgJofNMdtgNAAlD5Pwlb3iDdQJXYvkAACAASURBVBC0tbWl7GQAZFfPydRGWRZsk2SUiS4njUBYoAJ7ZM4olIeRwD2s/a7ydM5Gly26o0WeZOQrG6icTATBu+q4vNpaIZOLOQo8dW/di/sgO1RjVGleDDBCMVsA7rzzzjM33vge60QhWQbqMG0ELAFFnpf6+F8vAa4DYCsqSFqcsPXSj8j91VdfNXv27AJUt73zurf/57Vr1+ZcMDDarCo2OIbJbqcG48Z910KCo2UX8WBtLW/8TOA4FAtUvO6TPWbp4iX/Yd3qFV8b7WF+sXNf74mjR2peefklU1lWbtWsBQsW2HvARLBryamB2lZWWmo+8YlPWGAkLhIwY0IDeITlWPUquS7a9cyKeVGOyUsZ7e3CN3919fXm7W9/uwVn2qDtXk/2njLDA8EmWW7dYpDWUZRcFQJoAgAAZKCGNgRsemgo8HSbYPWMQmrUXteOaJmlKTEjsSEz0D9khoYHTCK5YYMcMWqLwJFrFIuZOZSHTOOBvVagq1Ag2DGyg8G5jFUMmmt4Rpj12rXrLShSvr293fYP/cQ9a2urTXV1bcprrxAo2K+iCoI9dQasY2fXrtdRhR+/4Ybr3zletuiOraKCYzQafdrzvCtmE3PU212qDQNABmQ3QHfc6DTFF04UHAnVEavQxJO3lEnOX7qn1Nock4koSHgLmA0ND5vGpubPXnrBuk+NJpKdew90bdu2reHgwf12Yi5atMQsbO+w2X8I5yGPIvdDXcY2iDq9efNmq3qjwgI0TG7KChyZlEx8rUShj61dsa3NlEZKLHPho8wy/GbyDw4PWXb3jne8wzpuAAMAjeS9vadOmZ5TpwL7YtL+yb3Z40bqtUJggmWOCds+6gUguacF5eRyP8lEjhHJXIHumCVKSyPWPNHV1WmT5/I/5bXkUPcLWN+QVW+1sodv7s3zBNeQlTu5c6RjAlGfAt4K42FuyOHFnLA25FjMPseCBQutXGtqqq25AweLHF8trU2mojzYhxuZ0L7+/iAT+tGjx4zvJ0xX9IQZHsZGPGz279/76Mc+9rG3TdaUKTY4zro9ZMQg9HalAxkMcirIuzhZHVbsegoNjolYAI5kAXeDwAWOJKi1qhopvPbve/T9t24adfDv3rNv1/bt25fvP3TQ9sGSJcuss8RL2DhJyxS5H+DC95e//GU7iWE5MBcAAeBDrYNZKpGDu5oFkMDJA3uJnug0NZVVpn9oMLVUj2u1pJB3A6wORw2Zu8klyceuGx4I9qKWc8YGTHuBF1rOIJ7dJpA4dSrwvieXHgIkdqwlM5W74Cj2GHwHK3i0dQKghArLMf5gZwpER/58rC22f9A6RbQ/DQBGO4aHg1U7p+3DSlYcpBlzHT/6LQcXc4Hn5cPLglVLx4+fsBECK1eusPOmvj7wMjc2Ndj/YZI8Z+eJLivTzs4uKzva0d3dZQb6SaxxErX6+Q9/+MNvbW1t7Z2sORKCY5okpY6cJWAvSHSafl6qliL7+WYg8eGc6z2crE4rZj2FBsd05kg28EAVCzayihvfso5kAPHX3/aWqz442vPv2bPv5W3bt5934PChFDgCViXGt+BH6jDqZZIChJ/85CfNm9/8ZsNqmje84Q3mhRdesBMXMIQ5yvYIKEl15TyAC1jFhoOsMQCtvKqowUx4jnslEXsvwGz9+vUWJMkTGZgU4lZdhh2zy5detG6Ij5gfGcSteaG724IQzNba+5IvYo03vjXmghd24GDSuBW7feKJJ5KJKzzL4DArCBxpB8wRW6xUWYCRMgJHrVqKJXeJFGOUo0pAqZU9fEtjVNA2bZLjhfPXXnutTUqs1S7ck/hGvjF5AIoEjcMceZnZZZt9p9g64f4NGzb8p5UrV+6bzLlRbHB80vO8N80mtZpnkVHaNXy7nsLJ7LBi1zXV4IhXWTatlctXfvScFYv/ejQZ7N6z74Vt27ZdcvDIYTsZUasBx8qyUsscUU+l1hG68/3vf9+yQFKaESO3fft2+79UZampsBheejAZ7IzE4VE/G4QBZtxDrAsHgzUFDA1ZRqwli6jBgNrb3vY2C8DWoTM4aLpP9dh8lQrn4TrAGUAVYMJ4GV94dJUow3rCk1nHpbnYNiVNFUGIEuwQUAvAibpxjADgAdhG7X2Uyk1jGHAkiF5OomzgGI8HzFEsUeCo5YKSCfKgbp5f8ZmU5QWDXLHLIsPLL7/UsOqlp6fX9gH1YgMO2Gy/OXEisGMCjvH4yJaLL7r4c+961zvGvZf5aGOp2OD4hOd5V84mcHTf0kw6BhmdzmSiQ0O1enSbI+wpk81RyShYeysPcnNr84cvWL/2ntEG9K7d+x7dvn3btQLHBQsWWVCsKi+zEzMei9mJRb/cc889luEBErARwAs2STgOS9q09zPtg+HQt6jFlOU6G68YT1jwQRUHtAAv2is7HuCI+k0bYKLci/rf9KY3WSaLWgwICKwARa0KUr0WcIaHrZoPk6IdhMFwz+pkILg0GJc5BmE25ba9qM6wVAKl5XwJAuyH7bMpaBo1nOOKN+S4EmYoEYfUaoGwlh3Kpqy+k21ZW09Q1+WXX55aIYNcqIsXDbK5/vrrzbnnnmPbSZ3IBEAUW7be/q4gkHzVOef+5fvff+vvFZIsFBscH/c87+rZBI6yL9JxUP+FCxcG+fsqK1MrLArZgYWuu9DMMRc4kkafMA0mXuP8xvddeOG6b4yuVu//1rbt225DrWactbcvsH0Cc4T1Gd+3wMdE/fznP2+/mWyAEn0GuKH6AqBMcruKJhKxE5ptCuTV5hjnqyur7ATXMjmuE5gzJkwkUFsBXcXswSxRIdmnprmlxT4OQKBVI/JUc1zLE/uSiWqV55AwGOt9b2pKxTkiI2kyCj3CPMFxHE88P+3Wy4D245QRK5YaLm877VSAeuA0CbIUueAIQGoVkzzTrjPGJoAoLbXyYV6sWrUqlZRD2hUvGuTDva677u0WmLWyiOfFLIFc+Qa8ly1d+tj733/7NQUf+4W+gVt/NBr9qed5b5lN4MjzCSB548leotAON8SimLKerHsVAxyxK0odYy8WTTKO2a0EcDrE46apqfn2NWtWjbpv9d59B/7vtm3bflvgOH9+k1VhK0pLLEiRkZtJjyr5sY99zE5WJqfUR5wVV1xxRYq9MKlhVgALCSxQAwEDjisGkGBxgAU1VG2X84FzWu3D8zDZFYby7ne/25x3/vmWVXKOdvAt4JUdT84P5g1gQ/tpD+FBPIfWGrvqNO2g7PHjnebBBx+0rJj1xgCMPO8CNjl5ZB7SiiDUWQVcu7ZBgaP6TPeVE1IvB2SgeEdeKrykaKtsmyIRlMPmy0vwN37j182LL76YsgvLtig7a3NzK9ff9747b/3AZI3xbPUUlTl2dnY+HIlE3jabwJFnYbBoYMAwGPwMNMWkFboTC1l/IcEx2Io1bp0u2cCR83ZbTt8n7OPWtWvP/c5oz7vvwKHPbt+27ZN4qwN1uMaqwjBH+gPbHTY3QOV3fud3zFve8haranKOPuP3VVddlVoZw70ACDyrAjWAkbplq6MMdSpVmYLDAT2tKQaAAD/Z+zgOcHzggx+0tk5YGWwJ4BI4ARoKh5EtUGBBWA+2UaXzUqiLmCMAxYvlBz/4kb0PYMqqFI4BlACR7JOAlLID8SzyZAOOtIvnl+ot5iiHjMa9VGk5fJTWDfssz8r13JtkHmLaeskgG+TOs33oQx+0TjHkIHWa9uLE4joWDSQS/rc2bbzpjkKOe+ouKjhGo9EHPM97ZyZwzOolTkog23ni6HTOLXN6FexpEea6hxWIl0UkWbzVPIvWvb788svWrgU70BpeJpLYgLVRJdfnSmXjnjrvxkVqMhR6AOSqvxDgKNuUEt0Ox2OpiRobGk4Z9626NmI3cbcyamtrv3l9jhUyBw4c+q3DR4787YsvbU0yu1K7EgNwtAzP86zdDmD76Ec/aq655hrL+JjAgAAJJwBHecjpBxiPbIbankDL/QAdzClMbAV501aOMy5gmlo9AyvV8kEmP8+HWnzzzTfbOEvGHvelLo2FQPUttWAhOzZ1UIbjy5cvt+q64hGRLeAMECO3LVtesr9pDyAse7jWT2s5ojbf0likHQCogsGVpFfqusYNWXFkkpBtEjlqXbnqozwvF236pSB2BbTTRu7HihkAVPMD+6w+AWMdwqn2wMaNG67PNXYner7Y4Pgjz/NumE3gqLc7b1JCH3g7y6CuJU8ygItlSg2n8/T2puNdo7rYaD6APtFBMNr1hQRHnp3sNfmCY3t7x43r1q0edd/qw4eP33ii8/gPn3neZtG3NirLsKoqLTiiVsPeMH985CMfMW9961stOAbJC6otOKJWu+wN9ZVrBWiy0QWA3WYdCgISvSzxvrKcTem3YEawPfpYWYCs7a+vzzpnrr76aste+cDY+AjoABA+AhxtmgUjBBw5rmu5P8DGtZTbt++AfT6YHKFEUtkBJ5l8FAcprzrXAnhKNOsuJXS994EaHoSsCTT18lfbpVprtQ0mAbbI5aWhFG2KM+V73brzrO2VlwWsk2eUYycwK9iVRU/dsunmKws57qeCOX7f87z3ziZwFMDxTXolJiKeN2U6tuEjyS07GeQaSJTnfxnyVYZBJoYpUC30IJhqcJRnF3koBCSlrqWY4zDhHtevXbv2gdHae/z48UtO9vS+8NgTP0vG+0WsXbGhrtYyLPaPxukCeMEc33LNNRYsFY4D+8c2B1DC0GCU2CylptI3nFOSW5w7tJ/2alkifQ4o8rJsnD/fMjd+yw5pQ3ySezMDyvQ5uQhxBDEekMPuPXtSwdmBIyJYnihnjTKCC2zFVCmrjEKA5N69+63KCpuDOWq8iUEqvIfnV93cn3bhEZfTRONWG3KpvF7q6YxSL305iWQ3VeYd5grhU8wV5a7E4QU4wuppr9KdyY4bjA/AMvHzWzZtfEOh50VRmWNnZ+c/RyKRjbMJHF2bI5mK6WDefIpTO/tNyxKu4K0tOViHgw18DvZSFoPUW7jQg2CmgGN7e/t163LsW93b29t2orPryE8ef8yCDMwRBtLSON+yP2yOrPyADf7hH/6hufSyyyzzAwixTWLvAjjRAGBwfNMf6jPFGAKAOOC4lr6jDH2uhAmAAcyoKxq1K1IEbIqfVHA0IEc9jJnbbrvN2ta4Fkbpru2WtqE9XlBzqV+pzTgPYFMPn9M2ym6rgrvL/3ROjhSNYY1Hnkexh3xTt5xPMEWNUY1TOXLccSTTicCVsa1NswS0HOOjFw+AfOpU4ICjjALJaadeQKjVxvdf3Lhxw+zamrWrq4tgzVtmEzhK/aXzeBNKrWYwMvDFEKUmBW/zvSnbI7FuqESUFziKjU61Sm1Vi0zG2zGgdaa11e7EQa22kyQZvJzOHJkMp22ObTn3rfZ9v2z3nn29zzz/XDmyZtN7G7jd0W7ZHGursXtx7Atf+IJZvmKFZav0Cart888/b5+OBLawPUAQJiOmh3oKAAG09JmcMErpD2ABhpzDVvnqjh2pgHLZG5XXkTpgR7QHYKU8AeKMG9ZdA46yzdFGxVpStqcvWCVHPkiFzgAu8nBzLMgLGdhsuQZw0p44Ah/cDgL3YF4GoT88By8Q5VBUyI8LjPzWeY1ZF2ClKXFf6qT93FdOJ5mkuAY5qL2UkVPIjZ20ZhjA0ZgXNt783kvHMAzHVbSozLGrq+tbxpjbZhM46s3IQGB1BQOcyc7/dD5Mgg7mtwzulNPblmMkJOCtb8Eo6RCSwXyqAXI6gWNHR8db80lDtWv3nq07Xn/9AoKmYY5MypXLltqga/aP1hrle++9164wAaRgjCSIQN1DVd64caONvcOZg1qsJX2AIBOXb+pRIggATSqxVttgYzx44IDtV8DV3W7UplHzPMsa6WutP8YrjmmG4HAcPYrBBNRgcQoMT605T4Y+6aXCizbIVBNoJ8Q5KhyKe4itnbZ7B7kmpeGw4oX2BJtXBU4i17bIb5dJCljFRjVeZSfUPNAzykFDOY7peuRDm8kMr+MyJUirEjj6vv/cpo0bLh8X4o3hohAc04Q1Vm+1gI+Ofemll1LxctqXWBs7ySYDm/nFL34RxO7ZPVQSVpWyAcpJdUhs03XQjKFPJ7VoocFRISCyUY3GHPMFx/37D//10c5jH8HMAXPkc87yZUGcXVVVirmw18irr71mAZClhKyxRu2F+ZFqjDYBEnwUDK39rekb+q5+foMFLbzstJ3fXAeIPfvsszY+U6xT9j3FTQKeAizKAOaA26ZNm0xFZaUFJrsPTnIHPxuQXlaa2sfagloiCCUT+HK9mCT3q6ggGWyw3YINSk9GR0iTiURKUhuJBewvYI3UA9PWC1uOl3RwlArsMkfVLRarcS1AVBiQBbtYsC0seSUDG3sQ0TE4eHqVURCPGSx/ZEVPwvefuWXjhjdO6kDPUFkIjhMER71ZAT0YgzyHsg3BEPTR2xN2wnl5tQFHxUSKYeqNy4CZys/UgyOMItjgfcGCBW9bs2bNo7nkceTI8Zv6+vt+8OhjPzXl5ZUWLGCOqIl1yb1FAIqf//zn5uFHHrGg+MADD9jEE8gfUMU5gkot55jiCGFl/A7Sa9XYjN42ldnIaacMWgCqsvUaJ9mRnDCAJqADOw3U/sDTqw2nGBPc+/IrrrDnAFDsmhpP3E9bB8BcUasBTSW/QDY2LdpgkC8S5sg5nkP3E1i5jiRAkhRk3IcXuhxFsjWSEMJljKdBE4918OfayPWyU1/pJSgno7zZXiQIbAccKcNy0cCjfnoxQDo4GmOe3Xjze6/INQ4mej4ExwmCI2AowzEhCm7YAxPI2rnKy1NhGUwuvKUu6BGOwYDXRHG92lPtlJkoOCZ8LzVpxJTd73iC9b2nExfEY8Fk0bK3QN0asGuiFyxozwscfd/veO21nYdeevnlIDNOcpMq5GzDeUpKrLMFALnrrq/aQHD6BFnj0WWFBgyRGEg+2k9aQd04OKgLzzZrgZWFCeZHn/MH4+M5FDAumxv10h48yDiKSNIKcKLCUx6WRxtZPQNrZSxg+wxU5GA5I+BHWwIbZuDhlxeYMtyfNgaMMggDQn1XhiGNKc4HIUtDlrGRvox7nu2ECVRpgWCmb6nlUqdd26OOZez/5MtDqrTUarFOfQvIYY6+b17YtHH22RxZ+nXrbLI50uECSCaL3qh8w1QAR1eFhiEwMWSr5HoXHKWSTLWtUe+M6QGOQ3aL1ba2jnesX7961A221O69e/e/9Prrr59/8FCwxlrrepXqC+YG8/uLv/gru+cLtj0Y/Y033mjNI4An3mMAFObGddgAAVtMINSJDbO5udHaJOW8oDwvQJw2An1efNoDRmu5Aa/ASTJkWSPOF14E2rMaFov9EXCgLYCmzCzUoR37Tp7sSo05rXHWEr3A7hhs1mVZZnKdOPUIjABGjivrDr81hhm3UpunEzjOVm/1rANHBplisnjDK2iV4xi0AUc36JuJoDW4Ak3AURsxCRzT1ZSJqgjjvX46gWNHR9u71q5d+2A+z3L06IlPHD165Itbtm5NORuI24Ot0V+AESzpvvu+YUGJWEY2aCIzDH30zDPPWM8xDjUAEWYn0JCXlv/b2lqsFkC9gCGgRagQ4Ml9AEYFVANS9Ctqu02GUVlpU3ABfNxDThmAk/u+5z3vCRLd9vbaF6rGhNgndRw/fjSl+kt1pRx1B1lvgvXNgKNeyDIV8L8ybys0iGfiOGNTqrzsjNOGOSb8lzZt2nBhPuNgImVCtXqCarVsjqgnsBFYhACOCQPjULgPgxJViJUTCsKVQyYTOMo+M5EOnui10wkc29ra370+x+6Det6urt4Lo9HjW55+5pnUZIdxKVEt/cDfzp27zb/+679aUCRzDWyQoPHHH3/cgifsDTYnlZlj6pdgz5QB+wKETaK6at9kQA2gBBhRkwFc1FpAinOAD+XJW0g7qAsQBJgAS+7xxje+0cZecgxwlIlAy/NQrWF+sl0r0Jpv7hGslAm8vwClQmoYh8qSAzhSP8CnwG79pozG93Rijr7vv7xp44bT6wonOsizXF9UcIxGo9/0PO/22aRWS0Xhm8ENe2QwMrCYaHLIKISBiaAy8mDjkIFhuKq0AHWq1evpBI7t7QtuWrfu3B/lOxf27t2/8+VXXlmBU0O5GQEvXlr0F4DDBk5f+cpXbIwjajMvODzVONeIfQQ0WUGjlF30E78BIOpgPxbAiZcbtj4FZiv5ressCRwNQaA/QBTsyhdsKwqQaZ8VxhFsj/re9a532Tp5Btohhx1gTN0NDfUpldsFSZVDbecDa1XqN7HCYCuGwOEnwJTqLZasOMbpBY6JVzZtvPn8fMfBeMsVGxy/4XneHbMJHOWVY8IAioSBMAgZVDAKbFFalgUbcB0yCgcROLqGcoFuCI5B/Ftgc2zfsH79mn/Jd7AfOnTkk4cOH/4s66UlR2JKAUfADI8y+yYT7wjY8CJj+4Arr7zS2ggJ7yE5q3b+QwuAOdKf8gjH4yPW+QFYorbD+ngpqpxs0gAfqjznKcfxQI0OQoD4TR28PAFNebdxzNAuyhACJjsm44rf7K5I+cCjGyRXlvMiUK2D3QH5gwHLYSh7IssB3WMuU3S90yE45jvqxlkuGo3+o+d5d842cGSg88ZlAKFWw0BQYZiAqFTKEk05BjKeUdd+BTjKM6njAs5xinrSLptezLFj07p1q7+b78P19PSce+x454uvvPJKNS8sJj59Ajjx4hI4EWWAEwZQxFNNP+Kpfuqppyybgy0CnrBB5TWkLvq8r++UBR4YJx/6DeDinNgdoAh40QaO8TuI2WNTsWCbVYANANT2ppTlRcpyVBJh8IHpAtSMI+qhnTBHvgE+6lQsIeV5QcMcFU2hZYSuLVErX+R44Xrq06ZbeqYQHPMddeMsF41G7/M8732zCRzFChno2gME9QcPo+xOMA4tJWQQK2wEMTIoAUfOa9Lo7T3VMY4WqCe4fHByQnkC5tjR0XbL2rVr/3ksw2/Xnn137dm9+9fxONNHTHrkzUsLoNuzJ0hf9pd/+Zc2pAeZA4rvfe97LRCRPosVKwCptibAlki/B8vygm0FeOkBkACjnDGBTTDYkY/z1K1dALWkj+WVCnwHDDUmUKO5Px9W6zAmsFcyrqgf8A1U/HL7LMFqoEAR5DkZV0GoTsAauUYrfQSEAXs8veJFbFLXUpfU7BAcxzLqxlF2NoKjVi8I8KXWMFHwcMJQmAhMQCaLctopG7PdLjS5mZLyAUptY9LMFrXajXtLj3NEhlIXiXMUo1KMG8AUqNVtH1i/fu19Yxl6R0+ceEfn8c5/Y800oIbaCgME8ACB3t4gQPrRRx+1/QVAolrzQiM7D04a+oU/1Fv1l2JSxda0Ix7PRn/DUJWyjvbS37BBgbKOyRYq9Zv+5npYHu1hvNx0001WVeceMFvuCbDzQiWfInXy0tW2pzyXYh/xVmuvFoUDMd7kbAEcXWeMVOnTwd9BfOP0AsfZ6ZD5uud5759NzNFlee4AZyIwGHn7o5oxCQBIBi6DX+ESDHgGPufkoBEgygY5FjCY7LKTxRzHA47uCo6kzfFX1q9f8w9jeUYSUby+a8/Ptm/bdjn9oew0bHkASMLcYGT00/33329uuOEGy+xh/9j7yD+IHZmXXLAJ/QILSuojmVToR1iismfLlEI5qfQALiBGG6S68izyagNCvAgoDzhSFy9Z4jBJ+grgEenAecAtyLAdjCtk5e6YKKcg4Eh5PtrESzbGABRnIDjOxlCeaDQ6K8GRgWfXh/p+aomVbEpaiRHsuRt4OLWagEFKOTZ7J8xEmVSoj4mg82MBg8kuO83A8YPr16/5+lifcf/+Qx89fuL4X+KYCTamH7Y2u2CzpzILKgDft7/9bcvIiDt98skn7ZprYlVhj/QZYApLk1ea/tFqJu3NInDTShaBlGJaxcAARP6UsMKmKevttU4bpTADtHmxcl/YI20ALHEkMY54FrYxpQ7qkmrNPfkEyWQD1irVXmq7AJplgTOQOW7ZtHHDxWMdB2MtX2xv9T94nveB2cQc09mdGIXLKBn02LyU59FdcggjwZbFpGEiyFjOZAnB8fR65SRzHBc4dnd3Lz92/MTPtm59aYFiAXkZ8VJqaQlMHcgeO9/DDz9srrvuOssY8Q4TiA1gsQ4b5gc48sf1WrHCpKPftF2CzCKsmALouKdshGTj1pYGgJfsjIqdBFxpj1bNUJbrf/3Xf91eB5DTLoFfY2OQ7o62AZp6KYuZAo5cr5U7Akep1koooRjHmaBWz8oVMtFodNaBoxuPqMmiN7fi2nirM0CZfEw0WCQDGgZiN5xPZnJRDNx0WR3DRJpezHHsNkexhT37DnzuwP79fwzoKQYQ+a9ff75VSWFdsElWydCnOG1wzPDigkE+9thjFrBQq/mTUwaAoz7Z8wBD2R9l99OaZsYAIIxKT//zsoSxMh44LnYpDUOOHsDyN37jNywgUxa7I2OMOlihQ3sxzcAqg7XSwYs1WNcdrG1XELjAUbGOMxEcZ+Xa6tkIjopHZNC5RnqtOnBtbTJsywstZshgFtOUgV8hGXPJIWNtjPHA20qIS7rNsbW17f3nnbf2H8eqHiXtbatOdHY9tGXLliVShVFLFy5cnNoaVXtV//CHP7QrY+gL0o6xjBDQASzlmFF4j6IV9CIEfAWKcsCIlfE8eIw5jyoMA1UYjzzZMDyANshQM5wK3r7lllssUFMeFqvM4gsWtNuxo7r0DLQn0EKCPKK8lOXgU3uCAO9g3M4k5jgr8znORnBk4rnB2y6YybboroqgrOyTLoCqrFvfeEBgsq8pNHOMxYPdBuWxHg0c29tb37du3bpvjPcZ9+7f/7s7X9/1V4AWbB3mCLNSii5WxAAyMDMYGmBEDCSMjTRiOGa0HwssE8+1XnD0n5bnAZCBPbDOMkNiWCkHMMLm+IYpupEOcuYpYFtR1icSGgAAIABJREFUD5hjKMsmXCwnZMzQJnmgOzqCaAfZHXEkSXPhGclnSV3a64bfCuUJYnNnns1xVuZznI3gKIDL5mHmrSw1SQNegbZMBNmrZCuSmq5YtqmOdSwWOCqUJwc43rlu3bpvjhcc8Vx3dfW8Y/+B/T88depUBHBgH2TAT6nMAEjAjPXWF154oQWWn/70p3Z5IWDKqhlAULsVol5THibHH6xPThc56AApxTcqG096kLXK6sXJNyBOEgvYJPZRMgZxHYkrAFjGSmtrYJbBkYRqTZZ5xTVyDIcTYIhjkDppm8J4Zio4+n7iqU0bZ9/ug7PO5pg+UadaDR4vcGS7bqLgKJuXy5iZpKlVIokgSDpTnKPUai0fbG1tu339+jVkdprQ5+TJk9dv3779X+2LKLnvOeAIyCnpA3ZD1GhWzcC6ACTWWdPWH/zgBzYAO3CilFjWxksQ4AM0YZXaelRL+qRd8A2galmpGKPkoe1KqYs/wJq2kIHnQx/6kH3R0h5AEKDTCixAk9/ERirRLaDIvbSuWqq4VOjge0Yyxydv2bjhqgkNgjwuDr3VaULKCm5esEA/F/jlOp9Hn0yrItMJHNvbW8e8QiabMHfv3n3/gQMH3u0l1U6ABkcJ6jSgBKiQIAQ7HWux8RADYCzlg7XhoEEd7+8fTK1nholxnVReAAuwgwHCNikP0AFKeK1drUHqueJfUc2xLWpJIW37wAc+YMcfjj084QArDj2FA2mljLL7UCdgDaCqDVKrT3/PPHD0jf/Epps3XF3oiRKCYwiOo46x6QCOWiHT3j62tdWjPdjAwMCSLVu27I2UlFkAUvSAmJbSg8ljje2QeEey+gByACcq70UXXWJZHOAnEwvqLPZIBV8HK3F6rerLMVgmgItNk4+852LKHFMokTLpoFazjJBrca5gdwSs5TlXajSAG3DnQ1kYLvVyfz2TlgkGSwNnoENmloLjrAsCD9Xq0d/fE1WrAQCp1e3tHRvXrVv9vcliDPv37/+7Q4eP/ibMig/fBIBjW0SdVaowgscvvvhiC4AkwUXVBkz53dc3YK699loLVoQD0Vatrw5SggX1KvOO1ksDpOxdA+gCUtoBkGuIl0SNxxkDGwTkYJqU5zoAkPMwR0AY5w91wCK1F42iHgKnk2/BUVvDKswnBMfRR1KxmWMIjpM1s4tUz1QzRxcc29rab16/fs33J+vRfd+vf/KpZ05q3TNgwfppHBtSXzlGxh4AivXY2PRYXghAwsieeOIpC1L8DzACbCzxA5QUr6r4V0ANEGRlDswQoCT5Ln8AG88KK4SVAmYAn918yvftfujcn4+C0rkvbRU4sqCA8njU5dgLlkj6FhhddXsmB4HPVrU6BMfJmtlFqmeqwREAsvsZx0fGnM8xl4h83y95cevLu1979dXFABheX0AF9ggwEaSNigqDxEt90UUXWTVVeRUJDsfbDYME2Fj/rJAavMOAJAAGG+QZ+ODwAYy1lzRgxjNyHcAMmCnxMSyQ6wBUUpehhsNYaRPxl9yT5Y3KDM61PAftU/yttgZ2wVHAGKyGCW2O2cZJsZnjrEtZFqrVhVWrCwmOtHzv/kN/9PJLW/9MoVSAGSClXJyAF0wN1gcjQ73GGw0gAi4rV66yzEyZfAArPgCVWB/PwL5BABTABDgCeHLgAL6UB/goo6BsymlvGTIEUYaytIX78+F+WnKKCs5v7YIJeAKOfGCNSoChMKIQHKeXWh2CYy46M83OTzVzlL2uEMwRUZ84cWJt98lT97/yyivLYGmE83BPwBEGKZshgMTuhDBL7H+osgBUQ0NjaodJ0p5xHfGRShjB9QChNmHT6hmF7vC/VtlwDHAOVgiNWNAN9oFJ2Mw8YpSo7jBHQA6VXJ5uVHlY6gsvvGDPCRxlc9Q6bgBWgeAzMivPLHXIzDhwlGHbeMS05Sba+ZSZZvg3anMmCo4kPpD9S3kcFfPI5B2JBzY1rQwhn6M9nlw+KLUTcGxvb33P2rVrfzjZ8jt69MSHXn3t1Xu1RQGMDpAEANlWgfYDUjhmAEk82tj/AKInn3za2hfxPgOCOEpgfoTeKP6R+viISUrlVSJc/e96qzkHWHOMcBxUdtoDmyTOETsoAIe6jbwAPM7TJsJ8tPAA8wDgq3yPtIFy3DMITD9zc62ZkHhittocQ3Cc7Jld4PrmAjj6vh85cSL6hZ+/+OLHlcEG4IDtocpqB0nZ+gAQAAabIyBOSA8gRqA2gAVwAWKwOnmsZedT8gleCNwDsOJPWXkAOmUGB8CImWQHQkCa9nCfp59+2touAU2Ocw1tgrVqBQ3HghU0rbZNlFeMJWV0/9DmmH0C5aZCkzj5ZmIm8JA5TmwATCZzbGvrGNPug2Np+eHDXctGYv1/+/LLL79L6iwAyB+hOdr7BZBBnRa7XLMm2EKBMB5skzBGrud/nDKo5jBNAErLRYNli3HLRpWsJGDLgSotVR7mCCDCGmGyfCj/ve99z37DCvFQa8kh/wOIyhaubD2UhTnyJ+cNdQUZhUKHTLZxEoJjmmTS1eIQHMcCMWeXnVxwbL9x3brV90+sRdmvPnYsenVv36lvbt26dYE8zErtBSsEIPmwNBB2CJiRD5LAcICP0BzCcFB1pYrDKgFYwI06ATLFVQKSsDmZHVxwVFYe7JuAHtdK7WbdNx+cMajujFHAFRYJoKLaa/0+oT4Ce0BcCZW5d+DImYFqte//bNPGDW8u1DhQvSE4huA4k2yO169du/aBQk6KA4cP39bT3fONnTt3RgAYgEXJaQEanCIKryHeMRoNEk3gMKE87AzPtFgcbYVRarterlcCW9RnWB22TkCT41ouCMPD+0xeSdeBgjOGTb8ARcBQH9pJqA8AzYod6gVQqUMJJwB65bOUx3pGrpAJwfHMKZDN0cEKDJ1zy2TaNC8fZ0nIHNPkPtHdByfRIdPW1vLOdevW/VshwZG6jxw79mt7du/dzAoVgAlGB9BItcWWiE0RINu1a08qWQXHtcskKjWgKHslgIr9kGu0YZerQvObP87z4TrYKmVRy6WSs1EYq3cIJMfGqFygAB8hSNyXtGWMY5gurJV6+U09MFnAWJmD2D1xBuZzfHzTxg1vKfQ4CJljyBxnDHNsbW1/x/r1qx8u9KSg/oMHD39i1+7dX1QgtpwYMDHUU2yJqKZsfYoHm5UzfHDgwBr5wNg4rnAdqdXUqa0TtEEX5QFAQEuJdGWrBCABOMAa1giYAcSUldmHsnjNUetR+zmu/bMpD+uFjcJsAU/dd0aG8iT8xzZt2nBNocdBCI4hOM4YcGxvb33r2rVrf1LoSUH9hw4dqo7HvS/uePWXH1HcISwMJ4qY2BvecJkFIoAGZogTBrUWFgcwKckt1wBKMDYlPpadkW9lJgfgAEa80NTBB0CFpXJvHC2AH6yRMgJTyjXUB9dt27bdtoE2YZMsLS+1YAo48gFot2zZauIjMVNVVWlMBIdMsH+6G8YjZpn+TV2Z/ngOmSHcZM5ufkqFcrnfiu3UNzZqJT92v2VvjcWGjR+CY55qtYnYguNRmdMnWaY6QofMxKAoH4eM8jvavI4jQRB0LBbkfAR0bHxgImba2xdcs27duY9NrEX5X93Z2bmor6/vc7t27foQITt2bbIJkhej0goQ8VDjlAHISCcGYIotwiQ5LvUW1qmYTn4r56LYofI7KkhbQER93/nOd2z4kJwz1Dk4MmwivjEdLe2moqzMPPvM8yYRi5uhkWGz8txVJu7HTFlFuVm4eLG9b1lJidm9c4/pPB61Oxf6Xtx4JTMMHH3/p5s2brg2/54cX8liM8d/9DzvTtlXtDA/H3DLanMMwXF8PZ/nVcWIc8wXHBcsaL96zZo1T+TZ9Ekp1tPTc+7Ro0e/+NprO28mjKequtYyQs+LWFtjPB6kA+MjkOR5tK2qYhAZ69o6gbIK3NZmWFyjJLWAHyxQweOwTlKnKWO51mtzXy0dXNDWbkpMxOaZpM5lK1ZYUPRKPJMo8S2LLImUmdhwzBzaf8gM9GIzHTTllaUhOGYZKSE4OoIJmePZo2SqwBGmJnVVzLGjo+3KtWvXPjUpqDeGSjo7O9e99PIvno7H43WlpWxKFTG9/QNWW4mPBCt85HCBAbJ6RitmUKVRc90107BCqdUAIIyOY7BRrao5rUbGbNgQXmY5aeScCchF3DQkVXGcMXjKoZLLVi4z8UTCRMojpq6+3rSz340pNYP9I2bPzj0mPgQ7j1m1O2SOmQdDCI4hOE65zTGdOcJ8UKvTwbGtreOK9etXPzsGXJu0onv3HryqpKTkQ719fb/JSplTff2BqhwPsgbB4rQumt84bkgWQRnFHALySjgLsMEUOe9ueiVZcB7gJLMPjhhYKtezWoYyOFcsA40NB1sulEVscPrJ3pMWRGvqqk1pRVmQZWjJ0iDYnMgOU2a2v7LdDPQF9/a9xEz0VodqtTuyQ7V60ub5mCoqJnO0+8jEfKsWZgLHBQvaL1uzZs3zY3qASSx86tSplmh37993RrveBcjxV1keJKrVplV4orUeHHX4/2/vPIDkOK87/zpN2FksABIAAWxAWGwCwGASpEiKEsVMMSDQtnQnla06Ww6lKznc+aps2aWzXJZd5brz2SqrZJsLLkmJFE1JtoIZJFKiZPlshbMkZoqEGECB2ICdTZM6fqfXPW/2297u6Zmdmd0J31ZtbZjunu7XX//m/8L3PurXiMkWdKVRIdKcaVSKtFwqNdhANxmPhWU/lOzBbRDIWBqEx8GEDG2f6kq4a1cvZTPusgoIZnw9lUq6a46jku3dvbMYA9VAkmV47oUXIZvPu8eSmZdgaamETJvGHB+SJOm9IuZYxye2wYdabzj6EzI09xgTMhsNRzT1zAzbtJR76+5MJvteVHOm7ikwymgjZPCcaXkDiiNiwgZjkuRCI7QQnjyU8PgITuq9iPvidlQkjrDEsiGcNeMtxGXBBTt2wJYtPfDv3/0OTE6fc93y3p27QFNi4Ng27Ny+zXW73Uyy5MDZqSl49fSroMZjoGCGWlJBxW+RrV71JK23Wy3g2GCY1fvwjYajYeml6W9uFteXrW42OJJ9T78186l8Lvebc7PnoFDIufCh7jqUaKSZNOgGI0gRaDjjhbLNWLZTKBiuCqTyFtqHZubgTwQXTf3DjjxY2nPFFVcA1iiet3UrFIw8fOOb/wKqFod9+/aDpsVBzxvQk0zBrgt2Q1fMWydncSkNp8+ehvnMPHRtTnqKUYoLODZJQuYfJEl6j1CO9UZY444n4Bhu25d+8sanVHB+E1UifvNAo3pG6vKDfyPg0F2mGKW3GNY8XHbZZa4apOmD3nrSiqsyEWD4E8GKiR3qroOzYbBvpKHn4cWXXoLJmXOwbecFkOr2VKLEZNhx/g7YkupxS33efON1ODt9FhwwQUkoICleC764lhBwbAY4zs3NPQwAvyjg2DiY1fvItcLRv8AWXwDsTpezdFc1uTWOITFHWiahr2/3hsYcg2x7+syZ/xxTYh/NZDOj6PbySRY8bwSQe13F68OYICo/fM0DXc7NbGNs0q1bLBRKKpSmElK7M7QXZqRxm8svv9xVlDNTM/CjZ56GLdvOg03nbYGu7hTopgmKosK+gX2Qy+ThJy+dgsWFueIyEDYomgKxuOyeUzLeBarUYjHHdiwCF3CsN7oaf7xmgmNv764jY2Nj/9H4q67uHaanpw9kMvk/TSQT70VwIcAQfug2kwKkLjsYP6SEDf6OqxdioTh+U1szWh2QGkZQQTnNNsF50pgNX1xcgm9989vu++zYvR3UmAI5PQfdPd5UwjffPANnfzoNYGPpulLsLem4cIwnNEglu8A2TJGQaRLl+DkA+AWhHKt7+DZy6/WGY1DMkZRjs8IR7w9jTHr99dN/a9v2r2MWGDPZWIKDbjFBDlWkl4n3XGwXlKbtggz3oYoM6oyOyg6/sGwHAYnF51gIjgoTkzn/8R8/gK7uLd76MyoDCQxQFQAZLDezjUrWtiXo7tkKtiODqmBRuAIyJo1M3T1OQvOmF7ZUQqYds9Vzc3OfB4CfF3DcSNxV996NhqNuFiITMs3sVvPWnJycTBUKxm8z5rxDUdRbEXaUuUYYUgcdqnF0O/QkukodvvE6qfktHheBRe44gpG6d6NqxKUQ3jzzFsTiKRgZHoa5mbOwbWsKrPwSnDr1MoDDQNFiwBQNEqnNoBsOxBIJF5Cpbq83ZDwew/YYAo5NohwFHKtj04ZvvR5wLDd9EAHSKnDkb1Y2mz0yNTXzW6qqvt+yLBnBhkkbWjCLpgBOTZ9z3V1q2kCLZVEyhorE0QaYlKGFufBYi5ksbN56HsgggcpMSE+fhcnTp73FtRhA95bzwZZjAKoGTPaa2+KMnqQmQ1zDfo9xYBK4tY+tpRzhm3edOHpdox+OdS3lEcqx0bez/scXcKzNpgsLhQOZzNyvm6b5ftM0dyOgEIzociP4ca42gpMW20JIoRuN39SMAgvAMSmD6hPhiMegNWR004JzszPw1uk3QLIcwOmNWjIJTE1CzpFATfWAycCta+xOaNAFDmi2AZuwE48GwBQVQBFwDLrL6w1HEXOs7Vlb972bCY7NHHOMujGMsUQ6nT6ay+U+UCgUrs1ms6nNm7e6tYmoEhGQ6FLjF7nWCFFyyzE+idvQMq74E2H5xuuvwtT0NEjuBOkYxHq2woLB4OWzs5CTVMiBCiZzIKUpsKsnCUcG+2G76sBW2wAJLJCSXeAoLVYEztpTOQo4Rj1FTfZ6M8Fx167+Sw8dGvphk5mo6tNhjHVNTc0NplLxd+Z1431L2ezV/DrWblbasiGnFwBsx/2Z0GJg2BYoIMFCZglmJqfcjuCxmBeX7Nl6HtiSBAVbBjm1FXJaF3z3xddgHtMzsgZxyYHzNBluP3IYdqgmbLFzEJNssGNJgFaDo8OeuuuuY9dXbfgqd1hX5ZhOp0UReJU3aKM3rzccl5uaOp47ydUAUuyRSl1IOaHLaRoG9Pf3Xjw6OvrMRtuk3u+fyWR2TqUXf2txcfFmXTd227alOGgXx9lm6IaMccFCLg/p+TlIn5uFuYV5sAzTbUmGuekUNq2VbIipAF1qDBwlAYa2GRbULvjOqTOw6GD3HgaKnodjV18K+7clQc5MQXdcBkmOgSS3mHJsUziKfo71frIafLxmgmNf3+6LxsbGnm3wJTfV4f/+7gnGZAlsw4JsIQdmwYCcngfJQS86BkySXfUoMwPiqgQpVQNJSYCT2ApZtQsWYj3wnedfgRzO05YA3n5wEPacl4QtcQOSKgNN1kBuvbnVbakcPyNJ0vtFKU9TPX9lT6aZ4Njbu+vCgwcPPtc61qv9TO8/ee+kxdgFRh6hiHA0IW/kwTEdkDQVpDh28VFBkwDiKi6WpYKsxUHq2gwZFgPoOR8WCgacevU1MPN52N6twXVXXAyalYVNMcWdWthydY5tqhzvkyTplwUca39o1usIAo7rZeng97n/nonTlgP9Rr7gxh4t3YC8oYNjWgCaAkoy7iq/mKxAXIuDIyvAtDjkbAneOjcLyU1bYN/gCGTyOXjhuR+56vLqI5fAtq4ucPQMJBPYeKLFlkloRzjOzs7eI8vyfxFw3NgHrpp3by44Dlx28ODQD6o5/1bf9u/G//Y1h8l7TV2HvK6DbdguHDFRo8Q0sGVP+XWpWEzeDaasgJxIAS7wevr0adic6oY9/X2llmXPvfA8XHH5ZdCDDSccLAuC1oNjm2arxwHgVwUcW+eRbSY49vf3Nl3jiUbfyfF7J15lEuzTddNtWJHP6cv1jnEVcL6gKmvQndgMNpNhcn4BYqlu2Nm7G2xTh5QEEFMkiMc1UOIaLOULkEh0QU88BUkNCx11UGWvLVrLrD7YpnA8+bMPtF8RcGz0I1W/4zcTHAcG+t42MrIxyyTUz6LVHenv7j75EybBflwf2+3mUyjOGHIcUGMaqMm4W0DendwKFpPgJ6//FBxFguHRIehJJSDhWLA1lYRMdh6SqU1u0Xc8kQI9b8GWTT0gS6aAY8gtWddSnrm5ubsB4IMCjtU9IBu5dTPBcffu/isPHRr+7kbaY73fe3zigR87jj1cMEyv4W3BdKdTumtdayo4MjbSXYQtm8+H87dfALNz8+4MnN27d4Im25CQHFDBdpUjzrJhSgynxUBXlzdXGxtWtNy61e3YeGJ+fv5ThmH8Jk2hKq0JXcG602INmfV+LL33qzcc/Qu7U50jTZ+jRarc2kbTdB9ghIKh6zAwsPfqsbGhdV99cGMs773rp+55EEuXDiMccV62oZvurBmEo6TIoFsGzM6lYVN3D2AD3ISqgSJLkIrF3BkwKiZt0K3W0P1WvGUR1BioWgxkFV/DNWRaLCHTjnBcWFj4S13Xf1fAcSMft+reu1FwpBkhUXAsFYTbNuze3X/VwYND36nuClp767+7/3NPZwr5i0zTcpMqiwsZOHv2rHtRuMogAg6XaYglE7B5UzfEGbhlPV2qCg44oCQQghLEVM3NaGsgg6aqIMc0d18ZW5iJxhOBg2Rd3er5+fmPG4bxEZT3qBBcZSItn0KYOqQzD1xXGrz5qFH7VrKNWLd69RhpJBxdlWjbrgoKU470f9vCBbb6Ok45/u97HjwzPT29G9eaSXV3u/OwEY62zWDnBdshGYu7ylCJebWOSeZAUlWhS1HAweJxnEWDnb9VDRKSAnEmQ0yVQY7jUgnY29FbkVAkZALG/np+rs7Pz3/ENM2PY1aMhyNBKQpwAo7rebca61bTNMIoOKJbjTE2dKv7+3vfPjY29m/rb4WNe8e/vudBY3YurWWWsm6XHvS6MDGDCRq3a49jQTKZ8AAJFmySNejConBZAjkWBwO737pwjEFMUiCBK1ersts1vGXh2I51jouLix/Udf1u6ixCXUh4VccDEB+MKHWJDeArUYWVbCOU4/ooR35+dRQc8UOUYo79/XveeejQyLc3DlXr/87jE589ZzvsfFSOCEWKxVJ3cUdyIJ6MgSwx0CQJumMxtzmFLEmgJuLgqFjuo4KmxkFTJMBIJLrVOJtGQrcaf7aacmxHOGaz2dvy+fwjCCG8uUFwDBt+YepSwLGxD2y93Gpa/4RvbOv+XlxcK8ytdpdrdZdsNaG3t/9dY2ND32rsFTfX0cfvvu/HsiwPo1LEtmWYlMEPCzfTHI+DrKEKVEEFL66YTCTc7t64sFk8kXCTNhJ23Yl5KxoqOBdbVSCOiRvXrZZaD46MfeOuE8duaPSdWteY49LS0kHDMJ5H0LmlCMX+deViiv7X/OpOwLGxQ2Sj4UjLBBTheP3o6IGnGnvFzXX0k/fc/4xt2xcaBd3NUuOHCCpI/GDxOn5bEIurEAcNNCXmJmBQCbpqEeOQuLSWorhwREgyVYaYokJS0dzstawiPFstW+18/a4Tx29s9J1abzhuN01zCvMnOOjxppHrHOX2CuXY6KEQfPyNhiNCAGOOeqGAMccbDx069PWNscTGvOv4yYkfAcDF2LINoYiqEb/RLphEQbAl4wlIKHF3rWqEnxqPg6JprviIocuMcMTZMJoCTFFcOGLJD8Gx1Up5gLEnT5w4dlOj78i6wpExps7Ozr4uSVJvGAxpLQ3/hVda5xi2XVSyJ+x8SrWYkrcIermvqNcbfTMbcfxa4Oh98Hm9BKm+kX7HD0f3m1nua7jqYCkz7WavvQw21fTZloHZ6psOHhx+shHX2azHRDgyxi6mGTJoDx6OripUZVc1UsYZ44hYEULTARGC5FbTkgjkVmMip9VKedoSjjgA0+n0Fx3HOcbDqBKoCDhuzOPbaDhajlfoXQkce3v7bxkbG/raxlhiY951fHzihwzYJavhSPOhvTIc+iYg8nDE/9HfBMLl1wUcQ/Mc633L0+n0R2zb/ji+71oSMv7zDYo5rlU91pqtrgTy623vWt9PwLFWC9a2v4Cj52FgUs6bPWXgh+kTd504dnNtlo3ee13dajydxcXFd+i6/i8UM6l1CmElCZlydZRR7y/c6uhBFLZFJW41Kkdyq/EBIHc7yK3u7d1169jY2FfXfkatt2e4W925yrFt4cgY2zw7Oztr27aCcp++KlF75YrAw2KG/uOXq6MUynE1PNZDOVYKx/7+3ttGRkYeaz3Erf2Mx09OPM0Yu0i41cvKsW1jjsW447dN07yGstVRM2TKKr9iEXilcAyNLxSTLatKhRjzEjEiIVP1E15/5dh359jY8D9XfSItvMP4yXufZcw5LODYIXBcWFj4XV3X/xJjjv5ZMEHqba1w5F3mSuEZqiwFHKtGTL3h2Ne3+9jo6OiXqz6RFt5h/J6J55jDDgk4dggc0+n0gG3bb/BlO+UAyAMrrAjcD79Kph7yz4z/PVbVXwo4Vo2YBsDx+Ojo6JeqPpEW3mH85D0vMAZjAo4dAkccqwsLC/+azWbf7haySlLpm8YxNcSl10KVH1bBVtCVp5JMctm4J66FyX1VEiNt4WdyORbsTW9f05d3D72cH/5Oc6rpd7cbj+1mH8G22Ko6R0zQUMsyy8TGEwPHRkeHOko5njw58aLD2KiAYwfBcXFx8Vgul/siutY8AIOewrIxyXWAowtfXMNSwLEqSNYbjn19A0fHxoa+UtVJtPjG4ycnXmKMjQg4dhAccczOzMy86jjOPlJ+fte2ErcbS3miEjr0fESpx3KvVwrHSlRsKz2vtWara1WOOHXQLfGxDOjr6+/AhMzEjxljbuMJr1UZzZDp3FKets5WExwymcz7MpnMA/S3vygc/8Yyj2qUY1nA1TL9LyDmGATvSkHcKoBcLzjiDBnqwIP3nK9zJDju2dN/x/Dw8COtYrt6nOf4SQFHfxF4R8ARB8/U1NSzjuMcxt/JxaYscyXZ7CDl6M8410VZrjEhE6VW6/EANfIYGwFH72Hw5lpTzBGV48BAXyfWOb7MGBsSyrEDZsj4H+R0On2NZVnfdhfoeiuaAAAgAElEQVQMKiZm/OqrVuVYLzhW4jLXolwbCbm1HruZ4NjXN3Dr2NhQh82QufcVxpwDAo4dCEd8aOfn5z9ZKBQ+hIqRV4tRncLdLKgv5hiVRV4zvIrZ6kqUYNQ5rBVUG7HfesKR78oTpBz37Om/aXi4w7ryjE+cYsAGBRw7FI6MsdT09PQrjuPs4sHSCnD0F5pHqctK4LoREAx7z2aCY1/fwHVjY0PfbCb7NPpcxgUcAxpPOF+768TxWxpt+3VvPBF2QUtLS9fn8/mvo3og95pUJB+LpNikqxqxX6CvlMcPH79L7X89qvEEf75BYGPghQOioBgKnyqSRHxher0GRi3wizoHvpSHlkeg+lVqMGFYeqllWanrt2W5CRlaP8b9v1vnuKfzlkk4KdzqgITMV0+cOHZr1Pir9fWmgSNeyOzs7McKhcJHEYb4TUspEHwIZNSwws1ky+oKMAUBrBwg+Zk0UaquEXCMgqo/uVTrDffv30pw7OsbuPbgweF/qbcNmvl44ycnRELG17IMGOs8OOIgnZ6evs+27V/G32mFNRq8FJMkd5vgWE658a9VEm+sZBv+YapVOUYp00Y/uK0Ex97e/s5bfVAUga9yqzsWjowxeXp6+quGYdxICjJM+ZFbXQ6APOwqhegK+FFXnpApivWEI71vlIKtJzBbCY579vS/Y2Rk5F/ref3NfiwxfTCg2S2wx+86fuzdjb53TeVW08Wm0+nNP4Pjv1qWdZhXi3732i0SZyvnZVcbc+Td2qgsc6Pc6nI3udGgbCU4Dgz0XTM6Ovp/G/1QNNPxReMJAcdV4zGTyexcWlr6mmmaF+KLpCJpQ/ob4UiAC1OGUUkZ//5BD0fYsWtVjkHZ7vV0tVsJjv39vW8fGxv7t2aCV6PPZfzkxPOMsYOilIcr5elk5UgDbn5+fquu61+2LOsaKhLnG1UgsMLqHIMUZLXJmiBIrUqQcDNn1qLyVrVGK/O0reX4UQ9va8Fxz9VjY0P/HnVN7fS6gKNQjqHjmTGWmJmZ+aKu625dE2aqXSi6y35it5zlbDX+v1q3uhJVybve9HsJanWEo/99/EbpdDj29e256uDBoe+0E/yirkU0uxVwLDtGGGPK5OTkg5ZlvcefYEG3GtUkX95Dbji/DEMYNOmNoyAZCiZu5kwj4BX18JRTw7hvVG3keihHqm2ktav5mkesc6Q1ZPx1jvg3zq3G2le9kIMDB/ZfOTw8/N0om7TT6wKOAo4VjeepqamP6bq+og4Si8BJMSIMqcyHGqv6m+mWK/r2K88ooHrS1WuCWy4TXtHFrXGjqCRSO8FxcHDoipGRwe+v0VQtuZtYQ0bAseKBOzs7+wv5fP5ex3FSbvxRVlesQ0MxSVJNBLxKXO5ykAuFX5PCsVKDNpNypKVZ8SfOkPErx6GhwUuHhoZ+WOm1tcN2d5+ceAYYu1AkZFbMrX7srhPHbmv0/W3KUp6oi85ms7sWFhYedRznEtvxVJt/HjapSD6Rwx+3WliGxQP5JrgbpR6jYpXl7NkMcHSnElrMa2pbnA0RBMfBwX2XjIyMPB01PtrpdQHHAOXImIBj1CCfnp7+eC6vf4RAx6tG2tef3fbHGP3A9IMmKhbJL9laLua4XvHIat+nGeGIMUbsyuMpSLMUc9y3b+iisbHBZ6PGRTu9LtatFnBc83hOpzMXGmb+oUKhcJCmG1JGm/7mXeswOAapPn/yJ1AZVuFWVwuuNRulggXHSnaoYQGtqPOjxhNRCRm/cgyD49DQ4OGhoaHno963nV4fPznxI8bYxcKt5teQgUdPnDh6e6Pvc0u61UFGmZpJ/w+9kP9T27ZjlL2mkh8/HMupwbCkTJjLTG51pS71egKyEne72ZQjLZUQpByHhgYPDQ0NvdDoh6KZji/guFo5AhNwrHqMurHIxcwE1kQihKiUJ2iFw2qBSaBZlcEurkoo4Lj6dlWjHHENmaBSHt6tPnBg/8Hh4eEXqx4YLbyDgKOAY12H78LCwvuy2ezf5PP5rbFYzM1m89MP+dZnVCeJcEM3HF/jC82DIMoD0j99MKq0xu/WVzp9MKokp1IDroJ7gFu94vqKxfZhxy/O3gx8mdxp/Em2pVpHKrVC+Ll1j5a3rjXFGVE5+rPV+/fvHR0dHf1xpdfaDtuNj0/8kAG7RLjVK6YPPnLX8WN3NPr+to1b7TcUYyyZTqf/KpPJ/DqpPh56/Nxs/8Je5I7zLdN4d3sFYHwzZKpJytD7lHN/+W3qMRgqgSN/PlFQbiQc/QmZjnSrBRxXdwIHJuBYDxik0+kLDcO4v1AoXILH0zSttE6Nq2yKa9AQ/AiapHailCPGHHmXOiqmWOvr9bDJikRTjQmZesKRSnk8V9pzp3i3WsBRrFttWQYuHCUSMvUAAR3j3Llzv6Tr+l87jrOVPy4Wka+ARbFmkqAY1Cmc315WvKOFKsuAi4gCZCWJlHrZhhIylZxT0HvWCsdSbWMx5kiuNbqRlJzhpg92YMzxnh8wBj8n3GqRra7XMx8WA0tOTU39H13XfwM3cOdjF6cfUhE5D0Naw8YPvhUw5RIy/HZBJxAEoCgoRb1eq8H82epq30/AsdY7UH5/EXMUCZnGjjDf0efn5/f/rC7yYV3XL8MZNlT6Q80raHP/rBvefaZt+FKeStRjpQkbv0GqhValBg0r5an0/WqFYylDHaAcaanWjlaOIuYYsPqgmCFT6fO95u1mZmZuL+jmJ23b3kNZagKkH4Rh4KsEjquSIGVWHKwmobPmC+d2jKpzjIJkveBoGp5CcDv0WBagGyngCCCUo5ghU4/nfM3HmJmZ/b18ofCnjLG4v3EFD8sw5ehPyPhjmEExxGZQkG6JE5QvWNhIOGK7MoRlRytHMUNGKMc1k61OOy4tLe3IZvOf1g3jZlKRtDwsAoJan+HDWioDwt8jEjJBCjQq4VIv9YjHiSrFiVKOUe59mHKk90V74RffyxFf49cidrPSZZQjKkns5zg4uK8DEzITTzPGLhIJGdGVp06oW/thZubnLzOy+fsM0zyER0kkEu6DTcCitbQRlm4Bd0hCJsyVDlKf1SjLKLBWe+UCjtVabH23F/0chVu9viOugnebmZn9tXw+/+eMsfMRgghDvrM4qUpZXbnAVxT8wpRkKcETEo+sJm5ZweWVNml2OFI5j6HnO1M53jPxHHPYIaEcxQJb1TzXDd8W1695663Jj5mm+duSJMUp/khxSVSRiia750EJm6BynnIxyKDXyqnDerncJRivoQicPwcHlovg+RtSL7eah+P+/XvHRkZGXmr4jW+iNxBLs4pO4E00HFefysLCwoFcTv9LyzLvxIcV4YhK0oWYL+YYmtUuKsJKYBilEqOSJFGv81dYrXL0W4dijkHvSbOMaok5djocT56ceNFhbFQoR6EcmxqS6fTCf83nc3+DD2xpnnZxbnWYcqw0IRPlboepySgQRr6+BuW4QiFyyW7/e9UTjsUFtjouISPgKJRjU0ORP7lz59KfyGazH6aMNguBYxQUg2KT5f4XFpOMhF+ZmkoXuE0OR6/xrQUYc+zQlmUvMcZGhHIUyrHpITk1NXvzwsLcV9G1jsfj4JTWz/baovndauZzpyVJAUxwl0AY0A8yzPVeCyAj4VkjHPmYYyOUo4DjhIBjsZWdN0HAAAbs8buOH3t3o2HRti3LGmW4M2fO9C8uLr4ai8VUxiRQZM1b4AunaUtecgLjkK5LKQHE4nHA7QzbAgSjZEsQ0zTQZBVMXQc32+1re8a70OVAGQa+SCByarKccsTjRNVJlpshg9fBHO8YVNtIv1Ms0Xa8fo7Y7JZmxHjdeLyOPKVCcKOA2epO7ASOCagRXTchnw/uyoMhHuw2RRUV+Df9jv/n/6Z4Ob7ubbO87ju/P9Xy4v9oei39L+gniQK+d2dQH0++3tW/jrk3QwrcGlj/N44XAcdGUa1Ox8VZNKdOnXrGcZxhVI6qFvcKmk3THWyldbIVAJsx0E3DBaYS0yChJcA28e47EJM1kBUJHLABXfMoIAa53GFKsly2279PPd3qIBMLONY28CqNORIEEYQESx6KBL4wOPJgpJU7aVsBx9ruYUft/frrr9+dyWQ+mEwlIKfnoKurG2RHhZia8BSPbkFXdxJkGbPZ2GHcAkX1/FdUjpI7bU/xumNrEoC8XCvpBxvvpocBtBZIRk0fjLqxUcrRsb0jkEogNUEzZKpRjvv37+24hAyV8qByLBQKoOu6+23bjqsWFcWrnODhuKwKPVDykFwNT7lUfUGvNSscceyYpo5eiFiaNerB3KjX5+bm9szNzT1vMyslqQC4FIORtyGudoEqx8C2sWhchlwuA4qmAAMTtLgKhlGAmBJzY5WqpLqDXNJU4MthopIyYQoyKk4ZpiZ55Rjljgcqw4jAjIBjbaN0/OTE84yxg1Fw9APRryT9ynDZ3ZZLAOXhSNUYzeRWExxBgsdOHDt6W22Wjd5bxByjbRS4xeLi4q9Mn5s6qVsFSCaTwCwHFEkFVdZAkSTQ1DjkjbwLPssxIdmdgnyh4A5E102RZTceh9v6FaEfUn7wRb1eiVtN2wS51dVAslrlSGvJCOVY2cAbr2CGTLmYI0ExDI6aVhyPRYXJAxLHQVPCEeDRE8fF0qyVjaAN2urll380f+bMi5u3be2C7edvg3hMdZMIjumArMZBi3WBxVSYXypAqud8yBs2aFocDNubq63JCsjAVgDS70bzLnNYedCqOGJA+U4Y8KLc6ihQricc9+49MDo6ur+jFtg6ec+9zzLGDocpR1n2ABamHP1w9Mcc0cPh+5n6XevSh3nxQz0sKbMeCRlUjm62mjEBxw1iXsVv+8Zr3/uDh+//oz9LyHOwZ89O6O/bBVu29IAixyCfVyCe2gk/PZMDrWu3Pjj4ttuyttarqMn3mLZ0B2CSRpVAAhNkWG5sQYMsyE32lwnxJxoFzrC45HrCEdUin7l2l0ioIlvdkXA8ee/TIMFF5bLV/pgjn5CpNObod6n9UOTjkOuZrXZXpiyuJSTgWDGaNn7Dubkfbnn8gb94MZt+fue2bSnY1BMHABsWFrMwPZ2DTVv3wuxcDI5cefSvr771g7+DZ3z27NL2vK7/sazAhzBTrUl22c4+QdArF5csl9UOAiS61eXUYT2Vo4Bj9WP25MR9TwNjLhzLJWTClCOvFAlwK5XmcimPH5B8llrAsfp71/F7sNeeSnz/e0+Op+d++v5YnIEiG5Cen4eFjAHbdg2+PjR2zR+PXPWB+/yGevOtmV/T7cIfqszZw6tFvtku7kPr2FCMkC80d1umYV2lz40OS84EqtFiEXgUBMPimFH9HDGuil+kAIKUo1vfZkOxA7hRrHFjbo0jJq3c+kfLgMHBkbGRkX0d1XiC4IgzZILgqKors9HhiRevq5TfrcaKCl5d8i62v4THD0gcMzQe6Sdf24j3nT4Qg9Ytp21pbETVOXLK8ZHjx+4U61a3Cn3Z0g+2F2ZnLtRz6e0gKzOGDd/bceg9mXLnj11/3vjp6T9RFOV3gIGG21LRNbkuvBLkQUjbUaegQFXIF3sHNL5w4RvQCbwaJdkIOHrFvk4Jjq77bRmwf/9wx8Fx4t77n2GMXeiHo+N4bfSi4BiVkCE48nWQBMtK4ej/wCYQ0oeiv4yL/6Ck16jo218ETstm4BgowRHYo8eP3nl7o9kgstWNtnAFx19cXByeW1iYsCzzaprpQDNK+IHnByUpy0pjj0HKcS0xR/44jYYjqkdOOR4cHt77YgUmbZtN7r3v025ChuCI9kAFiXCkOkeqY/TPkCGVWG6GDK8c/VDklWKQW03KMQqOvEIsN0PGe81TmzQjhqDJwxEYe/To0TsEHNtmlFdwIefmzh3PZfOfsCyrf0VbtAC3merQyoHR7woHxSP9cAxTjWGue1Q/x7W41Z6yYK5LzcPxwIH9HTd98L77P/McY16zW4RiOTgGFXsHZatXJmw817gS5UjeDIHS71aT50Ohk6Dpg/ShHwRJv1vNu9srlKPjCDhWwJO23GRyevLPCgX99xzH0bDAPCwBE5S9DkvIhMUhCY7l4pZBAKb/hfVzJLe/Eji6A9+RSjHHMnA8PDQ09Hxb3vSQi7r/0595gTEYo4QMxWFJOWIpTznl6C8G5+OLXg3jcswxyJ0uV8pTCRwrnV9NK0+Wm1uNJsIZMo5jP3bs6J2iCLyTHgT+WrPZ7K75hfkJwzRvIQjyccigmGNYqU8YGPH9FMnrZB4Uswz7X5hbveL/xW5FlcIREzL4gFCjCV45uk0qTB2GhgYvPHDgwHOdNCbu//QDpcYTpBxRUa8Vjv7sNTaeKFfbSB5KWLaaByT+7k/I+BMxlbjVFGf0K8dlODqPHb3zdgHHTnoQgq518tzkDbbpfNKyrBHKTvNJGBzsPMT82Wv/637g8W51mOosB0l/zJGOUa1yDIMjxhsp5jg8fODi/fv3P9NJY+LTDzz4Y2AwjMqRwgx8zDFKOVbjVvNuc5BiDMpWVwtHfm59sIu93JWHhyTvVtu2LeDYSQ9B1LVOzsx8UNfzf+jYzl5/kgZbpXnxRZxxg3O5vd8BHAAVC8zxP8W1bgD7SRZ/l1euW10tHN0YE3ZcC8iKVwpHy/ZKdyqB49DQ4EWDg4PPRtmqnV7/zAOffQUADqyGo9d4gjLK/jpHmvYX1G1n5barY45h9Y2VwpEAiPeBV47+0h3/33xChtxsPiFDytG27MePHr1d9HNsp4Fe67UsLCycVygU/l7X9Z+nY6FbVOoHyWSQnDh4zSUVYIoFoOgAklks2lFAggRIDBGKhQoOyNzk6iDIRcUi/XAsXWMRwPg3fuq7IHWnf3klGfQ7PQRuuU6xj5/X4BbLeTAJkSv2ezRhz57Bi0dHO0s5PvDgQ6cAYJC68VDMEW2FU1GDZsDwQOTh6a9z9PZdXQRO++C9J8iGzYrh6xzpHtP9xb/5wv9yLvZyzNGbEcOPCw+KXt/Popp8/I7b3y3gWCtQ2nH/ycnJb+i6fh21OsNu49jAwkWeg8133c67IMk2OKoBTPL6hkkSOtFxACaDjNuzZTiWS+QEZbBL7nOxGGzVNnWCo67nXUhiv8xOdKsf/Ow/BMIRIeFBcGUzW3/GOgqO/oRMudpGij/ysW9/PS6fqV4rHP0xRzwmwpHccMu2vnrHbe++tdHPtqhzbLSFG3D8qampX1paWrofVA0nILpKEQWkChIoCDyQQC0u2eBIzHWzEaQONtWVcUaN54bjdh5Ul4eBH5JRypEA7cGXG05MLhW0owpYq3JEOLpK0oNjx7nVn33o4Z8AwH4q4UFbeDFHcqu9mS9BPRz5RAufiQ5yq8sVfuN95V1qPs5IwORjzbxy9KvFSmse/coRr5/2/Vk98Nduv+3dtzTg0VpxSAHHRlu4Acc/e/bs5QsLC9+TY3GwXZWIcJRBxQ4/sgWSqwixqYUGkhwHjCyiC81kBpJMMUjMVC+DMQyKYZnuapQjuVbkYlfjVmMPTHcKoWHAoUNjB/fu7awi8Ice+txPQFoJR6/ZLbrVGHOMhmNQHSMBEpUjP2WQT8T4oeh3rf3JGMpWh9U5+sEYHHP0XGfetcbtVsDRtJ647bZbbm7AoyXg2GijNvr4U1NTF8zNzZ2WFIi5yWosx0DdKDFwZNNThthdnMUApBRIEHNPSQUbVMly44yKg9tL4MiSu0xDNXBcoRCLXcyrVY4EyqiYI9a1uSUsug4XXXT4wMDAACqpjvn6h4c//ypjbB/FGpfrHFcrR14p8n0YSVny2Wiqf4yCIx6HhyQB0T+nmqoi/G61f+pgJcrRD0f8m9xqz+U2n3z3rbfc1OhBIJRjoy3coOO/+uqr3zeMwhFV85pPyMWFvjC+yGRclwYzyThduxuAYRZbAlVyQAXTc7/tGDB0tRVWFziWizkGudWVwhH79+HCUuhWX3TR4W19fX2zDTJpUx724c99YQUcERJhyjHIjfb/zx+D9CdkeICWS8jwqpFASaGTMLe6EuVIcUU+QYNAxA8F/CrGI5+69Zabrm/0DRNwbLSFG3T8mZmZ/7SwsPBZxmzPtZJi4DrJMkIRlSACEjtForONQhIhig625SZuZDcxI4Hkrm2zup8knXakooxQjrg/Zat5t7pSOKJyRBgwx7FvuumGpCS5qfeO+frc5//pDQA2EKUceXXo/z1IOS5ntJez1f4Snmrd6krhSAAspyKD4EjQNU1TwLFjnoA1XuiZM29+LJ9b+qiK9Y1yDGQJXSCsb8SEtKcILQchuew6YyxScQt5NHC97+KSsuQWl0vI4GurstohcKSZMfWAI4JBApi64Ybrdq7RVC272+e/gHCEquHoV4x8Sc7KjHYwHINKd6JijmRkf1ceglols2XKKUcuVv2NW26+8YZG31ShHBtt4QYfPzf/xi+eeuWlh3fu3A35ggHxZA+ApEHeNN01s6WYAtlCHizbcdfP7u7aDGZBBxXX3FYUcGyzFJDn4ccrx3L/D10crFjK4y8C9quF0loy7prFy12fcRVH/Dufz7rnuTA//50777z9qgabs+kO/4V//OJpxlg/fkBQEw78iXajUh4+4RI0FTDM3faU4so6R38pT1R9YzXZarr3UcrRrxr5Dj0uIB3n6zfccN2Njb5ZAo6NtnCDj8/YK/F7/uaTBdvMYUwOtp+/A+KJbjh/+04oGCbYEkCmYIDpxCGZOO+JTNZhsVjqUk1VtuEyDZjlpgJsPFV6kPxZ6rC/o+AYpBr8WUp6/yA4YrYaHxZZkj5x7bXv+O0Gm7PpDv+P//SlusKRjznycOQz1pWqRnK7/R+eQcoxbKYM/39/IThX9L1iaV/btp+48YbrRLa66UZrE57Qpz/1qz+YnXzh5/p2dMP2rV2g2jZMvjUFesGCnb374KVTk7Br32Wnjv/iB45I5x1ZWJxZHJ7Lzf+BZTvvUxUpxgfXefead6ErgSPtW/TrS5YKc6tKRb3F2TF+OHqzaAzIZrMw0N97/ejo6FNNaP6GntI/ffHLpwFghXL0Gk94ReB8KQ9fhuOvW/T/vexmryzl4ZUjDz86dli2mgBJH3wUfyT48arRn8Gmv+lnmHKkY1mWJeDY0FHXRgefOf2l3U89dv+4o09f07e9Z5Nk5GB+Zm4pPbuU7t68w966fej/XXr18Q/1jN21ItM7MzN3bS63+L8A4Ih/0BPQ+HncQa429nMMjFcW3Wq+tCPoAaF6Nn4uLU0f9DKTBmQyGfPiiw5v3blzZ7aNbltFl/LFL32lFHP0u9VU5+h3q4PqFvnSHtreU4ir4RilHIMy1eVKefz3vVzWmj4geWCSW83B8Ws3XP8uUQRe0QgSG7kWOPfmw72zb/30RpmxkbnZuSVF7Xr20pv/4BGJpsSE2CmdTv9GNpv9E9M0d/BuNQ7iSuAYqDBD4Mg/GHzwPQyOOEOGOc63rr32He/qxNv8pS//82sAsNcfc+SVY1CRNz+P2h+HDINjNfFGflxUUspTjXLkwcgXg5eUpWN/7fp3XSvg2IkPxEZcM2MsNj09/UeFQuG/27bdRQ9UOTfbnRHhm1tdcr+5udX8g8G72LwbRQ0p8GHglSPGHLdu2foLhw+PfWEj7LLR7/mVrzxyigEMEhzRTkFudVAihoegP1u97GYvK0e+xpEv8g5LyvAKkg+78DHHqJhzVAY7CI6WZT95/XXvFEXgGz04O+39M5nMBYuLix+3bftXccDj4KV4kl8hEhzLKUeKPfHutT/mRBlrUpI8HBlzzrztisv2dVp9I427f37ksVOMsUG0Ce9WV6oc/XFIAt2ym+1lq8upRr7e0R9+4ceGOx4Yc8dM2H33ew5hcKQppyFw/PZ173rHOxv9bIpsdaMt3KLHT6fTh5eWlj4JAO4gpJgSgZD+9hpZBNQ/Us9IX3foICVB2eqVcLS85gqq+ieXXnrJ/2xRM9Z82o88+ngkHMPKd3jFF5Sg8ZfyRMUa6XW/YuQB6Y8x+z8UK4Uj71XwCRrc3zTN71/3rndeUbNxIw4g4NhoC7f48aempo6bpvkXhmEMkbrgYYhzbviHhhQDf9lBD0wpi+lYpZXmcB/8P+dCvnHllVeOSJKkt7gZ13z6jz766MsAMETKET9IaCkJVH9u0xG3L6P37S/J4f/HK0R++6hYY5By5IFYLuZYzq0OAiUPRX/Jl5egs0AC6Zlrrrnq4jUbtcIdBRwrNFSnbzYzM/P+QqHw547j9FMc0lWPklJSjjiY+dfwdb6Uwx9vxL8lWNmFBeNp+ADgg59MJu8YHh5+pJNt//jjj/8YAIb5mGO94cjDL0o9BmWqV3xYFhsZ01jww7Fa5eiHZXEq6svXvP2qkUaPCwHHRlu4jY7PGJOmpqY+nMvl/ggAtrudXdRYqb0UPljUup9iRQi5KOWIQMQv3BY78OB3T0/Px0ZGRv64jcy3pkt54oknXnIcZ6Ra5ehXkH51SDFHgh0pTB6OfJ2j//98trpat3otmWuKQRbh+Orbr75ycE0GrWInAccqjCU29SyAme2ZmZn/ls1mf9+y2WZcPhahiF8UHyK3je/Iw7vcJWA6npuIDz99xWKxTwwPD3fcbJig8fXEE0+UlKOXqIp2q3kQBrnVfBabIBcGR7+SDIs3Ugya/yCk++2vVvAnYYJgGVQYTjFpxthrV1/1tv2Nfh4FHBtt4TY+fjqd3lwoGL9v2faHbNvuwcHLz6Tww5B/WOghArerkOyqxVwuB6lUSihGbsw8+eSTuBTtoSDl6H4guU1HcI70csyxHBxJDfLbh7nVfGaaIMorRr96pNMuV8pTaQwyCI54fE85Sq9c+bYjw41+tAQcG23hDjj+7OxsTzavf9gyzQ/LsnyB29Ci2EQCVWU5t9o0Cq6FZFmeSiaTvzswMPDZDjBZxZf41FNPfc9xnMsJjqjEy8Uc/aDzK8dK4egv2eGTbkHqMUw5hsWcgyBZruaRPLYACl4AAAKnSURBVJCie/302644cknFRlzjhgKOazSc2G21BRhj8cnJ6ffquv5Lsiy/U1XVGMWK/AH6knIEZ85xnIdSqdRHd+/efU7YdaUFnnrqqS8DwJ28cqSV+Lwu3Ssz1XxGulwWOkw5hkGxnGKsJlsdphzLudYUqqGwDWPOly6//MjxRo8VAcdGW7hDj59OpwcymcxVjsMuA4DdADJ211UB/WiQDMacScakf+/uTj62Y8eOTIeaKfKyv/Wtb/3Gz2JsHzBNc6TYqswyDMNxHIdpmmZLkmLLsswURcFvWZZlqQhIJsuyLcuKoyi4DTBZxm1kJkmSrSiqpSiq7a6UISuOLEsWHkeWZQdflyT8XWKqqjDANsqy5CCIvdckS1GwvEoqSBLkZVnJSRJkJUnWbdvG11XHcTRJkmTHcRTGmGLbLMYY0/AbwJEYYzJ+42XYto3jAhyHSYzZmuOA4jiOypijWZYdY8xJ2raTApxI6jiv2zb7qyuuuPTrkcarcQMBxxoNKHYXFhAWaE8LCDi2530VVyUsICxQowUEHGs0oNhdWEBYoD0tIODYnvdVXJWwgLBAjRYQcKzRgGJ3YQFhgfa0gIBje95XcVXCAsICNVpAwLFGA4rdhQWEBdrTAgKO7XlfxVUJCwgL1GgBAccaDSh2FxYQFmhPCwg4tud9FVclLCAsUKMFBBxrNKDYXVhAWKA9LSDg2J73VVyVsICwQI0WEHCs0YBid2EBYYH2tICAY3veV3FVwgLCAjVaQMCxRgOK3YUFhAXa0wICju15X8VVCQsIC9RoAQHHGg0odhcWEBZoTwsIOLbnfRVXJSwgLFCjBQQcazSg2F1YQFigPS0g4Nie91VclbCAsECNFhBwrNGAYndhAWGB9rSAgGN73ldxVcICwgI1WuD/AwKerq0KuoFJAAAAAElFTkSuQmCC;" vertex="1" parent="1">
          <mxGeometry x="513.54" y="530" width="121.46" height="130" as="geometry" />
        </mxCell>
        <mxCell id="m2H0JOLHWEN70MxN9WDA-2305" value="" style="shape=image;imageAspect=0;aspect=fixed;verticalLabelPosition=bottom;verticalAlign=top;image=data:image/png,iVBORw0KGgoAAAANSUhEUgAAAUcAAAFeCAYAAAAWkN04AAAAAXNSR0IArs4c6QAAIABJREFUeF7svQeYZFd55n9udY7T07knB40mKaMAkkAiCIQkGM0oEswaex3Wi1nbC9hrFsOzBkz4e9dpd21WgyRsZIIxYEBGsgJIKEtoRhIzjKTJOXR1T0/nrqr79+/cemvO1FR1VYeqTreep5+qvvfcc8/9zjnvfb9wvuOZ8BNKIJRAKIFQAmdJwAtlEkoglEAogVACZ0sgBMdwVIQSCCUQSiCDBEJwDIdFKIFQAqEEQnAMx0AogVACoQTyk0DIHPOTU1gqlEAogTkmgRAc51iHh48bSiCUQH4SCMExPzmFpUIJhBKYYxIIwXGOdXj4uKEEQgnkJ4EQHPOTU1gqlEAogTkmgRAc51iHh48bSiCUQH4SCMExPzmFpUIJhBKYYxIIwXGOdXj4uKEEQgnkJ4EQHPOTU1gqlEAogTkmgRAc51iHh48bSiCUQH4SCMExPzmFpUIJhBKYYxIIwXGOdXj4uKEEQgnkJ4FpD46+71f09/c3RiKRSmNMfHh4uLe+vr7L8zw/v0cMS4USCCUQSmDsEpiW4NjX13dpf3//+2Kx2DtisdiiRCIxPx6Pe4lEgicc9Dyvs7S0dJ/neU9VVFQ84Pv+E+3t7X1jf/zwilACoQRCCWSWwLQCx/7+/qv6+vq+ODQ0dFUsFrMtLi0ttd++79s/AJI//c+5kpKSroqKim9UV1f/fw0NDbvCzg4lEEoglMBEJTBtwPHkyZOf7uvr+8zIyIjxPM+CYklJiRkcHLT/6y8dIDkej8ftXyQSMVVVVV+rq6v73/PmzXt2osIJrw8lEEpg7kpgWoBjd3f3lwcGBj4GWwQQ+RMIul3DMbFIHQcUVZbfsEqAtaKi4qcVFRWfbmlp+enc7d7wyUMJhBIYrwSmHByj0ejHY7HYlwA2WCDsjw8MErAsKyuz/6er0qfB0bdgyrWU4Rqp5BwrLy97tKam+k9bWloeHa+QwutCCYQSmHsSmFJwHB4evjAajW5JV5lhgoAkfwK6TAwyYJEBKIpVUpeYpPtdVlb6UG1tzR83Nzc/N/e6OXziUAKhBMYqgSkFx+PHj7/g+/4l6aqyHsJVo/XbPRccC5im66Bx/9dxqd8lJaXfra+v+VxLS8sLYxVWWD6UQCiBuSOBKQPH3t7eX+3v779bTM9lfi64pZ/PBI6jAaNbVzIUyKrh5eVl/1haWvKptra2nXOnu8MnDSUQSiBfCUwZOEaj0V/EYrF1Ar/0BqerydmYo28iWVkjdQoQBZKuCu77fqy8rOQvWltb/6q6unp/vkILy4USCCUw+yUwJeDY09Nz5cDAwBNyvrhqNWCZSc0eCzimq9lilm4dKbbpx7Fr9lVUVHxx6dKlf+55Xv/s7/bwCUMJhBLIJYEpAceTJ0/+74GBgd/BE52uEtPgdDaZqUzKHplkjumAqvMAsEJ8MoFjPDZsQ39glPF4/HhNTc2fLliwYHMIkrmGTng+lMDslsCUgGNXV9eukZGR5QIlAZtYo2tXzMQi3WNSq91uSo+HzGaTBBBLIkHYkMKI+B2Pxw/W1tb+8aJFi742u7s/fLpQAqEEskmg6ODY39+/cGBg4ACAlUmFznQsXaV2wdMFx/Q60wPJ3bpTAJoIlinCLgkbooyC0OPx+KuNjY1/0tTU9M1wCIUSCCUwtyRQdHDs6el5z/Dw8L+g7sLc0lVolz0K7EYDx4Sf20bp2hzT6/KMVaetek+b+IY98q3li9XV1dtgks3Nzd+fW8MjfNpQAnNXAkUHx2g0+tl/XwDzSYBRYDSa+LMBY7rqfZbNMS3+MZNDh2vSvNdn2EAFmMPDwxZAKyoqnq2vm/fJ5uaGh+bukAmfPJTA3JBA0cGxs7PzXz3Pu16sMZeYc4HjGfbH5NpreywJjjo/Gjiml3FtlC67Re3mXHlF+Q8a6us+PX/+/BdztT88H0oglMDMlEBRwdH3/dJoNLrHGLNQgJTuhBmrGNOdLylGmQMcRwNEFxy15ptjgCP/8ykvLzflZaX/p7Ky4vPNzc0Hx9rusHwogVAC01sCRQXHnp6eppGRkWO+70dcm+NERJQenuOCo2vPFOCl2zRzebbd/JHuGnBUbWyTlRVl/eSRLCkp+XJra2vvRJ4lvDaUQCiB6SOBooLjwMDA8v7+/l1ydsDE3EBwVyzZgsGzie4stTkP5phJJU8P+3HVas7JecO1to1+kEvSGHOyurr6Sx0dHV/2PG9k+nRx2JJQAqEExiOBooJjb2/vRUNDQy8CMsQ4wrwygeNYVO2snuwMCSncUJ9MwJiuavN/+vJD17Nt06TFbVyk/QtSpJUfqaqq+qPW1tZ7x9Mh4TWhBEIJTA8JFBUcu7u7r0skEg8COKyOQTVNB8exAKMrwrNA0iuxp9OZYLrY08+nq9luHkmp1dQh+6Nv4ql8km4YUHVV1c8qayo/09zQ/PD06OqwFaEEQgmMRQLFBsfbEonEtwAcHBpDQ0OTBo4uE7S2xixqdTr4pjNDtx73d3rIj9RqL3LaUSPwFJMELCsqK35YX1P33xobG18ZS8eEZUMJhBKYWgkUFRy7uro+bIz5aibnSDYxpKvCAqVMDPAMJmkiqQDzbKq3sofrukye73TwzObAcRmoW0amg8qqyrvqahr/rKGhMtwAbGrHfHj3UAJ5SaDY4PhRY8xfjgUcMz1FJtV7NLU6nQ26AJsJEN26cjFLndczZVLTZacsLS2NV1RW/FXE+J8Kt5LNa3yGhUIJTJkEigqO7Bfjed6XJgKO2WySLqC5anU21ngGy3SDx53fLqhmA1H3uAuQbv1SswWk5eXlJ2qqa/57S0vj301Zz4c3DiUQSmBUCRQbHD/ped5nCwGOArJUCFCazTEbA3XBM9vvTCCp+tKZYzpLlRdbKjyOHIUHlZREttTV1ny8ubk5XI4YTtRQAtNMAkUFx87Ozs9EIpFP5wLH9EDtbHbG0WH/tLd6tHKjAWI60GUqm84c069JB890x05sZIi9tr/V0NDw6fr6+l9Os/ERNieUwJyVQFHBMRqN/pnneX80GjiON5TH7cF0b/VoNkfXpqg60lXx0f7PBY46r5U2AnqOwyrJJ4nX3vf9kbq6ui90dHR8IUy0O2fnY/jg00gCRQXHrq6uPzfG/EGxwDFTRvF0FjoWIMwEspm8127/ugk2XNao/JFlpaczlXNdSUnJsaqqqo+3tbWFiXan0UQJmzL3JFBUcIxGo3/ted5HCgmOKebpBIHn6tbRnDb5qt3pXmrXJimQdlfXcN6CZSLI9MMf/2uf7oqKiperqqo+0tra+liu9ofnQwmEEph8CRQbHP/O87zfFBhkyuc4UbU6k0MmX7EJCDPZPLOCpJew1WfyZgsA08+7QOp6uDP9LikpvXf+vHl/2tDQEG4hm29HhuVCCUyCBIoKjp2dnXdHIpFfna7gmEmeOdVuE6Qwy8Y+swGhrkkHxEzHI5HIcEVF+Wc62mxSi2Bfh/ATSiCUQEElUFRwjEaj/+B53gdmEji60s8EgKytzsYaM12bizWmg6ObMq2srOxAdWXV77e2tv5TQUdFWHkogVACptjg+A3P8+6YDHDMlNLsDHXYiXMcrZ+zpUbLN2Vawj9N5PKxXabbJvNhjoqRZCkiYFlRUfFE7byaP2ie1/xsOIZDCYQSKIwEigqOnZ2d34lEIpsmAo752iTdxBOZRJdeTzqw5bMSx7K8pFqdS7V2z2fycOdSv10GSV02yUXE+2prU8t/r6mpOVyY4RHWGkpg7kqgqOAYjUa/73nee6caHPMF2HyGhcBxNJuj6kkHwPTj6U4fl1VmCia3m5QZr7+mpua/t7e3/6982huWCSUQSiA/CRQbHO/3PO/d4wXHsYBaNuY4ljryEqGXGLPNMZ1lZgLNTOo3YKg9bPD08zfQ12+/y8rKtlZUVHysra0tXIqYV8eFhUIJjC6BooJjV1fXg8aY6yYLHNODvN1HzRccR6tjtHOpe6WF8gj4MoUDZVKtdSybqs15N3jcjZm0SYNLSi1gamfEioqKb9fU1HyssbFxXzj4QwmEEhi/BIoKjtFo9BHP8946XnCUrW20x80n8YQLXJkAcCzsMptaPVqsZLr67KrX6QCayxZpEkHwuD7JQPPh6urqz7W3t7MUcXj8wyO8MpTA3JVAscHxMc/z3jwbwdEFtVzOnEwscTRW6bLL9Gs9/0xmqVU2tKG0tHRnTU3Nf25qanpg7g7x8MlDCYxPAsUGxyc9z3tTscEx3cZXCOaYTfzpIUHZgDETOKY7eVwHjQuY6csStb+NQoCqqqq/1lBf/4na2tqj4xsm4VWhBOaeBIoKjl1dXc8YYy6fSnBMZ3UTVatNBptjNvU/U7B4JhU7U7nRbJOAoxJc6Hn0P5uYWa92JNJTU1P7Rx1tbf937g3z8IlDCYxdAkUFx2g0+oLneZdMBThmEk2uAPC8xJkEx1xls9kZ3esyeah13gVMty6xQ9kd03dLpKzr5S4tLXu4pqrqj5ubwwDyXH0Wnp/bEig2OG7xPO/CmQ6OZ7BPJ5QnfSils9JMADlRtTsTYxRACjhdNqnM5FVVlX9b4pV8vLW1tXduT4Hw6UMJZJZAscHxZc/zzpsO4Jgt1CabSuyKLx0c022a6XVkChDXsWwAOpoK7taHfdGulvGCrky3S8oeqTKc11YNxpjuxob5H50/f/7fhxMklEAogTMlUGxw/IXneetmMjie5Yl21GoX8EYbaKOB5VjCfLiH0r6lLy8UUHJeAMkxleM5FEReU1PzYH19/e/V1dVtDydIKIFQAoEEig2Ov/Q8b/VUg+NY4hhTA8UBQV2fyZmj8tnsmek2xtH+T2ek6TGP7vlsXvBsG4CpvGuPrK6u+nR7a/tnPS9PQ2o4i2aFBHzfLzl16lTD0NBQcywWa+8fHFkxPDy0it8mEa9KmEi5BQvfT5iIN1ISifR7kUi0xPP2lldVvF5ZVra/pqbmaF1d3cnZlFKvqODY2dn5aiQSWRWC4+k5lSlcJxtg5qNqp5dxA8QzhQIJYGWnLCkp2V9VUfkrLS0tP50VMz98iLMk0N3dveLkyd43Dw4O3jYwOHCp7/uNxpgymV7cl75+u2PHNeNESgJTTnL74ZFIJNJVWVW5o7am5uGqiqp/aWlpecXzvJGZ2A1FBcdoNPq653krZws4jtbh+TDHdGao+vJRu7OBajYGme7t1v/YH0tKSqzNkt+kRUPdrqqp/tvq8spPzps3LzoTB3bY5tMSOHbsWO3AwPDGvr6+34zFRgDDSs3BsvLylJ0600s50zh2QZRQsdLSUvvHcXePdu7B2DLG21FRXvb9+vraexYsWDBjTDfFBsednuetmAngeJbDJoNanQ845lKbx6Jm57JHjqZm65yrmnPMdehwzg0F+vfN0Hpqqqr/U0tLy30h2Mw8CRw+fPyanp7uT8ZisbePjIxEeAJefAFgBYwvFo+n1ubzYtQCAq3VB/zcD9fLXs3xqqqqFDhSL3+6B9/UCXDyO1nnrsrq6v/T3tJ093R/8RYbHHd5nrd8OoNjVntkMmQnX3vlaOUyMcPRWGM6w8wEkqOp3Omg6V7vvu05ziDmI1skyxNLSkoeqK+v/8i8efNen3kQMbdafPLkycbOzq7f7+k59duRiNesPlW/wuwGBwdNf3+/Afh6Tp1Kbe6W9mK0x3Vd+pjV+AYM3W2HAcLq6mpTW1trKisrTU1NTWrtv0A1FVrmJx5oaWv97ILW1p9Nx14KwTGtV0YDx7F0YL4gmg0UswHoWNXpsbDJTKo34Ch2WV1d/anW1tbPjkUOYdniSMD3/Yq9e/d/tru7+/fZ4ReQ0od90fv6+sypU6dSoCggTPh+RmaYSaPJNCbdONv0J2UOcB6gnD9/vv0uKytLMU9FUtTUVj3fUD/vY9PNzh2Co9OjowLaGB24YwXHdHaYPtCygWI6uGazOWYCSY4BfMoN6TJGOXJKIyWWQcAyKFtRUbG7oaHhP9bV1T1SnGkf3iWXBA4dOvKbR48d+1IikZhXXl6esh/TX4cOHbJ9B1vUUlKXwRkTOcvm6DpfxBzd8ZxucnIdNOkvWJilQskqKipMfX29aWhosEBZXl5q25XMRwrjfGRefS3OwEO5nrkY50NwHAUczzBGjxMcRwv3ydTB41G5R2OHudRtBqZU6HR7pK03njhj3bZsUlVVVfdWVlb+3vz587uLMVDDe5wtgf7+/oWvv777B8YzF+ssfdnb22uOHj1qotGotQG6a+/lfFOfRyKnGWY6yLlqdbaXdy7Ho1uHnDWwR9Rt1O9ly5ZYcFRO0rKyst6GxoaPLV206O+mus9DcMzQAxlZ3zjBcawdPBo4jsYuR1O3R7NRuuDtMobUNQn/DGah40lm2QNAtra23j3W5wzLT0wCnZ2dVx46dOTHCd+rk/oqUDxx4oQFG1ikMsdP7G6Fu7qsrMQsWrTINDY2opUECxMGBkxtTe0316xZdWfh7py75mKD44zwVk8lOI5VvXa7OJc9Mr1uyqe/+dMBEptjJtB0Wea/JzD+aXV19UcaGxtfyT3kwhITlcDBg0fe193ddR9qcklpufUIHz9+3Ozfv9/aFHGECGRc2+NE71uI6z0viJFE1V64cKGpq6uzdkm78suYFxd2tF3b1NTUU4h756ozBMdpxhzVnMlikJnqG83Z44KeLZeBObpgqUQWDOaKioo/aW5u/rznefFcAy88Pz4J7N9/8CM9PT1/bdlVba2Jdp00u3btsmq0QAU7Hh/Op4fijO+uhb+KcURY0JIli8yCBQts+A+OpLq6utfb21re9O/REicK34oz71BscJwRQeBjYY7ZbIrjcchk6vzxgOR47JZZHTkOOGbyZnMMOxa2yGRA8K758+d/uK6u7rFiD+bZfr8jR47cdPDg4R/YIP2qKnPs2DHz6ms7TU9Pj5U9jBFQgUkCNoClu0JqOsqHsUN7T9tGY2bZsmVm5cqVtv0AZE11zbY1a1ZdXOwtP4oNjq95nneOmIeSJridlgtU8j0/2r7V+dZxxmDKYnPMZpDOdY+xDtRcIJlNHc90XS7wdEEwXa3WfVyG6e6IKKN7RUXF/2xvb/+U53n9Y33WsPzZEujr6+vYs2ffnng8Xg6QAIyvvPKK6esftLY6xptYIqDCR6tXprM8h2Ij1jkDCALkVeUV9ndT03xzySWX2OcC8Curyr51zopz7ijmsxQVHGfK2uqxMsdMqutkg+N41e3RVOhsAy0bOLoAnJ5cl3PyfMMik/8fqK6ufn9jY+PjxRzUs/FeO3a8+lQ8nngjz9bV1WVeeOEFG7tYVl55xna99J1eVoBKPi/VKZVXSbByhvkCyJt4wob3VFaWm9bWVnPhhRfa5rGRXUdb+7XFjIUsKjh2dXXtMMacOxuZYzp4TQY4jhYGpEGfqcxY2aI7OdI92xHjnZUj0rU5cq28pahHetMDnjAX/q+qqvpyS0vLJ6Z0Es7gmx8+fPjd3d099+NsQfYAIw4Y1OjBoWB5Hh+BopYHKoZ19EefCAQogPz07pdjE3PEjCTipqKc5xiw6nVddU2S9Q5atfqCCy4wbW1tpqLSsuFd568/b+XY7jH+0hORzJjvGo1GZ0TKsrEwx3TTgAtaYxaQc0Gu+DGxuGzl8mUMuZilC466pwuOPD8gyDGpcwxywNENAI5EIltramo2NjQ07J6IXObitTt2vPaz/v7+q5Dv9u3bzZ49eyy7svJNBIxdLyi3P/OLsZ0IBEwcHL2SUsscS8uSyU+Ghu3zlJYG67KxrV599dWmsioIbl/Q3nFNa2trUezZE5HMmMdpNBrd7nnempnOHAVIow2+fMBtzALM44JcoJh+Pld5vNXprNi9RmzFBcwz1HIvSHKQBMy+mpraO1taGn+Yx6OERYLkEFXbtu/o52WDLe7BBx9MBXUHAgrWws/cTzoEnbmc0ZiEOf/8820sJEHjdfW1P1y6ePF7ivG8xQbHbZ7nrQ3BsXBdmwvsxgqOcsikA2QmFpl+LPg/2MLBTapbVVXxu83NzX9TOCnMnpr37z987bHjRx9FdSZc5+mnnz4DHL3ky2fmPvHo4EgeFEKSrr/++uT2HiPRSy6+pKkYz1tscJwW2yTksgfmUqvHwhwzgUqhOzYXQArE0tuR6TrAMdszuB7rbMxRa3d1T3kla2pq/qStreVPCy2LmV7/rl17Pn6yp+dLgOPzzz9vXnvtNW21mwzgn/3MERPCHXfcYR02I7Eh84aLL2n2PK+z0H1bbHAkK/D6ucQc8wGgQnRyPgCZDSTd49gcc5Vz1eh0Zw3gqNyAWkOLjZLf5eXln+7oaPsfhXj+2VLnL199/S+GBgf/C/ZFVOojR47YR1NCiNmuVicSQTJm7I5LliyxXuuWpubzOjo6flHoPg7BMYOEC8Ecpwok82Wu2cDUZY6ZniEdGF3VWmq1m+8P2SrJAN/19bWhij3KLH/6meeeLi8vvwKAeOihhyw4anwiPzdxRKHBojD1j65W+36wRvyqq66ydsd4YsT09fY99Oarr76uMO05XWuxwXFabM06FWp1to7Ml+FN1kDI535neDzT7eNpDRmNNXIukfSm8lsMkioAzCDDzwjrau9oamr61mQ942yq5/HHn3i5ft6885DXc889ZwO/lVk7YOlFncIFEG1uhwyaBmo16c5gjgcOHHjtphtuPLcAjTmjyqJKNhqNzjlwzOW1zgesCjEI8r0vKcv45HqhZLM5uuCo1TNil0z4wcF+bElD9fX16xsaGnYW4llncp0PPfyTvR0d7Uvw9pNY4sc//nFqKwIx85n8fLnbnrAraDZu3GjjOhmH+/bu23fDDe9amvvaiZUIwbHAarULKpkAKV+Qmlg3Z746n3sLHLMBpAv+mQAScHQdN9TjbsJEqAYTv7y8/JeLFi06fzZt7TkZffatb3/n+LnnnosDwsrpvvvuS5klgljSYKng7P0kzKWXXmqDwYnzJOHGgf0HDm7atGFRoZ95RoFjLvbiTuBsa6vHUseZHPv0KoBc3up87jFax44GWunnJnqv9HacdW8nznG0Nqe/BE4vLzw75ZlskIFqHQSQY1fq7e3dvHr16v9Y6EE/k+r/ylc2n7zs8svqlYThiSeeMK+//roFSr10ULO1XQG/nazt0z7xBDbT5MvRPo+SUGgpKi/P973vfZY9IgNWBkW7ug7ddsvGhYXux2KD40ue550/Xm91PkCQYjJZgmPHUsd0BEeppGpbPs8zlkF0Fvgm8znmqiMdHE+zyNPLD90NnJQ6H28kZZUkobKy8ub29vbv57rfXDn/lbu+evKclSvr582bZ1eLsA/M17/+dRsQLplrLTsyQcba/S8fzWCq5YhmIScd4BfYqRMWCBkTV199pU1AocxPxHr29PQcvu3WTQsK3fYQHAugVk8mYOVikZN5L4kim0NmtLZkAsdgso7OHPFGMhlYN8wKiH/fW/nQmjVrloQ5IYPeuGvz3SfLy8vrzzvvPKtOkwx29+7d5p/+6Z+CJZtOcgn6wN1lMPBmT+84yEhJsOEWz6LcoIA9mgR5HW+44Xo7Lhgj3d3dprPThjfuv3nDe5bMNnDc6nneBSFzzL9bp+rtr/tmCuXJ1KZ0kFaZbODoMkftS4NU+F1dXf2Hixcv/lL+Upq9Je+59+9P9vb21re3t5s1a9bYlwgskuQTjzzyiBlJJveQSUlAw/+o2NN9m4Sh4VgqZRkqNR5ptnsgI8+dd95pamqqrKoNU2b7BzIRVVdX77npxncvL3SvF5s5huA4gR6dEqDM0+aY7bHSwdG1Nwa/CecJ2COTIGl0729vb1/Q2Nh4cgLimhWX3n3P13pjsVgNoAh77OjosE4JmNXWrVvNIw8/bNkhKigAgvzw6iJT/leGnukqjFgyA7hsjbR5xYoV5oYbbrCgWVpabp8XwAQYWS1TWlq68+YNN55T6GcqNjhu8TzvwpA5TqxbiwmS6Wur82m5yyJzgSNqNc/DoNdz8buhoeF/LVq06A/yud9sLvP/Nt/d7xlTBaMGHMhvCEAq0/fePXvMd7/7XeuogG1hkwRgtEVCIcwukynv0rIyy4aV8Paiiy4y73znO+0tgqxOvn0m/vjw3P19/a/deectsy7OMQTHPEZWrvCfTLbBPKodV5HR1lZnqtBtO78Fjq4zRkkoAg9r4KHkDwaktdeRSGSora2to6GhoWtcDZ8lF23+6j0DsVisElCAQSEfstTArniJVJSX2y1YH3vsMbNly5Yz9pHBgTPd1epEcpsN+v6tb32rdb7wkqTtPF9f34B9Kbh74fT39++44/ZNawrdxcVmji96nndRyBxH79Z8wZFaCs0i022Oue7nhjnRvmzMUTZHQjUY/NpGVPufAJy1tbX/dcmSJf+z0JNgOtd/1+a7B0pLSytxRiBbGBSgAcNavXq1iSTjHwGXHTt22PXXOC1gYsh1uqvV8UTCXHzxxeYtb3mL3Z5V44fnZKwBjnLUwDB5nkQ8/subb75pbaH7bVqBYy4VINd5GaUtaMzgUJ6JdHou8Bpr3aOtrXbryhZ/qeVtCtHQt+yMMAc3KFysEjUyFosdufCC8zrG2ubZVP6ee/++f2hoqGpoKNg0C/aYdEpY9fqiiy6wjhd5ePl+5plnzJNPPplSRSWPgMlj54WxewHQ8PZyPqlQOHaeTHv5ut5w9aPrDT8jysE7nbBEiY/dzb/wujc3N5sNGzZYIIcpBiE9wTJT2VA1NjjmxMVu27Rxw/pC93OxwfHnnuddnI055gK/XOdDcAyGy2QC5ETBUSnL1OeanHmCo1m0sOPKpqampwo9EaZr/V+9+96+RCJRDTiiUsOeAMdIpMTU1tbYMJfzz19vtxIAOAErwAamuW/fPvPUU0+Zw4cP231nACcBKc+bvjth+rjhf+1DI7NIupxc77gAV2E5CiWSVgDgNTU1WbspbJF9qmmz1ooH5pW4fQnwW4CoRCXTRe/gAAAgAElEQVQpcEz4v9i0acN5he6zEBwzSDgjCDu7D7qqYz5hLYXuxPT6pwIcXVA+U36RM/agccHRTqJEYjTmaCoryu9dvfrcXy22DKfL/b7y/zb3RSKRakADYESlDlbAxA3kjByH5eWlZunSpfZP648VNI1jhsDpl19+2dokDx06lAoUF3ilMz63/7QvEKCr7RhcJhqwvbgFMj7cV+UEkoDjqlWrbGYdbKVKOsJxyqiO4LkCZqsyribhMMeXN23ccEGh+ygEx1kIjqOpu2MdUPkyx3zBMV2tBhzdiaDJINtjPB7vvfiiC+o9PDdz8CNwHB4OvNViVPE4qnEgEOK8YYuoqg0NDTa11/z5821ZbXImdgbAksCCpLkHDx60AeVi8UFdwX406idt3qX/xSApwx/1oxIDdElTiI1VZO9p2rF+/XrbJspQluspy7XuKh+NAcwwAlXFv2Zgji9t2rQh2JawgJ8QHGc5OE4UKCcKSaTxl0rtTrBMarWOSa3SpFi8aEHRNlUq4FwbV9Wbv3pPn+/7Vq2Wtxr2mEiwHj2IadQSTNRkmCTfABQACUBJ/jRAoCZ2BkARQ4jHG0cO6je/UcsBY+7p9h/MkHsAdnwTnA7YEZhOKBF/gKEAUIDIdVLpuSe/MQnwLHxORzAEvxXB4AKlwxy3btq44aJxCXQMF4XgOIfA0WV3+Y6RyQZHDfaUeu2o1ZnAkXZWV1X+zapV5/xuvm2eTeWwOcbj8WqYI0ADmABmgCPAODw8ZBoa6q06C/DZvZ+TIIhKDcjguMH5IXWZMjBEzgmY5KRxc0XKkeLaiyVbV8V2dz9UH8p5o0QYHOc399aulKkX5Blj4LSDzh0PaQ6ZEBzTB3nokJn4tB+rPXIywFET0J1kqYGfAxyt6jY0vPvSSy9eMfGnn3k1EATuJxJV2BzlwYXNoVbDziIRz34L3GB0AivAU+osx2CTsDWBFL9RycUmMzFMbWnh2hLdOFV3a2LXm62XH22gfVrK6AJeOjgG9QbgKPVdqnUIjjKiZBnDIThOfHJPNji63srML7Mg8UE2b7XrkMnGHIl5u+rKN5Z4nuMVm7goZkQNBIEnEonKwcGANQJW/AGOAA5TBvBBlZY3GiATmHFM4MQDB3tCl6aCxSsrg2u157hCe1RG4T7qPzfUR1oA13IP/tx7a2wI4FRHOvi55hYcMm75uQSOL3ied0kYyjM952WmUA5tsDX+Fp8GR4GkyzwEju6EcEM5aBNgsHzZkjUtLS07xt+OmXnlXZvvHvJ9vxy1GsYo1Rq1GgArKQnALh0YASwBFd/63wXH4HyQySeoKwBVF+CU/kxgK691+rfLPsX6BHou+IlRpod0nWaRp5MhK8bxLIeM789KtToEx2k8RzOGJU3YRzwxcJQXs72t5QOLFy++bxqLryBNu2vzPSO+nygNwfGMIPAQHEObY0Hm26iVpgPkRG2O2jpU9WYK5REz4Fuq2umQlcD+VFNd+ddr1679aPElMrV3vGvz3XHf9yNTBY5ijCFzLPA4iEajIXMssIwnWn0xwdECYXIXwmxqtQDTT8Qev/TSS98y0eebadfftfnuhO/7XgiOs5w5dnZ2Ph+JRN4Q2hyn/xQVSLo2x7E6c4KnzKxWu6E8Ch7OxBy1nevw0MC+K6+8suA7zk23ngnBMVhOOOu91SE4Trepl7s9Y83Kc3aNYwdHgaW7QmJ4aGDgqquuqs7d4tlVYjqBo2Ip5aRRyJC+3ZU1bnRC6JDJY0yG4JiHkKZZkUKAoxsInkmtTgdHu9NeImauuOKKsrm2dWtucAxWnozPWx3J6a12bY7TBhwT/uxbPtjZ2flcJBK5NFSrpxkCjtKcyQJHhfHwrVAexgFp8t3lgvZYLGZXbyiUwwYie75paWmpWr58ebDebI58QnDMoFaH4Hj26A+DwIuPCPl6q0ezR3LODR524xxHkllYxBbdjCwAZCopRXyEzC7zmpqaeoovham7Y25wLGyc47T0VofgGILj1E3J03fOFxxdZjhau91QHhvgPRKE6mQDR7HHRHzELFmypGXBggUnpoNcitWGMJRnjjDHrq6uZ40xl4VqdbGm1sTvMxZwHA0gXWbprpIQc3STmyoryxlLx+IjZvny5W3t7e3HJv5UM6eGEBznDjg+Y4y5PATHmTM5JxscXS+mBcGkWj0aOFr1Oj5CotS5CI4x3/dLwjhHJ85xNqrV0Wj0ac/zrgjBcfaCYzb26K6QcUM7XJuju7mWG/socFy5cmV7W1vb0ZkjvYm39K7Nd4fgmB7nOEvB8SnP894YguPEJ02xahgrc3TbJUeM+lvAmS84CiwFjqtWrepobW09Uqxnnw73meq11aFDpkijIBqNPul53ptCcCySwCfhNhMBR91e/Z2+vjrdIZPOHF1wjMeGyWq9YNmyZYcn4bFmTBUhOM6RFTIhOM6YOZlqaCHA0U1p5Xqrs4GjTbUfeKsXLlmy5NDMk+L4W3zX5ruHfd8vC22OZ6yt3rJp44aLxy/V/K4s9jYJT3ied+VMZo5jibXMrwumd6nJBEep1QJHG8IT923At2Ifg0SuQXiPm5lnZHiQTZsWLV68+OD0ltjktm6q8zlOR7Xa+P6LGzduuGRyJX12bcUGx8c9z7s6BMdCd+vk1T+dwHH58uWLFy1adGDynm7613TX5rsHfd+vCJmjyxzNC5s2vvfSQvdescHxMc/z3hyCY6G7dfLqnw7gaJcTDg+alStXLlm4cOH+yXu66V/TXZvvtrsPhuB4hlr93KaNGy4vdO8VGxx/4nneNSE4FrpbJ6/+6QSOixYtWrZixYq9k/d007+muzbfc8r3E7UhOJ4Gx4TvP3PLxg1vLHTvFRUcOzs7H4pEIm8PwbHQ3Tp59U81OKY81sODZvHixcuXL1++Z/KebvrXdNfmu7t9358XgqPDHI3/9KabN7yp0L1XVHCMRqM/9jzvXSE4FrpbJ6/+6QCONiB8ZGiugmOX7/sNITi6anXiqU0bb75y8kZ55pqKDY4/9DzvxhAcC92tk1d/CI6TJ8vx1HTXV++O+gl/fgiOZ6jVT96yccNV45HnWK4pNjh+3/O894bgOJYumtqyhQZHNnG3qrPd0D1uBkcI5Rkh6WMQyjMcpMjn99Kli1cuXbp019RKpLh3D8ExUxD47GSO3/U87+bJBEff91K5At0YxGw7iuaKU8x6PrmffK7rmTr5lCnuFBv/3SYTHLVCxo1zTMR8YwEyPmyG4jETS4yYWGzYxGMx48fiZrh/2HheiYE5NTa3LV+7ds7ZHLOo1YnUXtPjzwSee9/q6Rjn6PuzEBw7Ozu/E4lENoXgOH6wKvaVhQZHM+KZkUQ8CY7DJpaIm+H4sEkMDxkTN8Yf8c1g36AZjifMoiUrlq5cuWBfsWUwlffL7pCZw+A4Gx0yXV1d/2SMuSUEx6mcbmO7d7HAEUDkbyQeMyOJEZMYHjEmnjCJ4YQZ6B0wMd+YlauWTXkQ+PHjx+uam5vjnuf1j02S4yt91+a7T/q+X3+2zXHuguOsDOXp6ur6tjHm1hAcxzdRpuKqQoNjIuZZWyPAOJSIWZWa3/5IoFYDjsMDw2Yk4ZuFi9uXrly5sujM0ff9mpMnT35oYGDg1pGRkXPoh9LS0m0lJSVfb2tr+4dC9stdm+/u8X2/LgTHWR4EHoJjIadRYeouNDjGk+BobY4pcIwZf2TYgqNJeKa/dwD/jGlpW7BizZpluwvzpGfXCigdPnz4o/F4/BOJRKJeKdi0FSlXlJeXow19uLW1tbcQ7bpr8929gHMIjqfB0fj+8xs3brisEPJ26yyqtzpUqwvdnZNff6HBMRZLoD2bodhQsAthfNh6p0lRBjjGRxJmeBAnTcIsWLRk1TnnLH598p/yzBpZy9zV1fVrfX19/y0SiSyWAwlQ5I+PEmXwf0VFxY+NMbcVAiD/3+a7+43vV4XgOMvXVocOmUJP68mvv9DgqEzgQzEAUN7qmImjVqNuDxLW45uBgSGzcPGS9atWLd02+U8Z1Oj7fuToieiv9fb0fCYWiy3UJvVijHhuy8rK7J/2cCbEiHJl5eV/09rc+LuT3bbsKcvmrs1xVmbl6ezs/OdIJLIxtDlO9hQqXH3FAMfA5oi98Wxw9OPGjAwNm1On+szS5cvfsGrVsp9P9tN2dw8sP3nyxG/39ff/diwWq08CpWWHUqEBwEx/8+bNs+3mU11VfWdTU8M3J7N92TfYmrvg6Pv+rMzn+C+e570nBMfJnD6FrWuywdHdYIvf5HM8AxwByFjMJEZi9jjxjkNDQyYe801rW+vVa9ac88RkPXFX18DSQ4f2fj7hJ94P8HE/fVdUVJj+/n7LEgWWuq9AUv8TZ1heXm4qKysfiXjt71mwYPI82f/3b7/iV1ZWmsHBYdPb22uD4QcHB+03bUSGADTftL+qqsq2JWkPtc8jxquYRdor9ltS4tkXAMc47/5xfLrEOSrnpzEJMzw89NKtt2y6cLLGQbZ6impzjEaj93ue9+4QHAvdrZNX/3QCx/aOtuvOPXflQxN9ut2+XxnftecL/f39/wVQGBgYsOACkABEMEYAqLq62gIzHwX2pwf4c70F80TCgtK8+nnfXrSoA7AN6OQEPlu3vvK+F37+wn3U3dc3YNvJbyUE5n7cnzbS1pqamhSL5TkANoGewFBAONPAUdv0Ao6DQ0Ov3H7rpvMnINq8Li0qOHZ1dT1ojLkuBMe8+mZaFCo4OCaSy8NGEoFanfbH6hnLHOMjpqO99aZzzz33RxMRzJEjR87rOtn9YCJuOgDAY8eOmSNHjpjzzz/fMijYIscBF8BItkU5Y9KZFWNZx5TBvKKyYmvT/KYvtre3/ONE2nrfP37zwaGhoesAw6GhEcsWkQXtAyTF6gSESedQqs0wSz4znTkqKzzytcxxaGj7rbduWjcR2eZzbVHBMRqNPup53rUhOObTNdOjTKHBkaBvu11CGjgqVZkLjm2tbbetWbOK0JlxfU6cOHrzoYOHvouK7nvGdHf3mBOdnZYVdnR0WLUUBsb/tIlv2qHdEsUuOS5bpFRYHdMSSY5XVJT/qHF+wx81Nja+Mp4G//3ff/1nQ8PDVwWgaywwolrz7ar2DQ0NqfXn9fX1VmXmGsBRwD2TmWM6OA4ODu24/bZNa8Yj07FcU2xwnPRtEsK11WPp7rGXLTQ4SiUlVCdITRZ8D8dGgtCeRNyCAcHh7W2td65bvXpcDo/Oo53vOnDo4I8rSstMPDFiTp06ZXzPMxVV1aa1rc2CIEDCvQESWKPUVIXtUAYWp71txN7EHgFEQNPaSpP2S8C2uqbmzxYv7PiU53lQn7w///KDH/3T8ePHb7Evj1jCslrAkbppKx9YI20CCPmttog1ChRnKjjSH9Y2ndQofN+Oh9dvv+2WVXkLcpwFiw2Ok75vdQiO4+z5PC8rBjhaMBkJsvIQ2pMNHNta2+9Yv2bVt/JseqrYqVND644cPPQLALGistyq6LH4oKmqrja1tfU2zlLsBFDp6+uzYAPoADguSwuAKuk0SiQsiErlVuiPWCcABpACTDXVNQ/U18/7XGtr4+P5tv/HD/7bfQf2H3hf0La4vRcqNe2ShxybIiAOMAMitIU2c0+x2ZmsVmcCx8HBwd133H7rinzlON5yRQXHrq6uZ4wxl4dq9Xi7q/jXFRociWcEFMUcbYaeNOY4CHOMD5v2lpbb169ZwxLUvD++75e+umP3L7pPnjq3vKrSDMeGTMIfMZFI4HRpbmgyJ45Hre3x8OHD5sorr0w5MVwG6Do3ZOujEQCQ7ICMa2XIYS04IOY6cgCt+vq6P17U3vpn+TzAjx/8t28e2H/g9sAJE6Rto82wR+6FCg0wLlmyxN7r4MGD9jjAbmMvy8pmvEPGBcfAvBAzA4ODe++8/dZl+chwImWKCo6dnZ3PRSKRS0NwnEiXFffaYoIj9kfsgWKOqNQ2x2MSHFtbWzedv3r1d8cigX37DnyyM3rysyVlFaa6tsac7D1pTvV2G0JYyiKeZaynuk9Ztnjy5EkLJhdccIFlYLSD/wEnrZJRaAzH5QCRKh2o/7HAHll6OgTItZmVl5Sa2ob6BzqaG3+tpqZm1D24f/zjf/vuocOHbg6858MWAGGPMGDsjOeee6656KKLLGvk+K5du8zu3bstiALECsWZLcwxeFlZp9S+O26/delYxsF4yhYbHJ+PRCJvCMFxPF01NddMHBwjls24fy7YwASCZLZxE7ODP4jXI+mt7JHy0rY0z7/5gvXrv5+vJAYGBpbv2PHarrLyShsL2Dc4YAFm69YXzTnnrAhUz4RnTpw4YW14R48etb8BR8CHjxwsbgC466DxI54FJzk/7JLH5L7bXM85haFYhpxM7FteVmYqKirv6eho/Xh9ff2JTM/0gx/d/4NoZ/QmbI0K4eE3TPHSSy81tbW1lnFj1+TT2dlp9u3bZw4dOmTZLPem3bRNDiQxW6308bzTbFeM2I1v1EvAPSczgvst+ZwhG99PvVTU5+nftJ+PzBVi67Lz8hwAfU9Pjy2HLIeGhna9785bV+Y7DsZbLgTHNMmFyW7PFEihwREmYIPARwJQIfuO/T9pVxPrYpK0tDTeeMG6dffnO9h37dr9zYHBkdsD4PKsQ+Pxxx83a9asMdU1gV3OTwQrXwjngT3yx70uvvjiVKiMJjxt4eMyMkCc6xVYDTPkvAsStnwkkgI4nk2OkwiB15GSH9U3zvv8wra2J91ne+iRR/927569vwU4HD9+3AZ4X3jhhaa1tdUWo/2VlUEspkD4l7/8peEPEKmrq0uF9QgMFfeocV5eHrTXDQJ3yxQaHPEZyMGlNlnNwbGrBqFccdtOjvf19m3/4AfvmF2hPJ2dnSFzzHdmT5NyhQTHgEUkmSMJKJJe3oA5nnZ6MHlGBgdMa0vTu9evX0+Sh5yf/v7+Ra+9tnN/fXL1SHd3t9myZYsFmHPOOcdUVAbhLqjxTEpseQAjAApQEtqzcuVKO3HTE05IxaYRXmlJwI5iweTVahnAiP+53rK1pHfZvgCStkMLksakWGdpaelXGha0/0lbbe1R6t6378h5j//sJy+jMre0tJjVq1dbwOMjh1EkUppa1cN9eJb9+/eb1157zbItQJP2UV4hPpSDdQarf4KQJRcgBY7FWCFjTAB4AKIcWra/kyFUvEToG5grtlYbsJ/wX/qVX7lzdq2QCcEx55yedgUmGxzT1SpCM6xanfRSS506ExyHzMjgkGlqbb7ugnXr8lohc+zYib86ceLE79bW1Vlm9eSTT9qJhTpqAcMPJqNnSuxxgAJbHgxNdj1YmlTrdJujnB0JL3DKRPxABZfHWKtXtPww4gAQdXIPwLi0rMx+A1ZJtrm3tq7mS0sXL/5KT4+p/84/f61z7dq1ZtGiRbaNAAkfreQBHGmbvNXyjlMnKjZOGu4FOKJ+K1aTupB7TU1VigmLJbrMuPDLBwPV230x8lvtBBjllMEmTF+WlpZu+eAH7ri40JMlVKtDtXrUMTaZ4CiAOQMgkzFsCvrWRElXq4etWt309vXr1z+Sz6TYvn3HqcrKytqE71tHxSuvvGIuueQSa3u0cYKlQaB3aUkQAgOYAHIAJJPRLgWcNy/FymT/FFgKCKVSU16xh66dEtCzTpzkOmVASksOmfjRrq7U+mfagwfaLln0zbdb2lt++Pyzz9+LDZS6YbWqT3GZaPqKdURmAknqAgxhWzwT5fmNXZX6uQ/XET8qh42YJ88oM4G7MiiTrdENY3JDmSSfjH2edHAFdsaAuYpRy3Qh0wrt1qol1T80NPTir/6HD1ySzziYSJkQHENwLDo4ymFhQTKZMGFUcIwNmWGYY1PTW88///yf5BrwAwMDy3bu3L27qanJ7Nm71/z85z+3oCIvtAWRimBNNDZHeaT5Ru1mYnOtANO9H22HiUnF08SmDCAjxqiJDHjYpBRJUFRIkIBoILmEUaot4GlBu7Q0ZVfknjA9nkEMi3K0v6SkLJUgg7aLZSnESN51ebQPHDhgHTdiuDhkaKNskvwuJjjigFOQN89Ne/kGEGXmQGY8N89vnVDx2Ffedu2bf8vtF9/3q17fvfuWeHx4YUtjy5bGxkZW4wU0e5yfEBxDcCwKOGZlEM7qB4GmWIS1OyWC+D7AsaWt8Zp16y54LNdYP97Z+Qc9J/v+nHLPPPOUVZVXrFhhVVMmIiACuClQGiDClsd93OWDtAN25Xqf5TQQ+6Ue2SvF5lygUTgQ4CTg5H6Am9gmYIuXHIZHO8RGKUedAAK/abscE1wvu5xUbN2f57bsuKTEXqOMNrIr0nbYI/fFvsr/AkiBdrbsPNnY43i91XLI0F4+yAtQpG1yzMDgkQtst6WlZcQv8a/qaG5+jvLHjh2r7esbvG0kFvuQ55k3LVmyZKSnp+dopMT/emND42c9zxvJNV6ynQ/BMQTHKQFH2ZVgjlpxMio4Dg2Y1sbma9decMFPcw32nbv2fLu8vPJWgrqfffZpO/Evu+yywDudDC8BBLgfQMmkk/dYjArAI8BaNj5N/nS1GhChjJb2KSmE7HaB6hok6AHQlFIMYJQ9kjoAAxidwA9AANQExrRXITuAmZwrirGkfrFVXSN5Ur9CZaTyy6YHOAKUqlPhP66TxnXMFAIcub/axQtCckBWOKJ4dpg8AMnf8RPHv3Fw/4GByuqalw4e2Ptfy8rKFtEHON1uuOGGIHSpxAyMDA3/0bx58/4q13iZFuAYjUZf8DzvkjDOcbzdVfzrJtPm6IbEpFRr3zMxP2ESI8GaZR2PjQyl/pf9sbGxMS+1+vU9+39RXlK67umnnzYnThwzzc3N1kPN/QWK3JOJNq+2LhXsDSBwLzlnaA8sRgxMbAzQhM3JEyxA5TwTGzapa6SiClTtUsKamtQqFlcN515dXV0WrAAG2qd70i6ASeE5boC6wNC1g4rZ6r763wVHzonR86wAtFK0uew3EzgqW5HUfzd8yXVe0X7KKM2a1GbuxbNr5Q/3hT3rhQAYIideXMhaL4vXX3/deuKpj3NLly62fQSIcl/kh22Z86UlJbsTidh/qK+vz3vJpjvDisocQ3AsPrhN9I6FBMc4ITBJcIwPB6tL0sFRMW4cb2tre/uaNWtGdch85jOfifz6b/1OT1/PqZqf/ATzZMIsW7bMxga67LCiuipYk5yMS0ROTCjCX/gDhGRzlC1M9kWpgAAEk5Z6+BMD4zwTXf+74CKwhAXCKpWwVmADA8UrSx2cU70Kr5Gqn25fFDC64CfnhnvO/S0QkxoepEYLWJxso9kcMmqvbJRimunMmjqltvOb6xSXGSTxiFvVHlBDHshdtkXAD5CkPYQnbd261ZpICNBXgt+6uuBFRb1EF2BTpcy6deusHA8fOvDy6tWr315XV3d8rHMhBMdQrS6KWu16L1OhG9ZraVLM0QVHxbpJrWVCNTU2vPP888//t9Ea/OyLr1w2r67u2UMH9htYBht14YgpT643lt2tdl69ZWclxjOnenqsSgooyvkBuD333HOWpfCbycsEnD9/vl2hQngNdkxATt5tjiv+kPhFJqmydtNmqdHcA9YE8NEGnZMzBtWSP54dEFCoDuWUaxJAEBC57DAbOLpA6DJ4qddyioi9y5GTLZRH4KhnEntVW/SS47xsnHzzTDwnz8dKHtLGAYrIo7Gx0f6GBQYAWWP27Nlrow0IS+J65IHMFUpVURE4qlCpWUrJy+Whhx6y+Tk55hkztG7dRWvb2xvGvGtlUcExjHMc67tr6ssXmjnmAketnuB73vymd1xy4fqHR5PKY0///H8sWtjxqReeecYmkygt8ayaVZJ0aKQCoCuDoOhIwrdqMJMKkAPQvvWtb5lt27alVGrZEeXAkQ2RCQ1AvvOd77Txk9QB4C1evNgmz+BeTFB5tuXkECDJOy5wkCOG5wOo7eT2PKs+KqBc4UL8z734yNboOo6kMrtglc4g9ZJynUx6QeWyOQocdX/ZZF0Vn/olOxghTE7PxW+eoaoqYN0AHuDIy4cXBiFHxGju2LHDqtoCT8oiN7FM4jS5D7LauXOnNZ/s3bvXAiafkkik+4ILzjuvubn54FhnUwiOIXOcNsxRXlUGu5gjv1FvyXLT0bHgHetXrxwVHF94acdXamoqf+P5p5+2bG9efa1VscqSa5yZeKhq7HbI5OzvOWW/mcSo4d/73vfsb/7E6gL1L0h6q4/AA0AKlja2mJtuuskCMUDQ1t5uJzHlaD9MSfY8a4+MBFOvLFJigUHrnwFggECJbXkGwFHeasVIIhcXVAWGUqUFirLxuc4uFyRlInBBlGMC6lzMUYCv+6QzV9lveaavfe1rlnWLgXOuoaFRXmj7skLue/bssQk0YJYwRf6QgfJlChiRG8cAwurqcrN5872mvb01FQ/K8UQ89g/XXnvNr441l6YF/bGi6UTKh1l5JiK9qbm2mMxR4MjkDJJRBA4agIxtAlpaWt594fo1oy4f/OXug1+tKCv58I/v/1dTVhIxDfPqzNKlS1PgyCSDnQwMBw4fwJEJ/bOf/cx8+9vfthNUAdOAKOxT9jcBImCq9onZKVYSFR4W2dTcbBkk9jHKMOlhSwClZY6lJamVNdQPEGuyu+oyKj334jygIJAWk+QasTiBnkaKa2OVt1oyTQexdLOHQnty2RwFogJH3dv1jsvO+LnPfc7Kg5AqzBIAZX19gwU+Xg6oz5gxsC/yvLBEnGnU7dojZasNgLHKdHcHJohHHnnEBrVHo1GWWh6vKC//PytWLPvC8uXLB8cze4oKjl1dXc8aYy4LvdXj6aqpuabQ4EgQsLzVWoXigmPf4JAFrN5Tfaa5reXmi9evGTUrz6v7jmzt6eq84NmnnzF+PGaWLF5o10l7yRUqAKO1g9ltErpNeaTETsgvfelLloHIAcRkpR1KZuuGycgJofNMdtgNAAlD5Pwlb3iDdQJXYvkAACAASURBVBC0tbWl7GQAZFfPydRGWRZsk2SUiS4njUBYoAJ7ZM4olIeRwD2s/a7ydM5Gly26o0WeZOQrG6icTATBu+q4vNpaIZOLOQo8dW/di/sgO1RjVGleDDBCMVsA7rzzzjM33vge60QhWQbqMG0ELAFFnpf6+F8vAa4DYCsqSFqcsPXSj8j91VdfNXv27AJUt73zurf/57Vr1+ZcMDDarCo2OIbJbqcG48Z910KCo2UX8WBtLW/8TOA4FAtUvO6TPWbp4iX/Yd3qFV8b7WF+sXNf74mjR2peefklU1lWbtWsBQsW2HvARLBryamB2lZWWmo+8YlPWGAkLhIwY0IDeITlWPUquS7a9cyKeVGOyUsZ7e3CN3919fXm7W9/uwVn2qDtXk/2njLDA8EmWW7dYpDWUZRcFQJoAgAAZKCGNgRsemgo8HSbYPWMQmrUXteOaJmlKTEjsSEz0D9khoYHTCK5YYMcMWqLwJFrFIuZOZSHTOOBvVagq1Ag2DGyg8G5jFUMmmt4Rpj12rXrLShSvr293fYP/cQ9a2urTXV1bcprrxAo2K+iCoI9dQasY2fXrtdRhR+/4Ybr3zletuiOraKCYzQafdrzvCtmE3PU212qDQNABmQ3QHfc6DTFF04UHAnVEavQxJO3lEnOX7qn1Nock4koSHgLmA0ND5vGpubPXnrBuk+NJpKdew90bdu2reHgwf12Yi5atMQsbO+w2X8I5yGPIvdDXcY2iDq9efNmq3qjwgI0TG7KChyZlEx8rUShj61dsa3NlEZKLHPho8wy/GbyDw4PWXb3jne8wzpuAAMAjeS9vadOmZ5TpwL7YtL+yb3Z40bqtUJggmWOCds+6gUguacF5eRyP8lEjhHJXIHumCVKSyPWPNHV1WmT5/I/5bXkUPcLWN+QVW+1sodv7s3zBNeQlTu5c6RjAlGfAt4K42FuyOHFnLA25FjMPseCBQutXGtqqq25AweLHF8trU2mojzYhxuZ0L7+/iAT+tGjx4zvJ0xX9IQZHsZGPGz279/76Mc+9rG3TdaUKTY4zro9ZMQg9HalAxkMcirIuzhZHVbsegoNjolYAI5kAXeDwAWOJKi1qhopvPbve/T9t24adfDv3rNv1/bt25fvP3TQ9sGSJcuss8RL2DhJyxS5H+DC95e//GU7iWE5MBcAAeBDrYNZKpGDu5oFkMDJA3uJnug0NZVVpn9oMLVUj2u1pJB3A6wORw2Zu8klyceuGx4I9qKWc8YGTHuBF1rOIJ7dJpA4dSrwvieXHgIkdqwlM5W74Cj2GHwHK3i0dQKghArLMf5gZwpER/58rC22f9A6RbQ/DQBGO4aHg1U7p+3DSlYcpBlzHT/6LQcXc4Hn5cPLglVLx4+fsBECK1eusPOmvj7wMjc2Ndj/YZI8Z+eJLivTzs4uKzva0d3dZQb6SaxxErX6+Q9/+MNvbW1t7Z2sORKCY5okpY6cJWAvSHSafl6qliL7+WYg8eGc6z2crE4rZj2FBsd05kg28EAVCzayihvfso5kAPHX3/aWqz442vPv2bPv5W3bt5934PChFDgCViXGt+BH6jDqZZIChJ/85CfNm9/8ZsNqmje84Q3mhRdesBMXMIQ5yvYIKEl15TyAC1jFhoOsMQCtvKqowUx4jnslEXsvwGz9+vUWJMkTGZgU4lZdhh2zy5detG6Ij5gfGcSteaG724IQzNba+5IvYo03vjXmghd24GDSuBW7feKJJ5KJKzzL4DArCBxpB8wRW6xUWYCRMgJHrVqKJXeJFGOUo0pAqZU9fEtjVNA2bZLjhfPXXnutTUqs1S7ck/hGvjF5AIoEjcMceZnZZZt9p9g64f4NGzb8p5UrV+6bzLlRbHB80vO8N80mtZpnkVHaNXy7nsLJ7LBi1zXV4IhXWTatlctXfvScFYv/ejQZ7N6z74Vt27ZdcvDIYTsZUasBx8qyUsscUU+l1hG68/3vf9+yQFKaESO3fft2+79UZampsBheejAZ7IzE4VE/G4QBZtxDrAsHgzUFDA1ZRqwli6jBgNrb3vY2C8DWoTM4aLpP9dh8lQrn4TrAGUAVYMJ4GV94dJUow3rCk1nHpbnYNiVNFUGIEuwQUAvAibpxjADgAdhG7X2Uyk1jGHAkiF5OomzgGI8HzFEsUeCo5YKSCfKgbp5f8ZmU5QWDXLHLIsPLL7/UsOqlp6fX9gH1YgMO2Gy/OXEisGMCjvH4yJaLL7r4c+961zvGvZf5aGOp2OD4hOd5V84mcHTf0kw6BhmdzmSiQ0O1enSbI+wpk81RyShYeysPcnNr84cvWL/2ntEG9K7d+x7dvn3btQLHBQsWWVCsKi+zEzMei9mJRb/cc889luEBErARwAs2STgOS9q09zPtg+HQt6jFlOU6G68YT1jwQRUHtAAv2is7HuCI+k0bYKLci/rf9KY3WSaLWgwICKwARa0KUr0WcIaHrZoPk6IdhMFwz+pkILg0GJc5BmE25ba9qM6wVAKl5XwJAuyH7bMpaBo1nOOKN+S4EmYoEYfUaoGwlh3Kpqy+k21ZW09Q1+WXX55aIYNcqIsXDbK5/vrrzbnnnmPbSZ3IBEAUW7be/q4gkHzVOef+5fvff+vvFZIsFBscH/c87+rZBI6yL9JxUP+FCxcG+fsqK1MrLArZgYWuu9DMMRc4kkafMA0mXuP8xvddeOG6b4yuVu//1rbt225DrWactbcvsH0Cc4T1Gd+3wMdE/fznP2+/mWyAEn0GuKH6AqBMcruKJhKxE5ptCuTV5hjnqyur7ATXMjmuE5gzJkwkUFsBXcXswSxRIdmnprmlxT4OQKBVI/JUc1zLE/uSiWqV55AwGOt9b2pKxTkiI2kyCj3CPMFxHE88P+3Wy4D245QRK5YaLm877VSAeuA0CbIUueAIQGoVkzzTrjPGJoAoLbXyYV6sWrUqlZRD2hUvGuTDva677u0WmLWyiOfFLIFc+Qa8ly1d+tj733/7NQUf+4W+gVt/NBr9qed5b5lN4MjzCSB548leotAON8SimLKerHsVAxyxK0odYy8WTTKO2a0EcDrE46apqfn2NWtWjbpv9d59B/7vtm3bflvgOH9+k1VhK0pLLEiRkZtJjyr5sY99zE5WJqfUR5wVV1xxRYq9MKlhVgALCSxQAwEDjisGkGBxgAU1VG2X84FzWu3D8zDZFYby7ne/25x3/vmWVXKOdvAt4JUdT84P5g1gQ/tpD+FBPIfWGrvqNO2g7PHjnebBBx+0rJj1xgCMPO8CNjl5ZB7SiiDUWQVcu7ZBgaP6TPeVE1IvB2SgeEdeKrykaKtsmyIRlMPmy0vwN37j182LL76YsgvLtig7a3NzK9ff9747b/3AZI3xbPUUlTl2dnY+HIlE3jabwJFnYbBoYMAwGPwMNMWkFboTC1l/IcEx2Io1bp0u2cCR83ZbTt8n7OPWtWvP/c5oz7vvwKHPbt+27ZN4qwN1uMaqwjBH+gPbHTY3QOV3fud3zFve8haranKOPuP3VVddlVoZw70ACDyrAjWAkbplq6MMdSpVmYLDAT2tKQaAAD/Z+zgOcHzggx+0tk5YGWwJ4BI4ARoKh5EtUGBBWA+2UaXzUqiLmCMAxYvlBz/4kb0PYMqqFI4BlACR7JOAlLID8SzyZAOOtIvnl+ot5iiHjMa9VGk5fJTWDfssz8r13JtkHmLaeskgG+TOs33oQx+0TjHkIHWa9uLE4joWDSQS/rc2bbzpjkKOe+ouKjhGo9EHPM97ZyZwzOolTkog23ni6HTOLXN6FexpEea6hxWIl0UkWbzVPIvWvb788svWrgU70BpeJpLYgLVRJdfnSmXjnjrvxkVqMhR6AOSqvxDgKNuUEt0Ox2OpiRobGk4Z9626NmI3cbcyamtrv3l9jhUyBw4c+q3DR4787YsvbU0yu1K7EgNwtAzP86zdDmD76Ec/aq655hrL+JjAgAAJJwBHecjpBxiPbIbankDL/QAdzClMbAV501aOMy5gmlo9AyvV8kEmP8+HWnzzzTfbOEvGHvelLo2FQPUttWAhOzZ1UIbjy5cvt+q64hGRLeAMECO3LVtesr9pDyAse7jWT2s5ojbf0likHQCogsGVpFfqusYNWXFkkpBtEjlqXbnqozwvF236pSB2BbTTRu7HihkAVPMD+6w+AWMdwqn2wMaNG67PNXYner7Y4Pgjz/NumE3gqLc7b1JCH3g7y6CuJU8ygItlSg2n8/T2puNdo7rYaD6APtFBMNr1hQRHnp3sNfmCY3t7x43r1q0edd/qw4eP33ii8/gPn3neZtG3NirLsKoqLTiiVsPeMH985CMfMW9961stOAbJC6otOKJWu+wN9ZVrBWiy0QWA3WYdCgISvSzxvrKcTem3YEawPfpYWYCs7a+vzzpnrr76aste+cDY+AjoABA+AhxtmgUjBBw5rmu5P8DGtZTbt++AfT6YHKFEUtkBJ5l8FAcprzrXAnhKNOsuJXS994EaHoSsCTT18lfbpVprtQ0mAbbI5aWhFG2KM+V73brzrO2VlwWsk2eUYycwK9iVRU/dsunmKws57qeCOX7f87z3ziZwFMDxTXolJiKeN2U6tuEjyS07GeQaSJTnfxnyVYZBJoYpUC30IJhqcJRnF3koBCSlrqWY4zDhHtevXbv2gdHae/z48UtO9vS+8NgTP0vG+0WsXbGhrtYyLPaPxukCeMEc33LNNRYsFY4D+8c2B1DC0GCU2CylptI3nFOSW5w7tJ/2alkifQ4o8rJsnD/fMjd+yw5pQ3ySezMDyvQ5uQhxBDEekMPuPXtSwdmBIyJYnihnjTKCC2zFVCmrjEKA5N69+63KCpuDOWq8iUEqvIfnV93cn3bhEZfTRONWG3KpvF7q6YxSL305iWQ3VeYd5grhU8wV5a7E4QU4wuppr9KdyY4bjA/AMvHzWzZtfEOh50VRmWNnZ+c/RyKRjbMJHF2bI5mK6WDefIpTO/tNyxKu4K0tOViHgw18DvZSFoPUW7jQg2CmgGN7e/t163LsW93b29t2orPryE8ef8yCDMwRBtLSON+yP2yOrPyADf7hH/6hufSyyyzzAwixTWLvAjjRAGBwfNMf6jPFGAKAOOC4lr6jDH2uhAmAAcyoKxq1K1IEbIqfVHA0IEc9jJnbbrvN2ta4Fkbpru2WtqE9XlBzqV+pzTgPYFMPn9M2ym6rgrvL/3ROjhSNYY1Hnkexh3xTt5xPMEWNUY1TOXLccSTTicCVsa1NswS0HOOjFw+AfOpU4ICjjALJaadeQKjVxvdf3Lhxw+zamrWrq4tgzVtmEzhK/aXzeBNKrWYwMvDFEKUmBW/zvSnbI7FuqESUFziKjU61Sm1Vi0zG2zGgdaa11e7EQa22kyQZvJzOHJkMp22ObTn3rfZ9v2z3nn29zzz/XDmyZtN7G7jd0W7ZHGursXtx7Atf+IJZvmKFZav0Cart888/b5+OBLawPUAQJiOmh3oKAAG09JmcMErpD2ABhpzDVvnqjh2pgHLZG5XXkTpgR7QHYKU8AeKMG9ZdA46yzdFGxVpStqcvWCVHPkiFzgAu8nBzLMgLGdhsuQZw0p44Ah/cDgL3YF4GoT88By8Q5VBUyI8LjPzWeY1ZF2ClKXFf6qT93FdOJ5mkuAY5qL2UkVPIjZ20ZhjA0ZgXNt783kvHMAzHVbSozLGrq+tbxpjbZhM46s3IQGB1BQOcyc7/dD5Mgg7mtwzulNPblmMkJOCtb8Eo6RCSwXyqAXI6gWNHR8db80lDtWv3nq07Xn/9AoKmYY5MypXLltqga/aP1hrle++9164wAaRgjCSIQN1DVd64caONvcOZg1qsJX2AIBOXb+pRIggATSqxVttgYzx44IDtV8DV3W7UplHzPMsa6WutP8YrjmmG4HAcPYrBBNRgcQoMT605T4Y+6aXCizbIVBNoJ8Q5KhyKe4itnbZ7B7kmpeGw4oX2BJtXBU4i17bIb5dJCljFRjVeZSfUPNAzykFDOY7peuRDm8kMr+MyJUirEjj6vv/cpo0bLh8X4o3hohAc04Q1Vm+1gI+Ofemll1LxctqXWBs7ySYDm/nFL34RxO7ZPVQSVpWyAcpJdUhs03XQjKFPJ7VoocFRISCyUY3GHPMFx/37D//10c5jH8HMAXPkc87yZUGcXVVVirmw18irr71mAZClhKyxRu2F+ZFqjDYBEnwUDK39rekb+q5+foMFLbzstJ3fXAeIPfvsszY+U6xT9j3FTQKeAizKAOaA26ZNm0xFZaUFJrsPTnIHPxuQXlaa2sfagloiCCUT+HK9mCT3q6ggGWyw3YINSk9GR0iTiURKUhuJBewvYI3UA9PWC1uOl3RwlArsMkfVLRarcS1AVBiQBbtYsC0seSUDG3sQ0TE4eHqVURCPGSx/ZEVPwvefuWXjhjdO6kDPUFkIjhMER71ZAT0YgzyHsg3BEPTR2xN2wnl5tQFHxUSKYeqNy4CZys/UgyOMItjgfcGCBW9bs2bNo7nkceTI8Zv6+vt+8OhjPzXl5ZUWLGCOqIl1yb1FAIqf//zn5uFHHrGg+MADD9jEE8gfUMU5gkot55jiCGFl/A7Sa9XYjN42ldnIaacMWgCqsvUaJ9mRnDCAJqADOw3U/sDTqw2nGBPc+/IrrrDnAFDsmhpP3E9bB8BcUasBTSW/QDY2LdpgkC8S5sg5nkP3E1i5jiRAkhRk3IcXuhxFsjWSEMJljKdBE4918OfayPWyU1/pJSgno7zZXiQIbAccKcNy0cCjfnoxQDo4GmOe3Xjze6/INQ4mej4ExwmCI2AowzEhCm7YAxPI2rnKy1NhGUwuvKUu6BGOwYDXRHG92lPtlJkoOCZ8LzVpxJTd73iC9b2nExfEY8Fk0bK3QN0asGuiFyxozwscfd/veO21nYdeevnlIDNOcpMq5GzDeUpKrLMFALnrrq/aQHD6BFnj0WWFBgyRGEg+2k9aQd04OKgLzzZrgZWFCeZHn/MH4+M5FDAumxv10h48yDiKSNIKcKLCUx6WRxtZPQNrZSxg+wxU5GA5I+BHWwIbZuDhlxeYMtyfNgaMMggDQn1XhiGNKc4HIUtDlrGRvox7nu2ECVRpgWCmb6nlUqdd26OOZez/5MtDqrTUarFOfQvIYY6+b17YtHH22RxZ+nXrbLI50uECSCaL3qh8w1QAR1eFhiEwMWSr5HoXHKWSTLWtUe+M6QGOQ3aL1ba2jnesX7961A221O69e/e/9Prrr59/8FCwxlrrepXqC+YG8/uLv/gru+cLtj0Y/Y033mjNI4An3mMAFObGddgAAVtMINSJDbO5udHaJOW8oDwvQJw2An1efNoDRmu5Aa/ASTJkWSPOF14E2rMaFov9EXCgLYCmzCzUoR37Tp7sSo05rXHWEr3A7hhs1mVZZnKdOPUIjABGjivrDr81hhm3UpunEzjOVm/1rANHBplisnjDK2iV4xi0AUc36JuJoDW4Ak3AURsxCRzT1ZSJqgjjvX46gWNHR9u71q5d+2A+z3L06IlPHD165Itbtm5NORuI24Ot0V+AESzpvvu+YUGJWEY2aCIzDH30zDPPWM8xDjUAEWYn0JCXlv/b2lqsFkC9gCGgRagQ4Ml9AEYFVANS9Ctqu02GUVlpU3ABfNxDThmAk/u+5z3vCRLd9vbaF6rGhNgndRw/fjSl+kt1pRx1B1lvgvXNgKNeyDIV8L8ybys0iGfiOGNTqrzsjNOGOSb8lzZt2nBhPuNgImVCtXqCarVsjqgnsBFYhACOCQPjULgPgxJViJUTCsKVQyYTOMo+M5EOnui10wkc29ra370+x+6Det6urt4Lo9HjW55+5pnUZIdxKVEt/cDfzp27zb/+679aUCRzDWyQoPHHH3/cgifsDTYnlZlj6pdgz5QB+wKETaK6at9kQA2gBBhRkwFc1FpAinOAD+XJW0g7qAsQBJgAS+7xxje+0cZecgxwlIlAy/NQrWF+sl0r0Jpv7hGslAm8vwClQmoYh8qSAzhSP8CnwG79pozG93Rijr7vv7xp44bT6wonOsizXF9UcIxGo9/0PO/22aRWS0Xhm8ENe2QwMrCYaHLIKISBiaAy8mDjkIFhuKq0AHWq1evpBI7t7QtuWrfu3B/lOxf27t2/8+VXXlmBU0O5GQEvXlr0F4DDBk5f+cpXbIwjajMvODzVONeIfQQ0WUGjlF30E78BIOpgPxbAiZcbtj4FZiv5ressCRwNQaA/QBTsyhdsKwqQaZ8VxhFsj/re9a532Tp5Btohhx1gTN0NDfUpldsFSZVDbecDa1XqN7HCYCuGwOEnwJTqLZasOMbpBY6JVzZtvPn8fMfBeMsVGxy/4XneHbMJHOWVY8IAioSBMAgZVDAKbFFalgUbcB0yCgcROLqGcoFuCI5B/Ftgc2zfsH79mn/Jd7AfOnTkk4cOH/4s66UlR2JKAUfADI8y+yYT7wjY8CJj+4Arr7zS2ggJ7yE5q3b+QwuAOdKf8gjH4yPW+QFYorbD+ngpqpxs0gAfqjznKcfxQI0OQoD4TR28PAFNebdxzNAuyhACJjsm44rf7K5I+cCjGyRXlvMiUK2D3QH5gwHLYSh7IssB3WMuU3S90yE45jvqxlkuGo3+o+d5d842cGSg88ZlAKFWw0BQYZiAqFTKEk05BjKeUdd+BTjKM6njAs5xinrSLptezLFj07p1q7+b78P19PSce+x454uvvPJKNS8sJj59Ajjx4hI4EWWAEwZQxFNNP+Kpfuqppyybgy0CnrBB5TWkLvq8r++UBR4YJx/6DeDinNgdoAh40QaO8TuI2WNTsWCbVYANANT2ppTlRcpyVBJh8IHpAtSMI+qhnTBHvgE+6lQsIeV5QcMcFU2hZYSuLVErX+R44Xrq06ZbeqYQHPMddeMsF41G7/M8732zCRzFChno2gME9QcPo+xOMA4tJWQQK2wEMTIoAUfOa9Lo7T3VMY4WqCe4fHByQnkC5tjR0XbL2rVr/3ksw2/Xnn137dm9+9fxONNHTHrkzUsLoNuzJ0hf9pd/+Zc2pAeZA4rvfe97LRCRPosVKwCptibAlki/B8vygm0FeOkBkACjnDGBTTDYkY/z1K1dALWkj+WVCnwHDDUmUKO5Px9W6zAmsFcyrqgf8A1U/HL7LMFqoEAR5DkZV0GoTsAauUYrfQSEAXs8veJFbFLXUpfU7BAcxzLqxlF2NoKjVi8I8KXWMFHwcMJQmAhMQCaLctopG7PdLjS5mZLyAUptY9LMFrXajXtLj3NEhlIXiXMUo1KMG8AUqNVtH1i/fu19Yxl6R0+ceEfn8c5/Y800oIbaCgME8ACB3t4gQPrRRx+1/QVAolrzQiM7D04a+oU/1Fv1l2JSxda0Ix7PRn/DUJWyjvbS37BBgbKOyRYq9Zv+5npYHu1hvNx0001WVeceMFvuCbDzQiWfInXy0tW2pzyXYh/xVmuvFoUDMd7kbAEcXWeMVOnTwd9BfOP0AsfZ6ZD5uud5759NzNFlee4AZyIwGHn7o5oxCQBIBi6DX+ESDHgGPufkoBEgygY5FjCY7LKTxRzHA47uCo6kzfFX1q9f8w9jeUYSUby+a8/Ptm/bdjn9oew0bHkASMLcYGT00/33329uuOEGy+xh/9j7yD+IHZmXXLAJ/QILSuojmVToR1iismfLlEI5qfQALiBGG6S68izyagNCvAgoDzhSFy9Z4jBJ+grgEenAecAtyLAdjCtk5e6YKKcg4Eh5PtrESzbGABRnIDjOxlCeaDQ6K8GRgWfXh/p+aomVbEpaiRHsuRt4OLWagEFKOTZ7J8xEmVSoj4mg82MBg8kuO83A8YPr16/5+lifcf/+Qx89fuL4X+KYCTamH7Y2u2CzpzILKgDft7/9bcvIiDt98skn7ZprYlVhj/QZYApLk1ea/tFqJu3NInDTShaBlGJaxcAARP6UsMKmKevttU4bpTADtHmxcl/YI20ALHEkMY54FrYxpQ7qkmrNPfkEyWQD1irVXmq7AJplgTOQOW7ZtHHDxWMdB2MtX2xv9T94nveB2cQc09mdGIXLKBn02LyU59FdcggjwZbFpGEiyFjOZAnB8fR65SRzHBc4dnd3Lz92/MTPtm59aYFiAXkZ8VJqaQlMHcgeO9/DDz9srrvuOssY8Q4TiA1gsQ4b5gc48sf1WrHCpKPftF2CzCKsmALouKdshGTj1pYGgJfsjIqdBFxpj1bNUJbrf/3Xf91eB5DTLoFfY2OQ7o62AZp6KYuZAo5cr5U7Akep1koooRjHmaBWz8oVMtFodNaBoxuPqMmiN7fi2nirM0CZfEw0WCQDGgZiN5xPZnJRDNx0WR3DRJpezHHsNkexhT37DnzuwP79fwzoKQYQ+a9ff75VSWFdsElWydCnOG1wzPDigkE+9thjFrBQq/mTUwaAoz7Z8wBD2R9l99OaZsYAIIxKT//zsoSxMh44LnYpDUOOHsDyN37jNywgUxa7I2OMOlihQ3sxzcAqg7XSwYs1WNcdrG1XELjAUbGOMxEcZ+Xa6tkIjopHZNC5RnqtOnBtbTJsywstZshgFtOUgV8hGXPJIWNtjPHA20qIS7rNsbW17f3nnbf2H8eqHiXtbatOdHY9tGXLliVShVFLFy5cnNoaVXtV//CHP7QrY+gL0o6xjBDQASzlmFF4j6IV9CIEfAWKcsCIlfE8eIw5jyoMA1UYjzzZMDyANshQM5wK3r7lllssUFMeFqvM4gsWtNuxo7r0DLQn0EKCPKK8lOXgU3uCAO9g3M4k5jgr8znORnBk4rnB2y6YybboroqgrOyTLoCqrFvfeEBgsq8pNHOMxYPdBuWxHg0c29tb37du3bpvjPcZ9+7f/7s7X9/1V4AWbB3mCLNSii5WxAAyMDMYGmBEDCSMjTRiOGa0HwssE8+1XnD0n5bnAZCBPbDOMkNiWCkHMMLm+IYpupEOcuYpYFtR1icSGgAAIABJREFUD5hjKMsmXCwnZMzQJnmgOzqCaAfZHXEkSXPhGclnSV3a64bfCuUJYnNnns1xVuZznI3gKIDL5mHmrSw1SQNegbZMBNmrZCuSmq5YtqmOdSwWOCqUJwc43rlu3bpvjhcc8Vx3dfW8Y/+B/T88depUBHBgH2TAT6nMAEjAjPXWF154oQWWn/70p3Z5IWDKqhlAULsVol5THibHH6xPThc56AApxTcqG096kLXK6sXJNyBOEgvYJPZRMgZxHYkrAFjGSmtrYJbBkYRqTZZ5xTVyDIcTYIhjkDppm8J4Zio4+n7iqU0bZ9/ug7PO5pg+UadaDR4vcGS7bqLgKJuXy5iZpKlVIokgSDpTnKPUai0fbG1tu339+jVkdprQ5+TJk9dv3779X+2LKLnvOeAIyCnpA3ZD1GhWzcC6ACTWWdPWH/zgBzYAO3CilFjWxksQ4AM0YZXaelRL+qRd8A2galmpGKPkoe1KqYs/wJq2kIHnQx/6kH3R0h5AEKDTCixAk9/ERirRLaDIvbSuWqq4VOjge0Yyxydv2bjhqgkNgjwuDr3VaULKCm5esEA/F/jlOp9Hn0yrItMJHNvbW8e8QiabMHfv3n3/gQMH3u0l1U6ABkcJ6jSgBKiQIAQ7HWux8RADYCzlg7XhoEEd7+8fTK1nholxnVReAAuwgwHCNikP0AFKeK1drUHqueJfUc2xLWpJIW37wAc+YMcfjj084QArDj2FA2mljLL7UCdgDaCqDVKrT3/PPHD0jf/Epps3XF3oiRKCYwiOo46x6QCOWiHT3j62tdWjPdjAwMCSLVu27I2UlFkAUvSAmJbSg8ljje2QeEey+gByACcq70UXXWJZHOAnEwvqLPZIBV8HK3F6rerLMVgmgItNk4+852LKHFMokTLpoFazjJBrca5gdwSs5TlXajSAG3DnQ1kYLvVyfz2TlgkGSwNnoENmloLjrAsCD9Xq0d/fE1WrAQCp1e3tHRvXrVv9vcliDPv37/+7Q4eP/ibMig/fBIBjW0SdVaowgscvvvhiC4AkwUXVBkz53dc3YK699loLVoQD0Vatrw5SggX1KvOO1ksDpOxdA+gCUtoBkGuIl0SNxxkDGwTkYJqU5zoAkPMwR0AY5w91wCK1F42iHgKnk2/BUVvDKswnBMfRR1KxmWMIjpM1s4tUz1QzRxcc29rab16/fs33J+vRfd+vf/KpZ05q3TNgwfppHBtSXzlGxh4AivXY2PRYXghAwsieeOIpC1L8DzACbCzxA5QUr6r4V0ANEGRlDswQoCT5Ln8AG88KK4SVAmYAn918yvftfujcn4+C0rkvbRU4sqCA8njU5dgLlkj6FhhddXsmB4HPVrU6BMfJmtlFqmeqwREAsvsZx0fGnM8xl4h83y95cevLu1979dXFABheX0AF9ggwEaSNigqDxEt90UUXWTVVeRUJDsfbDYME2Fj/rJAavMOAJAAGG+QZ+ODwAYy1lzRgxjNyHcAMmCnxMSyQ6wBUUpehhsNYaRPxl9yT5Y3KDM61PAftU/yttgZ2wVHAGKyGCW2O2cZJsZnjrEtZFqrVhVWrCwmOtHzv/kN/9PJLW/9MoVSAGSClXJyAF0wN1gcjQ73GGw0gAi4rV66yzEyZfAArPgCVWB/PwL5BABTABDgCeHLgAL6UB/goo6BsymlvGTIEUYaytIX78+F+WnKKCs5v7YIJeAKOfGCNSoChMKIQHKeXWh2CYy46M83OTzVzlL2uEMwRUZ84cWJt98lT97/yyivLYGmE83BPwBEGKZshgMTuhDBL7H+osgBUQ0NjaodJ0p5xHfGRShjB9QChNmHT6hmF7vC/VtlwDHAOVgiNWNAN9oFJ2Mw8YpSo7jBHQA6VXJ5uVHlY6gsvvGDPCRxlc9Q6bgBWgeAzMivPLHXIzDhwlGHbeMS05Sba+ZSZZvg3anMmCo4kPpD9S3kcFfPI5B2JBzY1rQwhn6M9nlw+KLUTcGxvb33P2rVrfzjZ8jt69MSHXn3t1Xu1RQGMDpAEANlWgfYDUjhmAEk82tj/AKInn3za2hfxPgOCOEpgfoTeKP6R+viISUrlVSJc/e96qzkHWHOMcBxUdtoDmyTOETsoAIe6jbwAPM7TJsJ8tPAA8wDgq3yPtIFy3DMITD9zc62ZkHhittocQ3Cc7Jld4PrmAjj6vh85cSL6hZ+/+OLHlcEG4IDtocpqB0nZ+gAQAAabIyBOSA8gRqA2gAVwAWKwOnmsZedT8gleCNwDsOJPWXkAOmUGB8CImWQHQkCa9nCfp59+2touAU2Ocw1tgrVqBQ3HghU0rbZNlFeMJWV0/9DmmH0C5aZCkzj5ZmIm8JA5TmwATCZzbGvrGNPug2Np+eHDXctGYv1/+/LLL79L6iwAyB+hOdr7BZBBnRa7XLMm2EKBMB5skzBGrud/nDKo5jBNAErLRYNli3HLRpWsJGDLgSotVR7mCCDCGmGyfCj/ve99z37DCvFQa8kh/wOIyhaubD2UhTnyJ+cNdQUZhUKHTLZxEoJjmmTS1eIQHMcCMWeXnVxwbL9x3brV90+sRdmvPnYsenVv36lvbt26dYE8zErtBSsEIPmwNBB2CJiRD5LAcICP0BzCcFB1pYrDKgFYwI06ATLFVQKSsDmZHVxwVFYe7JuAHtdK7WbdNx+cMajujFHAFRYJoKLaa/0+oT4Ce0BcCZW5d+DImYFqte//bNPGDW8u1DhQvSE4huA4k2yO169du/aBQk6KA4cP39bT3fONnTt3RgAYgEXJaQEanCIKryHeMRoNEk3gMKE87AzPtFgcbYVRarterlcCW9RnWB22TkCT41ouCMPD+0xeSdeBgjOGTb8ARcBQH9pJqA8AzYod6gVQqUMJJwB65bOUx3pGrpAJwfHMKZDN0cEKDJ1zy2TaNC8fZ0nIHNPkPtHdByfRIdPW1vLOdevW/VshwZG6jxw79mt7du/dzAoVgAlGB9BItcWWiE0RINu1a08qWQXHtcskKjWgKHslgIr9kGu0YZerQvObP87z4TrYKmVRy6WSs1EYq3cIJMfGqFygAB8hSNyXtGWMY5gurJV6+U09MFnAWJmD2D1xBuZzfHzTxg1vKfQ4CJljyBxnDHNsbW1/x/r1qx8u9KSg/oMHD39i1+7dX1QgtpwYMDHUU2yJqKZsfYoHm5UzfHDgwBr5wNg4rnAdqdXUqa0TtEEX5QFAQEuJdGWrBCABOMAa1giYAcSUldmHsnjNUetR+zmu/bMpD+uFjcJsAU/dd0aG8iT8xzZt2nBNocdBCI4hOM4YcGxvb33r2rVrf1LoSUH9hw4dqo7HvS/uePWXH1HcISwMJ4qY2BvecJkFIoAGZogTBrUWFgcwKckt1wBKMDYlPpadkW9lJgfgAEa80NTBB0CFpXJvHC2AH6yRMgJTyjXUB9dt27bdtoE2YZMsLS+1YAo48gFot2zZauIjMVNVVWlMBIdMsH+6G8YjZpn+TV2Z/ngOmSHcZM5ufkqFcrnfiu3UNzZqJT92v2VvjcWGjR+CY55qtYnYguNRmdMnWaY6QofMxKAoH4eM8jvavI4jQRB0LBbkfAR0bHxgImba2xdcs27duY9NrEX5X93Z2bmor6/vc7t27foQITt2bbIJkhej0goQ8VDjlAHISCcGYIotwiQ5LvUW1qmYTn4r56LYofI7KkhbQER93/nOd2z4kJwz1Dk4MmwivjEdLe2moqzMPPvM8yYRi5uhkWGz8txVJu7HTFlFuVm4eLG9b1lJidm9c4/pPB61Oxf6Xtx4JTMMHH3/p5s2brg2/54cX8liM8d/9DzvTtlXtDA/H3DLanMMwXF8PZ/nVcWIc8wXHBcsaL96zZo1T+TZ9Ekp1tPTc+7Ro0e/+NprO28mjKequtYyQs+LWFtjPB6kA+MjkOR5tK2qYhAZ69o6gbIK3NZmWFyjJLWAHyxQweOwTlKnKWO51mtzXy0dXNDWbkpMxOaZpM5lK1ZYUPRKPJMo8S2LLImUmdhwzBzaf8gM9GIzHTTllaUhOGYZKSE4OoIJmePZo2SqwBGmJnVVzLGjo+3KtWvXPjUpqDeGSjo7O9e99PIvno7H43WlpWxKFTG9/QNWW4mPBCt85HCBAbJ6RitmUKVRc90107BCqdUAIIyOY7BRrao5rUbGbNgQXmY5aeScCchF3DQkVXGcMXjKoZLLVi4z8UTCRMojpq6+3rSz340pNYP9I2bPzj0mPgQ7j1m1O2SOmQdDCI4hOE65zTGdOcJ8UKvTwbGtreOK9etXPzsGXJu0onv3HryqpKTkQ719fb/JSplTff2BqhwPsgbB4rQumt84bkgWQRnFHALySjgLsMEUOe9ueiVZcB7gJLMPjhhYKtezWoYyOFcsA40NB1sulEVscPrJ3pMWRGvqqk1pRVmQZWjJ0iDYnMgOU2a2v7LdDPQF9/a9xEz0VodqtTuyQ7V60ub5mCoqJnO0+8jEfKsWZgLHBQvaL1uzZs3zY3qASSx86tSplmh37993RrveBcjxV1keJKrVplV4orUeHHX4/2/vPIDkOK87/zpN2FksABIAAWxAWGwCwGASpEiKEsVMMSDQtnQnla06Ww6lKznc+aps2aWzXJZd5brz2SqrZJsLLkmJFE1JtoIZJFKiZPlshbMkZoqEGECB2ICdTZM6fqfXPW/2297u6Zmdmd0J31ZtbZjunu7XX//m/8L3PurXiMkWdKVRIdKcaVSKtFwqNdhANxmPhWU/lOzBbRDIWBqEx8GEDG2f6kq4a1cvZTPusgoIZnw9lUq6a46jku3dvbMYA9VAkmV47oUXIZvPu8eSmZdgaamETJvGHB+SJOm9IuZYxye2wYdabzj6EzI09xgTMhsNRzT1zAzbtJR76+5MJvteVHOm7ikwymgjZPCcaXkDiiNiwgZjkuRCI7QQnjyU8PgITuq9iPvidlQkjrDEsiGcNeMtxGXBBTt2wJYtPfDv3/0OTE6fc93y3p27QFNi4Ng27Ny+zXW73Uyy5MDZqSl49fSroMZjoGCGWlJBxW+RrV71JK23Wy3g2GCY1fvwjYajYeml6W9uFteXrW42OJJ9T78186l8Lvebc7PnoFDIufCh7jqUaKSZNOgGI0gRaDjjhbLNWLZTKBiuCqTyFtqHZubgTwQXTf3DjjxY2nPFFVcA1iiet3UrFIw8fOOb/wKqFod9+/aDpsVBzxvQk0zBrgt2Q1fMWydncSkNp8+ehvnMPHRtTnqKUYoLODZJQuYfJEl6j1CO9UZY444n4Bhu25d+8sanVHB+E1UifvNAo3pG6vKDfyPg0F2mGKW3GNY8XHbZZa4apOmD3nrSiqsyEWD4E8GKiR3qroOzYbBvpKHn4cWXXoLJmXOwbecFkOr2VKLEZNhx/g7YkupxS33efON1ODt9FhwwQUkoICleC764lhBwbAY4zs3NPQwAvyjg2DiY1fvItcLRv8AWXwDsTpezdFc1uTWOITFHWiahr2/3hsYcg2x7+syZ/xxTYh/NZDOj6PbySRY8bwSQe13F68OYICo/fM0DXc7NbGNs0q1bLBRKKpSmElK7M7QXZqRxm8svv9xVlDNTM/CjZ56GLdvOg03nbYGu7hTopgmKosK+gX2Qy+ThJy+dgsWFueIyEDYomgKxuOyeUzLeBarUYjHHdiwCF3CsN7oaf7xmgmNv764jY2Nj/9H4q67uHaanpw9kMvk/TSQT70VwIcAQfug2kwKkLjsYP6SEDf6OqxdioTh+U1szWh2QGkZQQTnNNsF50pgNX1xcgm9989vu++zYvR3UmAI5PQfdPd5UwjffPANnfzoNYGPpulLsLem4cIwnNEglu8A2TJGQaRLl+DkA+AWhHKt7+DZy6/WGY1DMkZRjs8IR7w9jTHr99dN/a9v2r2MWGDPZWIKDbjFBDlWkl4n3XGwXlKbtggz3oYoM6oyOyg6/sGwHAYnF51gIjgoTkzn/8R8/gK7uLd76MyoDCQxQFQAZLDezjUrWtiXo7tkKtiODqmBRuAIyJo1M3T1OQvOmF7ZUQqYds9Vzc3OfB4CfF3DcSNxV996NhqNuFiITMs3sVvPWnJycTBUKxm8z5rxDUdRbEXaUuUYYUgcdqnF0O/QkukodvvE6qfktHheBRe44gpG6d6NqxKUQ3jzzFsTiKRgZHoa5mbOwbWsKrPwSnDr1MoDDQNFiwBQNEqnNoBsOxBIJF5Cpbq83ZDwew/YYAo5NohwFHKtj04ZvvR5wLDd9EAHSKnDkb1Y2mz0yNTXzW6qqvt+yLBnBhkkbWjCLpgBOTZ9z3V1q2kCLZVEyhorE0QaYlKGFufBYi5ksbN56HsgggcpMSE+fhcnTp73FtRhA95bzwZZjAKoGTPaa2+KMnqQmQ1zDfo9xYBK4tY+tpRzhm3edOHpdox+OdS3lEcqx0bez/scXcKzNpgsLhQOZzNyvm6b5ftM0dyOgEIzociP4ca42gpMW20JIoRuN39SMAgvAMSmD6hPhiMegNWR004JzszPw1uk3QLIcwOmNWjIJTE1CzpFATfWAycCta+xOaNAFDmi2AZuwE48GwBQVQBFwDLrL6w1HEXOs7Vlb972bCY7NHHOMujGMsUQ6nT6ay+U+UCgUrs1ms6nNm7e6tYmoEhGQ6FLjF7nWCFFyyzE+idvQMq74E2H5xuuvwtT0NEjuBOkYxHq2woLB4OWzs5CTVMiBCiZzIKUpsKsnCUcG+2G76sBW2wAJLJCSXeAoLVYEztpTOQo4Rj1FTfZ6M8Fx167+Sw8dGvphk5mo6tNhjHVNTc0NplLxd+Z1431L2ezV/DrWblbasiGnFwBsx/2Z0GJg2BYoIMFCZglmJqfcjuCxmBeX7Nl6HtiSBAVbBjm1FXJaF3z3xddgHtMzsgZxyYHzNBluP3IYdqgmbLFzEJNssGNJgFaDo8OeuuuuY9dXbfgqd1hX5ZhOp0UReJU3aKM3rzccl5uaOp47ydUAUuyRSl1IOaHLaRoG9Pf3Xjw6OvrMRtuk3u+fyWR2TqUXf2txcfFmXTd227alOGgXx9lm6IaMccFCLg/p+TlIn5uFuYV5sAzTbUmGuekUNq2VbIipAF1qDBwlAYa2GRbULvjOqTOw6GD3HgaKnodjV18K+7clQc5MQXdcBkmOgSS3mHJsUziKfo71frIafLxmgmNf3+6LxsbGnm3wJTfV4f/+7gnGZAlsw4JsIQdmwYCcngfJQS86BkySXfUoMwPiqgQpVQNJSYCT2ApZtQsWYj3wnedfgRzO05YA3n5wEPacl4QtcQOSKgNN1kBuvbnVbakcPyNJ0vtFKU9TPX9lT6aZ4Njbu+vCgwcPPtc61qv9TO8/ee+kxdgFRh6hiHA0IW/kwTEdkDQVpDh28VFBkwDiKi6WpYKsxUHq2gwZFgPoOR8WCgacevU1MPN52N6twXVXXAyalYVNMcWdWthydY5tqhzvkyTplwUca39o1usIAo7rZeng97n/nonTlgP9Rr7gxh4t3YC8oYNjWgCaAkoy7iq/mKxAXIuDIyvAtDjkbAneOjcLyU1bYN/gCGTyOXjhuR+56vLqI5fAtq4ucPQMJBPYeKLFlkloRzjOzs7eI8vyfxFw3NgHrpp3by44Dlx28ODQD6o5/1bf9u/G//Y1h8l7TV2HvK6DbdguHDFRo8Q0sGVP+XWpWEzeDaasgJxIAS7wevr0adic6oY9/X2llmXPvfA8XHH5ZdCDDSccLAuC1oNjm2arxwHgVwUcW+eRbSY49vf3Nl3jiUbfyfF7J15lEuzTddNtWJHP6cv1jnEVcL6gKmvQndgMNpNhcn4BYqlu2Nm7G2xTh5QEEFMkiMc1UOIaLOULkEh0QU88BUkNCx11UGWvLVrLrD7YpnA8+bMPtF8RcGz0I1W/4zcTHAcG+t42MrIxyyTUz6LVHenv7j75EybBflwf2+3mUyjOGHIcUGMaqMm4W0DendwKFpPgJ6//FBxFguHRIehJJSDhWLA1lYRMdh6SqU1u0Xc8kQI9b8GWTT0gS6aAY8gtWddSnrm5ubsB4IMCjtU9IBu5dTPBcffu/isPHRr+7kbaY73fe3zigR87jj1cMEyv4W3BdKdTumtdayo4MjbSXYQtm8+H87dfALNz8+4MnN27d4Im25CQHFDBdpUjzrJhSgynxUBXlzdXGxtWtNy61e3YeGJ+fv5ThmH8Jk2hKq0JXcG602INmfV+LL33qzcc/Qu7U50jTZ+jRarc2kbTdB9ghIKh6zAwsPfqsbGhdV99cGMs773rp+55EEuXDiMccV62oZvurBmEo6TIoFsGzM6lYVN3D2AD3ISqgSJLkIrF3BkwKiZt0K3W0P1WvGUR1BioWgxkFV/DNWRaLCHTjnBcWFj4S13Xf1fAcSMft+reu1FwpBkhUXAsFYTbNuze3X/VwYND36nuClp767+7/3NPZwr5i0zTcpMqiwsZOHv2rHtRuMogAg6XaYglE7B5UzfEGbhlPV2qCg44oCQQghLEVM3NaGsgg6aqIMc0d18ZW5iJxhOBg2Rd3er5+fmPG4bxEZT3qBBcZSItn0KYOqQzD1xXGrz5qFH7VrKNWLd69RhpJBxdlWjbrgoKU470f9vCBbb6Ok45/u97HjwzPT29G9eaSXV3u/OwEY62zWDnBdshGYu7ylCJebWOSeZAUlWhS1HAweJxnEWDnb9VDRKSAnEmQ0yVQY7jUgnY29FbkVAkZALG/np+rs7Pz3/ENM2PY1aMhyNBKQpwAo7rebca61bTNMIoOKJbjTE2dKv7+3vfPjY29m/rb4WNe8e/vudBY3YurWWWsm6XHvS6MDGDCRq3a49jQTKZ8AAJFmySNejConBZAjkWBwO737pwjEFMUiCBK1ersts1vGXh2I51jouLix/Udf1u6ixCXUh4VccDEB+MKHWJDeArUYWVbCOU4/ooR35+dRQc8UOUYo79/XveeejQyLc3DlXr/87jE589ZzvsfFSOCEWKxVJ3cUdyIJ6MgSwx0CQJumMxtzmFLEmgJuLgqFjuo4KmxkFTJMBIJLrVOJtGQrcaf7aacmxHOGaz2dvy+fwjCCG8uUFwDBt+YepSwLGxD2y93Gpa/4RvbOv+XlxcK8ytdpdrdZdsNaG3t/9dY2ND32rsFTfX0cfvvu/HsiwPo1LEtmWYlMEPCzfTHI+DrKEKVEEFL66YTCTc7t64sFk8kXCTNhJ23Yl5KxoqOBdbVSCOiRvXrZZaD46MfeOuE8duaPSdWteY49LS0kHDMJ5H0LmlCMX+deViiv7X/OpOwLGxQ2Sj4UjLBBTheP3o6IGnGnvFzXX0k/fc/4xt2xcaBd3NUuOHCCpI/GDxOn5bEIurEAcNNCXmJmBQCbpqEeOQuLSWorhwREgyVYaYokJS0dzstawiPFstW+18/a4Tx29s9J1abzhuN01zCvMnOOjxppHrHOX2CuXY6KEQfPyNhiNCAGOOeqGAMccbDx069PWNscTGvOv4yYkfAcDF2LINoYiqEb/RLphEQbAl4wlIKHF3rWqEnxqPg6JprviIocuMcMTZMJoCTFFcOGLJD8Gx1Up5gLEnT5w4dlOj78i6wpExps7Ozr4uSVJvGAxpLQ3/hVda5xi2XVSyJ+x8SrWYkrcIermvqNcbfTMbcfxa4Oh98Hm9BKm+kX7HD0f3m1nua7jqYCkz7WavvQw21fTZloHZ6psOHhx+shHX2azHRDgyxi6mGTJoDx6OripUZVc1UsYZ44hYEULTARGC5FbTkgjkVmMip9VKedoSjjgA0+n0Fx3HOcbDqBKoCDhuzOPbaDhajlfoXQkce3v7bxkbG/raxlhiY951fHzihwzYJavhSPOhvTIc+iYg8nDE/9HfBMLl1wUcQ/Mc633L0+n0R2zb/ji+71oSMv7zDYo5rlU91pqtrgTy623vWt9PwLFWC9a2v4Cj52FgUs6bPWXgh+kTd504dnNtlo3ee13dajydxcXFd+i6/i8UM6l1CmElCZlydZRR7y/c6uhBFLZFJW41Kkdyq/EBIHc7yK3u7d1169jY2FfXfkatt2e4W925yrFt4cgY2zw7Oztr27aCcp++KlF75YrAw2KG/uOXq6MUynE1PNZDOVYKx/7+3ttGRkYeaz3Erf2Mx09OPM0Yu0i41cvKsW1jjsW447dN07yGstVRM2TKKr9iEXilcAyNLxSTLatKhRjzEjEiIVP1E15/5dh359jY8D9XfSItvMP4yXufZcw5LODYIXBcWFj4XV3X/xJjjv5ZMEHqba1w5F3mSuEZqiwFHKtGTL3h2Ne3+9jo6OiXqz6RFt5h/J6J55jDDgk4dggc0+n0gG3bb/BlO+UAyAMrrAjcD79Kph7yz4z/PVbVXwo4Vo2YBsDx+Ojo6JeqPpEW3mH85D0vMAZjAo4dAkccqwsLC/+azWbf7haySlLpm8YxNcSl10KVH1bBVtCVp5JMctm4J66FyX1VEiNt4WdyORbsTW9f05d3D72cH/5Oc6rpd7cbj+1mH8G22Ko6R0zQUMsyy8TGEwPHRkeHOko5njw58aLD2KiAYwfBcXFx8Vgul/siutY8AIOewrIxyXWAowtfXMNSwLEqSNYbjn19A0fHxoa+UtVJtPjG4ycnXmKMjQg4dhAccczOzMy86jjOPlJ+fte2ErcbS3miEjr0fESpx3KvVwrHSlRsKz2vtWara1WOOHXQLfGxDOjr6+/AhMzEjxljbuMJr1UZzZDp3FKets5WExwymcz7MpnMA/S3vygc/8Yyj2qUY1nA1TL9LyDmGATvSkHcKoBcLzjiDBnqwIP3nK9zJDju2dN/x/Dw8COtYrt6nOf4SQFHfxF4R8ARB8/U1NSzjuMcxt/JxaYscyXZ7CDl6M8410VZrjEhE6VW6/EANfIYGwFH72Hw5lpTzBGV48BAXyfWOb7MGBsSyrEDZsj4H+R0On2NZVnfdhfoeiuaAAAgAElEQVQMKiZm/OqrVuVYLzhW4jLXolwbCbm1HruZ4NjXN3Dr2NhQh82QufcVxpwDAo4dCEd8aOfn5z9ZKBQ+hIqRV4tRncLdLKgv5hiVRV4zvIrZ6kqUYNQ5rBVUG7HfesKR78oTpBz37Om/aXi4w7ryjE+cYsAGBRw7FI6MsdT09PQrjuPs4sHSCnD0F5pHqctK4LoREAx7z2aCY1/fwHVjY0PfbCb7NPpcxgUcAxpPOF+768TxWxpt+3VvPBF2QUtLS9fn8/mvo3og95pUJB+LpNikqxqxX6CvlMcPH79L7X89qvEEf75BYGPghQOioBgKnyqSRHxher0GRi3wizoHvpSHlkeg+lVqMGFYeqllWanrt2W5CRlaP8b9v1vnuKfzlkk4KdzqgITMV0+cOHZr1Pir9fWmgSNeyOzs7McKhcJHEYb4TUspEHwIZNSwws1ky+oKMAUBrBwg+Zk0UaquEXCMgqo/uVTrDffv30pw7OsbuPbgweF/qbcNmvl44ycnRELG17IMGOs8OOIgnZ6evs+27V/G32mFNRq8FJMkd5vgWE658a9VEm+sZBv+YapVOUYp00Y/uK0Ex97e/s5bfVAUga9yqzsWjowxeXp6+quGYdxICjJM+ZFbXQ6APOwqhegK+FFXnpApivWEI71vlIKtJzBbCY579vS/Y2Rk5F/ref3NfiwxfTCg2S2wx+86fuzdjb53TeVW08Wm0+nNP4Pjv1qWdZhXi3732i0SZyvnZVcbc+Td2qgsc6Pc6nI3udGgbCU4Dgz0XTM6Ovp/G/1QNNPxReMJAcdV4zGTyexcWlr6mmmaF+KLpCJpQ/ob4UiAC1OGUUkZ//5BD0fYsWtVjkHZ7vV0tVsJjv39vW8fGxv7t2aCV6PPZfzkxPOMsYOilIcr5elk5UgDbn5+fquu61+2LOsaKhLnG1UgsMLqHIMUZLXJmiBIrUqQcDNn1qLyVrVGK/O0reX4UQ9va8Fxz9VjY0P/HnVN7fS6gKNQjqHjmTGWmJmZ+aKu625dE2aqXSi6y35it5zlbDX+v1q3uhJVybve9HsJanWEo/99/EbpdDj29e256uDBoe+0E/yirkU0uxVwLDtGGGPK5OTkg5ZlvcefYEG3GtUkX95Dbji/DEMYNOmNoyAZCiZu5kwj4BX18JRTw7hvVG3keihHqm2ktav5mkesc6Q1ZPx1jvg3zq3G2le9kIMDB/ZfOTw8/N0om7TT6wKOAo4VjeepqamP6bq+og4Si8BJMSIMqcyHGqv6m+mWK/r2K88ooHrS1WuCWy4TXtHFrXGjqCRSO8FxcHDoipGRwe+v0VQtuZtYQ0bAseKBOzs7+wv5fP5ex3FSbvxRVlesQ0MxSVJNBLxKXO5ykAuFX5PCsVKDNpNypKVZ8SfOkPErx6GhwUuHhoZ+WOm1tcN2d5+ceAYYu1AkZFbMrX7srhPHbmv0/W3KUp6oi85ms7sWFhYedRznEtvxVJt/HjapSD6Rwx+3WliGxQP5JrgbpR6jYpXl7NkMcHSnElrMa2pbnA0RBMfBwX2XjIyMPB01PtrpdQHHAOXImIBj1CCfnp7+eC6vf4RAx6tG2tef3fbHGP3A9IMmKhbJL9laLua4XvHIat+nGeGIMUbsyuMpSLMUc9y3b+iisbHBZ6PGRTu9LtatFnBc83hOpzMXGmb+oUKhcJCmG1JGm/7mXeswOAapPn/yJ1AZVuFWVwuuNRulggXHSnaoYQGtqPOjxhNRCRm/cgyD49DQ4OGhoaHno963nV4fPznxI8bYxcKt5teQgUdPnDh6e6Pvc0u61UFGmZpJ/w+9kP9T27ZjlL2mkh8/HMupwbCkTJjLTG51pS71egKyEne72ZQjLZUQpByHhgYPDQ0NvdDoh6KZji/guFo5AhNwrHqMurHIxcwE1kQihKiUJ2iFw2qBSaBZlcEurkoo4Lj6dlWjHHENmaBSHt6tPnBg/8Hh4eEXqx4YLbyDgKOAY12H78LCwvuy2ezf5PP5rbFYzM1m89MP+dZnVCeJcEM3HF/jC82DIMoD0j99MKq0xu/WVzp9MKokp1IDroJ7gFu94vqKxfZhxy/O3gx8mdxp/Em2pVpHKrVC+Ll1j5a3rjXFGVE5+rPV+/fvHR0dHf1xpdfaDtuNj0/8kAG7RLjVK6YPPnLX8WN3NPr+to1b7TcUYyyZTqf/KpPJ/DqpPh56/Nxs/8Je5I7zLdN4d3sFYHwzZKpJytD7lHN/+W3qMRgqgSN/PlFQbiQc/QmZjnSrBRxXdwIHJuBYDxik0+kLDcO4v1AoXILH0zSttE6Nq2yKa9AQ/AiapHailCPGHHmXOiqmWOvr9bDJikRTjQmZesKRSnk8V9pzp3i3WsBRrFttWQYuHCUSMvUAAR3j3Llzv6Tr+l87jrOVPy4Wka+ARbFmkqAY1Cmc315WvKOFKsuAi4gCZCWJlHrZhhIylZxT0HvWCsdSbWMx5kiuNbqRlJzhpg92YMzxnh8wBj8n3GqRra7XMx8WA0tOTU39H13XfwM3cOdjF6cfUhE5D0Naw8YPvhUw5RIy/HZBJxAEoCgoRb1eq8H82epq30/AsdY7UH5/EXMUCZnGjjDf0efn5/f/rC7yYV3XL8MZNlT6Q80raHP/rBvefaZt+FKeStRjpQkbv0GqhValBg0r5an0/WqFYylDHaAcaanWjlaOIuYYsPqgmCFT6fO95u1mZmZuL+jmJ23b3kNZagKkH4Rh4KsEjquSIGVWHKwmobPmC+d2jKpzjIJkveBoGp5CcDv0WBagGyngCCCUo5ghU4/nfM3HmJmZ/b18ofCnjLG4v3EFD8sw5ehPyPhjmEExxGZQkG6JE5QvWNhIOGK7MoRlRytHMUNGKMc1k61OOy4tLe3IZvOf1g3jZlKRtDwsAoJan+HDWioDwt8jEjJBCjQq4VIv9YjHiSrFiVKOUe59mHKk90V74RffyxFf49cidrPSZZQjKkns5zg4uK8DEzITTzPGLhIJGdGVp06oW/thZubnLzOy+fsM0zyER0kkEu6DTcCitbQRlm4Bd0hCJsyVDlKf1SjLKLBWe+UCjtVabH23F/0chVu9viOugnebmZn9tXw+/+eMsfMRgghDvrM4qUpZXbnAVxT8wpRkKcETEo+sJm5ZweWVNml2OFI5j6HnO1M53jPxHHPYIaEcxQJb1TzXDd8W1695663Jj5mm+duSJMUp/khxSVSRiia750EJm6BynnIxyKDXyqnDerncJRivoQicPwcHlovg+RtSL7eah+P+/XvHRkZGXmr4jW+iNxBLs4pO4E00HFefysLCwoFcTv9LyzLvxIcV4YhK0oWYL+YYmtUuKsJKYBilEqOSJFGv81dYrXL0W4dijkHvSbOMaok5djocT56ceNFhbFQoR6EcmxqS6fTCf83nc3+DD2xpnnZxbnWYcqw0IRPlboepySgQRr6+BuW4QiFyyW7/e9UTjsUFtjouISPgKJRjU0ORP7lz59KfyGazH6aMNguBYxQUg2KT5f4XFpOMhF+ZmkoXuE0OR6/xrQUYc+zQlmUvMcZGhHIUyrHpITk1NXvzwsLcV9G1jsfj4JTWz/baovndauZzpyVJAUxwl0AY0A8yzPVeCyAj4VkjHPmYYyOUo4DjhIBjsZWdN0HAAAbs8buOH3t3o2HRti3LGmW4M2fO9C8uLr4ai8VUxiRQZM1b4AunaUtecgLjkK5LKQHE4nHA7QzbAgSjZEsQ0zTQZBVMXQc32+1re8a70OVAGQa+SCByarKccsTjRNVJlpshg9fBHO8YVNtIv1Ms0Xa8fo7Y7JZmxHjdeLyOPKVCcKOA2epO7ASOCagRXTchnw/uyoMhHuw2RRUV+Df9jv/n/6Z4Ob7ubbO87ju/P9Xy4v9oei39L+gniQK+d2dQH0++3tW/jrk3QwrcGlj/N44XAcdGUa1Ox8VZNKdOnXrGcZxhVI6qFvcKmk3THWyldbIVAJsx0E3DBaYS0yChJcA28e47EJM1kBUJHLABXfMoIAa53GFKsly2279PPd3qIBMLONY28CqNORIEEYQESx6KBL4wOPJgpJU7aVsBx9ruYUft/frrr9+dyWQ+mEwlIKfnoKurG2RHhZia8BSPbkFXdxJkGbPZ2GHcAkX1/FdUjpI7bU/xumNrEoC8XCvpBxvvpocBtBZIRk0fjLqxUcrRsb0jkEogNUEzZKpRjvv37+24hAyV8qByLBQKoOu6+23bjqsWFcWrnODhuKwKPVDykFwNT7lUfUGvNSscceyYpo5eiFiaNerB3KjX5+bm9szNzT1vMyslqQC4FIORtyGudoEqx8C2sWhchlwuA4qmAAMTtLgKhlGAmBJzY5WqpLqDXNJU4MthopIyYQoyKk4ZpiZ55Rjljgcqw4jAjIBjbaN0/OTE84yxg1Fw9APRryT9ynDZ3ZZLAOXhSNUYzeRWExxBgsdOHDt6W22Wjd5bxByjbRS4xeLi4q9Mn5s6qVsFSCaTwCwHFEkFVdZAkSTQ1DjkjbwLPssxIdmdgnyh4A5E102RZTceh9v6FaEfUn7wRb1eiVtN2wS51dVAslrlSGvJCOVY2cAbr2CGTLmYI0ExDI6aVhyPRYXJAxLHQVPCEeDRE8fF0qyVjaAN2urll380f+bMi5u3be2C7edvg3hMdZMIjumArMZBi3WBxVSYXypAqud8yBs2aFocDNubq63JCsjAVgDS70bzLnNYedCqOGJA+U4Y8KLc6ihQricc9+49MDo6ur+jFtg6ec+9zzLGDocpR1n2ABamHP1w9Mcc0cPh+5n6XevSh3nxQz0sKbMeCRlUjm62mjEBxw1iXsVv+8Zr3/uDh+//oz9LyHOwZ89O6O/bBVu29IAixyCfVyCe2gk/PZMDrWu3Pjj4ttuyttarqMn3mLZ0B2CSRpVAAhNkWG5sQYMsyE32lwnxJxoFzrC45HrCEdUin7l2l0ioIlvdkXA8ee/TIMFF5bLV/pgjn5CpNObod6n9UOTjkOuZrXZXpiyuJSTgWDGaNn7Dubkfbnn8gb94MZt+fue2bSnY1BMHABsWFrMwPZ2DTVv3wuxcDI5cefSvr771g7+DZ3z27NL2vK7/sazAhzBTrUl22c4+QdArF5csl9UOAiS61eXUYT2Vo4Bj9WP25MR9TwNjLhzLJWTClCOvFAlwK5XmcimPH5B8llrAsfp71/F7sNeeSnz/e0+Op+d++v5YnIEiG5Cen4eFjAHbdg2+PjR2zR+PXPWB+/yGevOtmV/T7cIfqszZw6tFvtku7kPr2FCMkC80d1umYV2lz40OS84EqtFiEXgUBMPimFH9HDGuil+kAIKUo1vfZkOxA7hRrHFjbo0jJq3c+kfLgMHBkbGRkX0d1XiC4IgzZILgqKors9HhiRevq5TfrcaKCl5d8i62v4THD0gcMzQe6Sdf24j3nT4Qg9Ytp21pbETVOXLK8ZHjx+4U61a3Cn3Z0g+2F2ZnLtRz6e0gKzOGDd/bceg9mXLnj11/3vjp6T9RFOV3gIGG21LRNbkuvBLkQUjbUaegQFXIF3sHNL5w4RvQCbwaJdkIOHrFvk4Jjq77bRmwf/9wx8Fx4t77n2GMXeiHo+N4bfSi4BiVkCE48nWQBMtK4ej/wCYQ0oeiv4yL/6Ck16jo218ETstm4BgowRHYo8eP3nl7o9kgstWNtnAFx19cXByeW1iYsCzzaprpQDNK+IHnByUpy0pjj0HKcS0xR/44jYYjqkdOOR4cHt77YgUmbZtN7r3v025ChuCI9kAFiXCkOkeqY/TPkCGVWG6GDK8c/VDklWKQW03KMQqOvEIsN0PGe81TmzQjhqDJwxEYe/To0TsEHNtmlFdwIefmzh3PZfOfsCyrf0VbtAC3merQyoHR7woHxSP9cAxTjWGue1Q/x7W41Z6yYK5LzcPxwIH9HTd98L77P/McY16zW4RiOTgGFXsHZatXJmw817gS5UjeDIHS71aT50Ohk6Dpg/ShHwRJv1vNu9srlKPjCDhWwJO23GRyevLPCgX99xzH0bDAPCwBE5S9DkvIhMUhCY7l4pZBAKb/hfVzJLe/Eji6A9+RSjHHMnA8PDQ09Hxb3vSQi7r/0595gTEYo4QMxWFJOWIpTznl6C8G5+OLXg3jcswxyJ0uV8pTCRwrnV9NK0+Wm1uNJsIZMo5jP3bs6J2iCLyTHgT+WrPZ7K75hfkJwzRvIQjyccigmGNYqU8YGPH9FMnrZB4Uswz7X5hbveL/xW5FlcIREzL4gFCjCV45uk0qTB2GhgYvPHDgwHOdNCbu//QDpcYTpBxRUa8Vjv7sNTaeKFfbSB5KWLaaByT+7k/I+BMxlbjVFGf0K8dlODqPHb3zdgHHTnoQgq518tzkDbbpfNKyrBHKTvNJGBzsPMT82Wv/637g8W51mOosB0l/zJGOUa1yDIMjxhsp5jg8fODi/fv3P9NJY+LTDzz4Y2AwjMqRwgx8zDFKOVbjVvNuc5BiDMpWVwtHfm59sIu93JWHhyTvVtu2LeDYSQ9B1LVOzsx8UNfzf+jYzl5/kgZbpXnxRZxxg3O5vd8BHAAVC8zxP8W1bgD7SRZ/l1euW10tHN0YE3ZcC8iKVwpHy/ZKdyqB49DQ4EWDg4PPRtmqnV7/zAOffQUADqyGo9d4gjLK/jpHmvYX1G1n5barY45h9Y2VwpEAiPeBV47+0h3/33xChtxsPiFDytG27MePHr1d9HNsp4Fe67UsLCycVygU/l7X9Z+nY6FbVOoHyWSQnDh4zSUVYIoFoOgAklks2lFAggRIDBGKhQoOyNzk6iDIRcUi/XAsXWMRwPg3fuq7IHWnf3klGfQ7PQRuuU6xj5/X4BbLeTAJkSv2ezRhz57Bi0dHO0s5PvDgQ6cAYJC68VDMEW2FU1GDZsDwQOTh6a9z9PZdXQRO++C9J8iGzYrh6xzpHtP9xb/5wv9yLvZyzNGbEcOPCw+KXt/Popp8/I7b3y3gWCtQ2nH/ycnJb+i6fh21OsNu49jAwkWeg8133c67IMk2OKoBTPL6hkkSOtFxACaDjNuzZTiWS+QEZbBL7nOxGGzVNnWCo67nXUhiv8xOdKsf/Ow/BMIRIeFBcGUzW3/GOgqO/oRMudpGij/ysW9/PS6fqV4rHP0xRzwmwpHccMu2vnrHbe++tdHPtqhzbLSFG3D8qampX1paWrofVA0nILpKEQWkChIoCDyQQC0u2eBIzHWzEaQONtWVcUaN54bjdh5Ul4eBH5JRypEA7cGXG05MLhW0owpYq3JEOLpK0oNjx7nVn33o4Z8AwH4q4UFbeDFHcqu9mS9BPRz5RAufiQ5yq8sVfuN95V1qPs5IwORjzbxy9KvFSmse/coRr5/2/Vk98Nduv+3dtzTg0VpxSAHHRlu4Acc/e/bs5QsLC9+TY3GwXZWIcJRBxQ4/sgWSqwixqYUGkhwHjCyiC81kBpJMMUjMVC+DMQyKYZnuapQjuVbkYlfjVmMPTHcKoWHAoUNjB/fu7awi8Ice+txPQFoJR6/ZLbrVGHOMhmNQHSMBEpUjP2WQT8T4oeh3rf3JGMpWh9U5+sEYHHP0XGfetcbtVsDRtJ647bZbbm7AoyXg2GijNvr4U1NTF8zNzZ2WFIi5yWosx0DdKDFwZNNThthdnMUApBRIEHNPSQUbVMly44yKg9tL4MiSu0xDNXBcoRCLXcyrVY4EyqiYI9a1uSUsug4XXXT4wMDAACqpjvn6h4c//ypjbB/FGpfrHFcrR14p8n0YSVny2Wiqf4yCIx6HhyQB0T+nmqoi/G61f+pgJcrRD0f8m9xqz+U2n3z3rbfc1OhBIJRjoy3coOO/+uqr3zeMwhFV85pPyMWFvjC+yGRclwYzyThduxuAYRZbAlVyQAXTc7/tGDB0tRVWFziWizkGudWVwhH79+HCUuhWX3TR4W19fX2zDTJpUx724c99YQUcERJhyjHIjfb/zx+D9CdkeICWS8jwqpFASaGTMLe6EuVIcUU+QYNAxA8F/CrGI5+69Zabrm/0DRNwbLSFG3T8mZmZ/7SwsPBZxmzPtZJi4DrJMkIRlSACEjtForONQhIhig625SZuZDcxI4Hkrm2zup8knXakooxQjrg/Zat5t7pSOKJyRBgwx7FvuumGpCS5qfeO+frc5//pDQA2EKUceXXo/z1IOS5ntJez1f4Snmrd6krhSAAspyKD4EjQNU1TwLFjnoA1XuiZM29+LJ9b+qiK9Y1yDGQJXSCsb8SEtKcILQchuew6YyxScQt5NHC97+KSsuQWl0vI4GurstohcKSZMfWAI4JBApi64Ybrdq7RVC272+e/gHCEquHoV4x8Sc7KjHYwHINKd6JijmRkf1ceglols2XKKUcuVv2NW26+8YZG31ShHBtt4QYfPzf/xi+eeuWlh3fu3A35ggHxZA+ApEHeNN01s6WYAtlCHizbcdfP7u7aDGZBBxXX3FYUcGyzFJDn4ccrx3L/D10crFjK4y8C9quF0loy7prFy12fcRVH/Dufz7rnuTA//50777z9qgabs+kO/4V//OJpxlg/fkBQEw78iXajUh4+4RI0FTDM3faU4so6R38pT1R9YzXZarr3UcrRrxr5Dj0uIB3n6zfccN2Njb5ZAo6NtnCDj8/YK/F7/uaTBdvMYUwOtp+/A+KJbjh/+04oGCbYEkCmYIDpxCGZOO+JTNZhsVjqUk1VtuEyDZjlpgJsPFV6kPxZ6rC/o+AYpBr8WUp6/yA4YrYaHxZZkj5x7bXv+O0Gm7PpDv+P//SlusKRjznycOQz1pWqRnK7/R+eQcoxbKYM/39/IThX9L1iaV/btp+48YbrRLa66UZrE57Qpz/1qz+YnXzh5/p2dMP2rV2g2jZMvjUFesGCnb374KVTk7Br32Wnjv/iB45I5x1ZWJxZHJ7Lzf+BZTvvUxUpxgfXefead6ErgSPtW/TrS5YKc6tKRb3F2TF+OHqzaAzIZrMw0N97/ejo6FNNaP6GntI/ffHLpwFghXL0Gk94ReB8KQ9fhuOvW/T/vexmryzl4ZUjDz86dli2mgBJH3wUfyT48arRn8Gmv+lnmHKkY1mWJeDY0FHXRgefOf2l3U89dv+4o09f07e9Z5Nk5GB+Zm4pPbuU7t68w966fej/XXr18Q/1jN21ItM7MzN3bS63+L8A4Ih/0BPQ+HncQa429nMMjFcW3Wq+tCPoAaF6Nn4uLU0f9DKTBmQyGfPiiw5v3blzZ7aNbltFl/LFL32lFHP0u9VU5+h3q4PqFvnSHtreU4ir4RilHIMy1eVKefz3vVzWmj4geWCSW83B8Ws3XP8uUQRe0QgSG7kWOPfmw72zb/30RpmxkbnZuSVF7Xr20pv/4BGJpsSE2CmdTv9GNpv9E9M0d/BuNQ7iSuAYqDBD4Mg/GHzwPQyOOEOGOc63rr32He/qxNv8pS//82sAsNcfc+SVY1CRNz+P2h+HDINjNfFGflxUUspTjXLkwcgXg5eUpWN/7fp3XSvg2IkPxEZcM2MsNj09/UeFQuG/27bdRQ9UOTfbnRHhm1tdcr+5udX8g8G72LwbRQ0p8GHglSPGHLdu2foLhw+PfWEj7LLR7/mVrzxyigEMEhzRTkFudVAihoegP1u97GYvK0e+xpEv8g5LyvAKkg+78DHHqJhzVAY7CI6WZT95/XXvFEXgGz04O+39M5nMBYuLix+3bftXccDj4KV4kl8hEhzLKUeKPfHutT/mRBlrUpI8HBlzzrztisv2dVp9I427f37ksVOMsUG0Ce9WV6oc/XFIAt2ym+1lq8upRr7e0R9+4ceGOx4Yc8dM2H33ew5hcKQppyFw/PZ173rHOxv9bIpsdaMt3KLHT6fTh5eWlj4JAO4gpJgSgZD+9hpZBNQ/Us9IX3foICVB2eqVcLS85gqq+ieXXnrJ/2xRM9Z82o88+ngkHMPKd3jFF5Sg8ZfyRMUa6XW/YuQB6Y8x+z8UK4Uj71XwCRrc3zTN71/3rndeUbNxIw4g4NhoC7f48aempo6bpvkXhmEMkbrgYYhzbviHhhQDf9lBD0wpi+lYpZXmcB/8P+dCvnHllVeOSJKkt7gZ13z6jz766MsAMETKET9IaCkJVH9u0xG3L6P37S/J4f/HK0R++6hYY5By5IFYLuZYzq0OAiUPRX/Jl5egs0AC6Zlrrrnq4jUbtcIdBRwrNFSnbzYzM/P+QqHw547j9FMc0lWPklJSjjiY+dfwdb6Uwx9vxL8lWNmFBeNp+ADgg59MJu8YHh5+pJNt//jjj/8YAIb5mGO94cjDL0o9BmWqV3xYFhsZ01jww7Fa5eiHZXEq6svXvP2qkUaPCwHHRlu4jY7PGJOmpqY+nMvl/ggAtrudXdRYqb0UPljUup9iRQi5KOWIQMQv3BY78OB3T0/Px0ZGRv64jcy3pkt54oknXnIcZ6Ra5ehXkH51SDFHgh0pTB6OfJ2j//98trpat3otmWuKQRbh+Orbr75ycE0GrWInAccqjCU29SyAme2ZmZn/ls1mf9+y2WZcPhahiF8UHyK3je/Iw7vcJWA6npuIDz99xWKxTwwPD3fcbJig8fXEE0+UlKOXqIp2q3kQBrnVfBabIBcGR7+SDIs3Ugya/yCk++2vVvAnYYJgGVQYTjFpxthrV1/1tv2Nfh4FHBtt4TY+fjqd3lwoGL9v2faHbNvuwcHLz6Tww5B/WOghArerkOyqxVwuB6lUSihGbsw8+eSTuBTtoSDl6H4guU1HcI70csyxHBxJDfLbh7nVfGaaIMorRr96pNMuV8pTaQwyCI54fE85Sq9c+bYjw41+tAQcG23hDjj+7OxsTzavf9gyzQ/LsnyB29Ci2EQCVWU5t9o0Cq6FZFmeSiaTvzswMPDZDjBZxZf41FNPfc9xnMsJjqjEy8Uc/aDzK8dK4egv2eGTbkHqMUw5hsWcgyBZruaRPLYACl4AAAKnSURBVJCie/302644cknFRlzjhgKOazSc2G21BRhj8cnJ6ffquv5Lsiy/U1XVGMWK/AH6knIEZ85xnIdSqdRHd+/efU7YdaUFnnrqqS8DwJ28cqSV+Lwu3Ssz1XxGulwWOkw5hkGxnGKsJlsdphzLudYUqqGwDWPOly6//MjxRo8VAcdGW7hDj59OpwcymcxVjsMuA4DdADJ211UB/WiQDMacScakf+/uTj62Y8eOTIeaKfKyv/Wtb/3Gz2JsHzBNc6TYqswyDMNxHIdpmmZLkmLLsswURcFvWZZlqQhIJsuyLcuKoyi4DTBZxm1kJkmSrSiqpSiq7a6UISuOLEsWHkeWZQdflyT8XWKqqjDANsqy5CCIvdckS1GwvEoqSBLkZVnJSRJkJUnWbdvG11XHcTRJkmTHcRTGmGLbLMYY0/AbwJEYYzJ+42XYto3jAhyHSYzZmuOA4jiOypijWZYdY8xJ2raTApxI6jiv2zb7qyuuuPTrkcarcQMBxxoNKHYXFhAWaE8LCDi2530VVyUsICxQowUEHGs0oNhdWEBYoD0tIODYnvdVXJWwgLBAjRYQcKzRgGJ3YQFhgfa0gIBje95XcVXCAsICNVpAwLFGA4rdhQWEBdrTAgKO7XlfxVUJCwgL1GgBAccaDSh2FxYQFmhPCwg4tud9FVclLCAsUKMFBBxrNKDYXVhAWKA9LSDg2J73VVyVsICwQI0WEHCs0YBid2EBYYH2tICAY3veV3FVwgLCAjVaQMCxRgOK3YUFhAXa0wICju15X8VVCQsIC9RoAQHHGg0odhcWEBZoTwsIOLbnfRVXJSwgLFCjBQQcazSg2F1YQFigPS0g4Nie91VclbCAsECNFhBwrNGAYndhAWGB9rSAgGN73ldxVcICwgI1WuD/AwKerq0KuoFJAAAAAElFTkSuQmCC;" vertex="1" parent="1">
          <mxGeometry x="1560" y="530" width="121.46" height="130" as="geometry" />
        </mxCell>
        <mxCell id="m2H0JOLHWEN70MxN9WDA-2306" value="" style="endArrow=classic;startArrow=classic;html=1;rounded=0;" edge="1" parent="1">
          <mxGeometry width="50" height="50" relative="1" as="geometry">
            <mxPoint x="560" y="670" as="sourcePoint" />
            <mxPoint x="910" y="480" as="targetPoint" />
            <Array as="points">
              <mxPoint x="560" y="680" />
              <mxPoint x="710" y="680" />
              <mxPoint x="710" y="480" />
            </Array>
          </mxGeometry>
        </mxCell>
        <mxCell id="m2H0JOLHWEN70MxN9WDA-2307" value="" style="endArrow=classic;startArrow=classic;html=1;rounded=0;" edge="1" parent="1">
          <mxGeometry width="50" height="50" relative="1" as="geometry">
            <mxPoint x="540" y="670" as="sourcePoint" />
            <mxPoint x="935" y="520" as="targetPoint" />
            <Array as="points">
              <mxPoint x="540" y="710" />
              <mxPoint x="735" y="710" />
              <mxPoint x="735" y="520" />
            </Array>
          </mxGeometry>
        </mxCell>
        <mxCell id="m2H0JOLHWEN70MxN9WDA-2310" value="" style="endArrow=classic;startArrow=classic;html=1;rounded=0;" edge="1" parent="1">
          <mxGeometry width="50" height="50" relative="1" as="geometry">
            <mxPoint x="1278" y="483.1" as="sourcePoint" />
            <mxPoint x="1588" y="643.1" as="targetPoint" />
            <Array as="points">
              <mxPoint x="1498" y="483.1" />
              <mxPoint x="1498" y="673.1" />
              <mxPoint x="1588" y="673.1" />
            </Array>
          </mxGeometry>
        </mxCell>
        <mxCell id="m2H0JOLHWEN70MxN9WDA-2312" value="" style="endArrow=classic;startArrow=classic;html=1;rounded=0;entryX=0.354;entryY=1.012;entryDx=0;entryDy=0;entryPerimeter=0;" edge="1" parent="1" target="m2H0JOLHWEN70MxN9WDA-2305">
          <mxGeometry width="50" height="50" relative="1" as="geometry">
            <mxPoint x="1300" y="530" as="sourcePoint" />
            <mxPoint x="1610" y="690" as="targetPoint" />
            <Array as="points">
              <mxPoint x="1470" y="530" />
              <mxPoint x="1470" y="710" />
              <mxPoint x="1603" y="710" />
            </Array>
          </mxGeometry>
        </mxCell>
        <mxCell id="m2H0JOLHWEN70MxN9WDA-2317" value="UBIQUITI UMA-D" style="text;html=1;align=center;verticalAlign=middle;whiteSpace=wrap;rounded=0;shadow=0;fontStyle=1;textShadow=0;" vertex="1" parent="1">
          <mxGeometry x="494" y="482.75000000000006" width="123" height="55" as="geometry" />
        </mxCell>
        <mxCell id="m2H0JOLHWEN70MxN9WDA-2318" value="UBIQUITI UMA-D" style="text;html=1;align=center;verticalAlign=middle;whiteSpace=wrap;rounded=0;shadow=0;fontStyle=1;textShadow=0;" vertex="1" parent="1">
          <mxGeometry x="1570" y="475.00000000000006" width="123" height="55" as="geometry" />
        </mxCell>
      </root>
    </mxGraphModel>
  </diagram>
</mxfile>
